{
.appVersion = "3151";
.formatVersion = 3;
customParameters = (
{
name = vendorID;
value = "2377";
},
{
name = panose;
value = (
0,
0,
0,
0,
0,
0,
0,
0,
0,
0
);
},
{
name = unicodeRanges;
value = (
0,
1,
2,
3,
4,
5,
6,
7,
24,
29,
31,
32,
33,
35,
36,
37,
38,
45,
62
);
},
{
name = codePageRanges;
value = (
"1252",
"1250",
"1254",
"1257",
"1258",
"bit 29"
);
},
{
name = fsType;
value = (
);
},
{
name = glyphOrder;
value = (
.notdef,
A,
Aacute,
Abreve,
uni1EAE,
uni1EB6,
uni1EB0,
uni1EB2,
uni1EB4,
uni01CD,
Acircumflex,
uni1EA4,
uni1EAC,
uni1EA6,
uni1EA8,
uni1EAA,
uni0200,
Adieresis,
uni01DE,
uni0226,
uni1EA0,
uni01E0,
Agrave,
uni1EA2,
uni0202,
uni2C6D,
Amacron,
Aogonek,
Aring,
uni1E00,
uni023A,
Atilde,
AE,
uni01E2,
B,
uni1E02,
uni1E04,
uniA7B4,
uni0181,
Bmacronbelow,
uni0243,
C,
Cacute,
Ccaron,
Ccedilla,
uni1E08,
Ccircumflex,
Cdotaccent,
uniA7B3,
uni0187,
uni023B,
D,
Eth,
Dcaron,
uni1E10,
uni1E12,
Dcroat,
uni1E0A,
uni1E0C,
uni018A,
Dmacronbelow,
Dtail,
E,
Eacute,
Ecaron,
uni0228,
uni1E1C,
Ecircumflex,
uni1EBE,
uni1E18,
uni1EC6,
uni1EC0,
uni1EC2,
uni1EC4,
uni0204,
Edieresis,
Edotaccent,
uni1EB8,
Egrave,
uni1EBA,
uni0206,
Emacron,
uni1E16,
uni1E14,
Eogonek,
uni0190,
uni018E,
uni01A9,
uni0246,
uni1EBC,
uni1E1A,
uni018F,
uni01B7,
uni01EE,
uni01B8,
F,
uni1E1E,
uni0191,
G,
uni01F4,
Gbreve,
Gcaron,
Gcircumflex,
uni0122,
Gdotaccent,
uni0193,
uni0241,
uni1E20,
uni01E4,
H,
Hbar,
uni1E2A,
uni021E,
uni1E28,
Hcircumflex,
uni1E26,
uni1E22,
uni1E24,
uniA726,
uniA7AA,
uniA78D,
I,
IJ,
Iacute,
uni01CF,
Icircumflex,
uni0208,
Idieresis,
uni1E2E,
Idotaccent,
uni1ECA,
Igrave,
uni1EC8,
uni020A,
Imacron,
Iogonek,
Iotalatin,
uni0197,
Itilde,
uni1E2C,
J,
uni004A0301,
Jcircumflex,
uniA7B2,
uni0248,
K,
uni1E30,
uni01E8,
uni0136,
uni1E32,
uni0198,
Kmacronbelow,
uniA740,
L,
Lacute,
uni023D,
uniA7AD,
Lcaron,
uni1E3C,
uni013B,
uni1E36,
uni1E38,
uni2C60,
Lmacronbelow,
uni2C62,
Lslash,
M,
uni1E3E,
uni1E40,
uni1E42,
uni019C,
N,
Nacute,
Ncaron,
uni1E4A,
uni0145,
uni1E44,
uni1E46,
uni01F8,
uni019D,

glyphs = (
{
glyphname = .notdef;
layers = (
{
layerId = m01;
shapes = (
{
closed = 1;
nodes = (
(420,3,o),
(434,12,o),
(439,16,qs),
(441,18,o),
(442,27,o),
(442,31,qs),
(442,84,o),
(442,162,o),
(443,234,o),
(443,319,o),
(443,379,qs),
(443,387,o),
(446,402,o),
(450,409,q),
(452,411,o),
(444,421,o),
(445,423,qs),
(447,428,o),
(451,436,o),
(451,442,qs),
(451,581,ls),
(451,591,o),
(446,597,qs),
(442,602,o),
(451,607,o),
(451,611,qs),
(451,646,ls),
(451,655,o),
(450,673,o),
(450,682,qs),
(450,687,o),
(441,696,o),
(436,698,qs),
(433,700,o),
(424,698,o),
(420,698,qs),
(78,698,ls),
(74,698,o),
(65,699,o),
(61,698,qs),
(57,698,o),
(45,684,o),
(45,679,qs),
(45,629,ls),
(45,622,o),
(46,607,o),
(45,600,q),
(37,594,o),
(45,584,o),
(45,578,qs),
(45,477,ls),
(45,473,o),
(39,465,o),
(40,463,q),
(44,459,o),
(45,449,o),
(45,444,qs),
(45,317,o),
(47,155,o),
(51,63,o),
(56,22,o),
(62,12,o),
(66,12,qs),
(113,12,o),
(158,12,o),
(175,11,o),
(179,9,qs),
(187,4,o),
(198,12,o),
(205,12,qs),
(258,12,o),
(307,11,o),
(324,11,o),
(327,12,qs),
(335,14,o),
(346,2,o),
(353,12,q),
(367,3,o),
(382,3,qs),
(414,3,ls)
);
},
{
closed = 1;
nodes = (
(233,384,qs),
(228,398,o),
(209,430,o),
(200,444,qs),
(186,469,o),
(151,535,o),
(117,598,o),
(95,642,o),
(93,645,qs),
(91,650,o),
(86,658,o),
(84,662,q),
(85,662,o),
(88,663,o),
(89,663,qs),
(398,663,l),
(395,659,o),
(392,651,qs),
(391,648,o),
(368,604,o),
(334,541,o),
(299,475,o),
(285,450,qs),
(276,436,o),
(257,404,o),
(252,390,qs),
(248,379,o),
(240,371,q),
(236,376,o)
);
},
{
closed = 1;
nodes = (
(383,114,q),
(379,122,o),
(367,142,o),
(365,148,q),
(360,173,o),
(344,191,q),
(343,202,o),
(324,239,o),
(303,275,o),
(298,284,qs),
(292,298,o),
(276,314,o),
(268,327,q),
(267,333,o),
(263,342,o),
(261,346,q),
(264,350,o),
(270,359,o),
(271,364,qs),
(273,383,o),
(290,395,o),
(297,407,qs),
(322,452,o),
(357,519,o),
(393,586,o),
(417,629,q),
(417,490,ls),
(417,483,o),
(416,472,o),
(412,466,qs),
(403,454,o),
(412,438,qs),
(416,429,o),
(412,424,qs),
(411,423,o),
(408,415,o),
(409,413,q),
(414,407,o),
(417,397,o),
(412,390,qs),
(410,388,o),
(407,377,o),
(409,375,qs),
(412,371,o),
(415,352,o),
(417,298,o),
(417,241,qs),
(417,227,o),
(409,219,qs),
(408,218,o),
(410,213,o),
(409,211,qs),
(407,204,o),
(418,192,o),
(409,186,q),
(409,78,l),
(398,95,o)
);
},
{
closed = 1;
nodes = (
(79,126,o),
(77,138,o),
(72,143,q),
(70,148,o),
(74,154,qs),
(87,172,o),
(76,194,qs),
(73,202,o),
(73,214,o),
(78,220,q),
(80,221,o),
(79,227,o),
(78,228,qs),
(74,233,o),
(71,242,o),
(71,247,qs),
(71,264,o),
(72,281,o),
(78,287,q),
(81,293,o),
(76,298,qs),
(72,303,o),
(72,313,o),
(70,318,q),
(69,326,o),
(81,340,o),
(71,347,q),
(71,618,l),
(94,576,o),
(129,511,o),
(164,445,o),
(188,401,qs),
(195,389,o),
(213,377,o),
(214,358,qs),
(215,351,o),
(220,345,q),
(217,333,l),
(210,320,o),
(193,304,o),
(187,290,qs),
(182,281,o),
(161,245,o),
(142,208,o),
(141,197,q),
(125,179,o),
(120,154,qs),
(119,148,o),
(107,128,o),
(102,120,qs),
(95,111,o),
(84,97,o),
(79,89,q),
(79,120,ls)
);
},
{
closed = 1;
nodes = (
(168,46,o),
(161,46,qs),
(91,46,l),
(102,54,o),
(111,81,o),
(115,94,q),
(129,104,o),
(141,130,o),
(143,145,q),
(168,189,o),
(216,275,o),
(241,318,q),
(267,274,o),
(317,184,o),
(342,139,q),
(344,124,o),
(357,98,o),
(370,88,q),
(374,75,o),
(384,47,o),
(396,39,q),
(386,39,o),
(368,38,o),
(358,38,qs),
(257,38,ls),
(250,38,o),
(236,38,o),
(229,43,qs),
(227,45,o),
(215,38,o),
(211,39,qs),
(207,41,o),
(199,45,o),
(194,39,q),
(188,36,o),
(186,38,qs),
(181,43,o)
);
}
);
userData = {
assembly = "NPUSHB[ ]	/* 93 values pushed */
36 1 4 3 244 203 192 191 182 166 139 128 110 109 107 59 53 32 29 15 6 4 73 2 2 1 5 3 76 220 1 5 1 75 7 1 0 1 1 0 113 0 3 0 4 6 3 4 103 0 6 5 1 6 87 0 5 1 1 5 87 0 5 5 1 97 2 1 1 5 1 81 1 0 254 253 235 229 93 91 43 41 16 14 9 5 0 79 1 78 8 6 22 
CALL[ ]	/* CallFunction */";
};
width = 491;
}
);
note = ".notdef";
},
{
glyphname = A;
kernRight = A;
layers = (
{
layerId = m01;
shapes = (
{
closed = 1;
nodes = (
(270,1,o),
(307,1,o),
(337,1,o),
(341,1,qs),
(352,1,o),
(369,8,o),
(379,9,q),
(413,1,l),
(421,1,o),
(452,5,o),
(452,17,qs),
(452,20,o),
(450,29,o),
(447,33,q),
(434,60,o),
(405,112,o),
(391,137,qs),
(387,146,o),
(375,164,o),
(373,173,qs),
(372,180,o),
(358,212,o),
(342,242,o),
(337,246,qs),
(328,254,o),
(324,274,o),
(317,281,qs),
(304,297,o),
(288,335,o),
(275,351,q),
(275,370,o),
(264,381,qs),
(257,389,o),
(252,407,o),
(246,414,qs),
(240,420,o),
(232,434,o),
(227,441,q),
(208,477,o),
(172,547,o),
(153,581,qs),
(149,589,o),
(139,604,o),
(138,611,qs),
(138,622,o),
(120,634,o),
(120,644,q),
(112,651,o),
(102,668,o),
(97,677,q),
(93,682,o),
(84,692,o),
(79,696,qs),
(71,704,o),
(48,693,o),
(48,681,qs),
(48,594,ls),
(48,592,o),
(48,586,o),
(49,584,q),
(54,580,o),
(57,569,o),
(57,564,qs),
(57,560,o),
(56,552,o),
(56,548,qs),
(56,451,ls),
(56,446,o),
(55,437,o),
(54,432,q),
(48,430,o),
(52,422,o),
(56,414,o),
(49,411,q),
(49,408,o),
(49,396,o),
(49,359,o),
(48,283,o),
(48,151,o),
(48,48,qs),
(48,40,o),
(48,26,o),
(41,19,q),
(38,17,o),
(44,9,o),
(48,8,qs),
(52,8,o),
(75,7,o),
(100,5,o),
(103,2,qs),
(104,1,o),
(126,8,o),
(132,8,qs),
(201,8,ls),
(213,8,o),
(221,5,o),
(227,1,o),
(236,1,qs),
(241,1,o)
);
},
{
closed = 1;
nodes = (
(110,385,o),
(94,379,q),
(93,378,o),
(89,381,o),
(89,382,qs),
(88,388,o),
(88,418,o),
(88,421,qs),
(88,426,o),
(86,436,o),
(82,440,qs),
(80,442,o),
(80,467,o),
(81,469,qs),
(95,489,o),
(83,507,q),
(90,524,o),
(88,527,qs),
(85,530,o),
(82,559,o),
(81,594,o),
(81,623,o),
(81,626,qs),
(81,629,o),
(88,629,o),
(88,627,qs),
(88,619,o),
(104,611,o),
(104,603,qs),
(104,596,o),
(111,585,o),
(115,580,qs),
(120,574,o),
(127,561,o),
(133,556,qs),
(139,552,o),
(136,537,o),
(143,532,q),
(151,517,o),
(175,470,o),
(195,433,o),
(196,432,qs),
(207,425,o),
(213,396,o),
(220,387,qs),
(221,386,o),
(217,379,o),
(215,379,qs),
(207,378,o),
(186,383,o),
(178,377,q),
(170,373,o),
(159,377,q),
(144,385,o)
);
},
{
closed = 1;
nodes = (
(377,33,o),
(372,32,qs),
(364,30,o),
(360,32,q),
(356,37,o),
(331,40,o),
(307,36,o),
(303,32,q),
(296,40,o),
(262,40,o),
(255,32,q),
(249,37,o),
(237,39,o),
(229,39,qs),
(225,39,o),
(207,39,o),
(157,39,o),
(104,39,qs),
(100,39,o),
(92,38,o),
(88,39,q),
(80,44,o),
(71,55,o),
(76,61,qs),
(84,69,o),
(75,77,q),
(72,81,o),
(77,84,o),
(78,86,qs),
(80,91,o),
(80,109,o),
(80,113,qs),
(80,118,o),
(83,129,o),
(87,133,q),
(79,142,o),
(79,156,qs),
(79,161,o),
(81,174,o),
(81,180,qs),
(80,304,ls),
(80,311,o),
(84,325,o),
(88,331,qs),
(89,333,o),
(85,340,o),
(83,342,q),
(83,346,o),
(107,354,o),
(110,351,q),
(115,348,o),
(127,347,o),
(133,347,qs),
(226,347,ls),
(244,347,o),
(251,332,qs),
(254,324,o),
(262,307,o),
(267,299,qs),
(275,289,o),
(285,264,o),
(296,255,qs),
(301,251,o),
(298,236,o),
(305,232,qs),
(312,228,o),
(314,215,o),
(316,210,qs),
(319,202,o),
(339,168,o),
(356,134,o),
(356,126,q),
(357,122,o),
(362,114,o),
(365,110,q),
(380,95,o),
(397,59,o),
(407,42,q),
(411,32,o),
(405,32,o),
(397,31,q),
(393,34,o)
);
},
{
closed = 1;
nodes = (
(234,179,q),
(238,188,o),
(229,197,q),
(225,203,o),
(203,214,o),
(182,219,o),
(176,213,q),
(172,207,o),
(165,194,o),
(163,186,q),
(163,182,o),
(172,170,o),
(173,164,qs),
(176,150,o),
(208,149,o),
(226,162,q),
(232,168,o)
);
},
{
closed = 1;
nodes = (
(194,175,o),
(193,179,qs),
(192,181,o),
(190,184,o),
(190,185,qs),
(190,187,o),
(192,191,o),
(193,192,qs),
(195,194,o),
(207,190,o),
(208,188,q),
(210,186,o),
(209,183,q),
(209,180,o),
(207,178,qs),
(203,175,o)
);
}
);
userData = {
assembly = "NPUSHB[ ]	/* 107 values pushed */
68 1 4 3 194 1 8 4 208 199 2 5 8 226 223 2 7 5 91 1 1 7 5 76 138 136 129 54 51 32 6 3 74 0 8 4 5 4 8 5 128 0 7 5 1 5 7 1 128 0 3 0 4 8 3 4 103 6 1 5 5 1 97 2 1 1 1 38 77 6 1 5 5 0 95 9 1 0 0 38 0 78 1 0 237 236 232 230 225 224 221 213 183 179 152 151 11 10 5 3 0 98 1 93 10 8 22 
CALL[ ]	/* CallFunction */";
};
width = 452;
}
);
note = A;
unicode = 65;
},
{
glyphname = uni1EB0;
kernRight = A;
layers = (
{
layerId = m01;
shapes = (
{
closed = 1;
nodes = (
(270,1,o),
(307,1,o),
(337,1,o),
(341,1,qs),
(352,1,o),
(369,8,o),
(379,9,q),
(413,1,l),
(421,1,o),
(452,5,o),
(452,17,qs),
(452,20,o),
(450,29,o),
(447,33,q),
(434,60,o),
(405,112,o),
(391,137,qs),
(387,146,o),
(375,164,o),
(373,173,qs),
(372,180,o),
(358,212,o),
(342,242,o),
(337,246,qs),
(328,254,o),
(324,274,o),
(317,281,qs),
(304,297,o),
(288,335,o),
(275,351,q),
(275,370,o),
(264,381,qs),
(257,389,o),
(252,407,o),
(246,414,qs),
(240,420,o),
(232,434,o),
(227,441,q),
(208,477,o),
(172,547,o),
(153,581,qs),
(149,589,o),
(139,604,o),
(138,611,qs),
(138,622,o),
(120,634,o),
(120,644,q),
(112,651,o),
(102,668,o),
(97,677,q),
(93,682,o),
(84,692,o),
(79,696,qs),
(71,704,o),
(48,693,o),
(48,681,qs),
(48,594,ls),
(48,592,o),
(48,586,o),
(49,584,q),
(54,580,o),
(57,569,o),
(57,564,qs),
(57,560,o),
(56,552,o),
(56,548,qs),
(56,451,ls),
(56,446,o),
(55,437,o),
(54,432,q),
(48,430,o),
(52,422,o),
(56,414,o),
(49,411,q),
(49,408,o),
(49,396,o),
(49,359,o),
(48,283,o),
(48,151,o),
(48,48,qs),
(48,40,o),
(48,26,o),
(41,19,q),
(38,17,o),
(44,9,o),
(48,8,qs),
(52,8,o),
(75,7,o),
(100,5,o),
(103,2,qs),
(104,1,o),
(126,8,o),
(132,8,qs),
(201,8,ls),
(213,8,o),
(221,5,o),
(227,1,o),
(236,1,qs),
(241,1,o)
);
},
{
closed = 1;
nodes = (
(110,385,o),
(94,379,q),
(93,378,o),
(89,381,o),
(89,382,qs),
(88,388,o),
(88,418,o),
(88,421,qs),
(88,426,o),
(86,436,o),
(82,440,qs),
(80,442,o),
(80,467,o),
(81,469,qs),
(95,489,o),
(83,507,q),
(90,524,o),
(88,527,qs),
(85,530,o),
(82,559,o),
(81,594,o),
(81,623,o),
(81,626,qs),
(81,629,o),
(88,629,o),
(88,627,qs),
(88,619,o),
(104,611,o),
(104,603,qs),
(104,596,o),
(111,585,o),
(115,580,qs),
(120,574,o),
(127,561,o),
(133,556,qs),
(139,552,o),
(136,537,o),
(143,532,q),
(151,517,o),
(175,470,o),
(195,433,o),
(196,432,qs),
(207,425,o),
(213,396,o),
(220,387,qs),
(221,386,o),
(217,379,o),
(215,379,qs),
(207,378,o),
(186,383,o),
(178,377,q),
(170,373,o),
(159,377,q),
(144,385,o)
);
},
{
closed = 1;
nodes = (
(377,33,o),
(372,32,qs),
(364,30,o),
(360,32,q),
(356,37,o),
(331,40,o),
(307,36,o),
(303,32,q),
(296,40,o),
(262,40,o),
(255,32,q),
(249,37,o),
(237,39,o),
(229,39,qs),
(225,39,o),
(207,39,o),
(157,39,o),
(104,39,qs),
(100,39,o),
(92,38,o),
(88,39,q),
(80,44,o),
(71,55,o),
(76,61,qs),
(84,69,o),
(75,77,q),
(72,81,o),
(77,84,o),
(78,86,qs),
(80,91,o),
(80,109,o),
(80,113,qs),
(80,118,o),
(83,129,o),
(87,133,q),
(79,142,o),
(79,156,qs),
(79,161,o),
(81,174,o),
(81,180,qs),
(80,304,ls),
(80,311,o),
(84,325,o),
(88,331,qs),
(89,333,o),
(85,340,o),
(83,342,q),
(83,346,o),
(107,354,o),
(110,351,q),
(115,348,o),
(127,347,o),
(133,347,qs),
(226,347,ls),
(244,347,o),
(251,332,qs),
(254,324,o),
(262,307,o),
(267,299,qs),
(275,289,o),
(285,264,o),
(296,255,qs),
(301,251,o),
(298,236,o),
(305,232,qs),
(312,228,o),
(314,215,o),
(316,210,qs),
(319,202,o),
(339,168,o),
(356,134,o),
(356,126,q),
(357,122,o),
(362,114,o),
(365,110,q),
(380,95,o),
(397,59,o),
(407,42,q),
(411,32,o),
(405,32,o),
(397,31,q),
(393,34,o)
);
},
{
closed = 1;
nodes = (
(234,179,q),
(238,188,o),
(229,197,q),
(225,203,o),
(203,214,o),
(182,219,o),
(176,213,q),
(172,207,o),
(165,194,o),
(163,186,q),
(163,182,o),
(172,170,o),
(173,164,qs),
(176,150,o),
(208,149,o),
(226,162,q),
(232,168,o)
);
},
{
closed = 1;
nodes = (
(194,175,o),
(193,179,qs),
(192,181,o),
(190,184,o),
(190,185,qs),
(190,187,o),
(192,191,o),
(193,192,qs),
(195,194,o),
(207,190,o),
(208,188,q),
(210,186,o),
(209,183,q),
(209,180,o),
(207,178,qs),
(203,175,o)
);
},
{
closed = 1;
nodes = (
(26,739,qs),
(32,739,o),
(69,738,o),
(113,737,o),
(150,737,o),
(156,738,qs),
(161,738,o),
(174,751,o),
(174,756,qs),
(175,764,o),
(175,800,o),
(170,835,o),
(163,838,qs),
(151,845,o),
(142,825,o),
(142,818,q),
(147,789,l),
(152,781,o),
(139,766,o),
(133,766,q),
(125,764,o),
(108,767,o),
(100,767,qs),
(92,767,o),
(89,770,qs),
(85,773,o),
(81,770,o),
(78,769,qs),
(66,766,o),
(20,766,o),
(8,767,q),
(5,772,o),
(1,784,o),
(2,790,qs),
(3,798,o),
(3,821,o),
(3,824,qs),
(3,830,o),
(-7,844,o),
(-27,838,q),
(-32,759,ls),
(-33,748,o),
(-7,730,o),
(-6,731,q),
(7,739,o)
);
},
{
closed = 1;
nodes = (
(95,918,o),
(84,928,qs),
(63,946,o),
(51,962,q),
(43,969,o),
(29,982,o),
(22,990,qs),
(18,995,o),
(9,1005,o),
(2,1006,q),
(0,1008,o),
(-6,1003,o),
(-8,1004,qs),
(-11,1006,o),
(-22,995,o),
(-21,992,qs),
(-16,980,o),
(-6,957,o),
(10,952,qs),
(16,950,o),
(27,942,o),
(31,937,qs),
(39,928,o),
(60,906,o),
(76,892,qs),
(94,879,o),
(122,884,o),
(126,888,q),
(116,898,o)
);
}
);
width = 452;
}
);
note = uni1EB0;
unicode = 7856;
},
{
glyphname = uni01CD;
kernRight = A;
layers = (
{
layerId = m01;
shapes = (
{
closed = 1;
nodes = (
(270,1,o),
(307,1,o),
(337,1,o),
(341,1,qs),
(352,1,o),
(369,8,o),
(379,9,q),
(413,1,l),
(421,1,o),
(452,5,o),
(452,17,qs),
(452,20,o),
(450,29,o),
(447,33,q),
(434,60,o),
(405,112,o),
(391,137,qs),
(387,146,o),
(375,164,o),
(373,173,qs),
(372,180,o),
(358,212,o),
(342,242,o),
(337,246,qs),
(328,254,o),
(324,274,o),
(317,281,qs),
(304,297,o),
(288,335,o),
(275,351,q),
(275,370,o),
(264,381,qs),
(257,389,o),
(252,407,o),
(246,414,qs),
(240,420,o),
(232,434,o),
(227,441,q),
(208,477,o),
(172,547,o),
(153,581,qs),
(149,589,o),
(139,604,o),
(138,611,qs),
(138,622,o),
(120,634,o),
(120,644,q),
(112,651,o),
(102,668,o),
(97,677,q),
(93,682,o),
(84,692,o),
(79,696,qs),
(71,704,o),
(48,693,o),
(48,681,qs),
(48,594,ls),
(48,592,o),
(48,586,o),
(49,584,q),
(54,580,o),
(57,569,o),
(57,564,qs),
(57,560,o),
(56,552,o),
(56,548,qs),
(56,451,ls),
(56,446,o),
(55,437,o),
(54,432,q),
(48,430,o),
(52,422,o),
(56,414,o),
(49,411,q),
(49,408,o),
(49,396,o),
(49,359,o),
(48,283,o),
(48,151,o),
(48,48,qs),
(48,40,o),
(48,26,o),
(41,19,q),
(38,17,o),
(44,9,o),
(48,8,qs),
(52,8,o),
(75,7,o),
(100,5,o),
(103,2,qs),
(104,1,o),
(126,8,o),
(132,8,qs),
(201,8,ls),
(213,8,o),
(221,5,o),
(227,1,o),
(236,1,qs),
(241,1,o)
);
},
{
closed = 1;
nodes = (
(110,385,o),
(94,379,q),
(93,378,o),
(89,381,o),
(89,382,qs),
(88,388,o),
(88,418,o),
(88,421,qs),
(88,426,o),
(86,436,o),
(82,440,qs),
(80,442,o),
(80,467,o),
(81,469,qs),
(95,489,o),
(83,507,q),
(90,524,o),
(88,527,qs),
(85,530,o),
(82,559,o),
(81,594,o),
(81,623,o),
(81,626,qs),
(81,629,o),
(88,629,o),
(88,627,qs),
(88,619,o),
(104,611,o),
(104,603,qs),
(104,596,o),
(111,585,o),
(115,580,qs),
(120,574,o),
(127,561,o),
(133,556,qs),
(139,552,o),
(136,537,o),
(143,532,q),
(151,517,o),
(175,470,o),
(195,433,o),
(196,432,qs),
(207,425,o),
(213,396,o),
(220,387,qs),
(221,386,o),
(217,379,o),
(215,379,qs),
(207,378,o),
(186,383,o),
(178,377,q),
(170,373,o),
(159,377,q),
(144,385,o)
);
},
{
closed = 1;
nodes = (
(377,33,o),
(372,32,qs),
(364,30,o),
(360,32,q),
(356,37,o),
(331,40,o),
(307,36,o),
(303,32,q),
(296,40,o),
(262,40,o),
(255,32,q),
(249,37,o),
(237,39,o),
(229,39,qs),
(225,39,o),
(207,39,o),
(157,39,o),
(104,39,qs),
(100,39,o),
(92,38,o),
(88,39,q),
(80,44,o),
(71,55,o),
(76,61,qs),
(84,69,o),
(75,77,q),
(72,81,o),
(77,84,o),
(78,86,qs),
(80,91,o),
(80,109,o),
(80,113,qs),
(80,118,o),
(83,129,o),
(87,133,q),
(79,142,o),
(79,156,qs),
(79,161,o),
(81,174,o),
(81,180,qs),
(80,304,ls),
(80,311,o),
(84,325,o),
(88,331,qs),
(89,333,o),
(85,340,o),
(83,342,q),
(83,346,o),
(107,354,o),
(110,351,q),
(115,348,o),
(127,347,o),
(133,347,qs),
(226,347,ls),
(244,347,o),
(251,332,qs),
(254,324,o),
(262,307,o),
(267,299,qs),
(275,289,o),
(285,264,o),
(296,255,qs),
(301,251,o),
(298,236,o),
(305,232,qs),
(312,228,o),
(314,215,o),
(316,210,qs),
(319,202,o),
(339,168,o),
(356,134,o),
(356,126,q),
(357,122,o),
(362,114,o),
(365,110,q),
(380,95,o),
(397,59,o),
(407,42,q),
(411,32,o),
(405,32,o),
(397,31,q),
(393,34,o)
);
},
{
closed = 1;
nodes = (
(234,179,q),
(238,188,o),
(229,197,q),
(225,203,o),
(203,214,o),
(182,219,o),
(176,213,q),
(172,207,o),
(165,194,o),
(163,186,q),
(163,182,o),
(172,170,o),
(173,164,qs),
(176,150,o),
(208,149,o),
(226,162,q),
(232,168,o)
);
},
{
closed = 1;
nodes = (
(194,175,o),
(193,179,qs),
(192,181,o),
(190,184,o),
(190,185,qs),
(190,187,o),
(192,191,o),
(193,192,qs),
(195,194,o),
(207,190,o),
(208,188,q),
(210,186,o),
(209,183,q),
(209,180,o),
(207,178,qs),
(203,175,o)
);
},
{
closed = 1;
nodes = (
(116,836,o),
(113,832,qs),
(111,830,o),
(98,813,o),
(96,811,qs),
(94,808,o),
(87,797,o),
(85,796,qs),
(79,793,o),
(75,793,o),
(70,795,q),
(66,800,o),
(44,820,o),
(17,843,o),
(-6,859,o),
(-11,859,q),
(-19,861,o),
(-31,859,o),
(-27,850,q),
(-21,844,o),
(-9,831,o),
(-5,824,q),
(0,821,o),
(12,806,o),
(18,803,q),
(26,796,o),
(33,787,o),
(40,781,qs),
(48,774,o),
(64,760,o),
(68,749,qs),
(70,745,o),
(78,744,o),
(80,748,q),
(91,760,o),
(122,794,o),
(152,829,o),
(172,852,o),
(171,853,qs),
(169,855,o),
(163,860,o),
(161,860,q),
(156,862,o),
(149,860,q),
(135,853,o)
);
}
);
userData = {
assembly = "NPUSHB[ ]	/* 107 values pushed */
68 1 4 3 194 1 8 4 208 199 2 5 8 226 223 2 7 5 91 1 1 7 5 76 138 136 129 54 51 32 6 3 74 0 8 4 5 4 8 5 128 0 7 5 1 5 7 1 128 0 3 0 4 8 3 4 103 6 1 5 5 1 97 2 1 1 1 38 77 6 1 5 5 0 95 9 1 0 0 38 0 78 1 0 237 236 232 230 225 224 221 213 183 179 152 151 11 10 5 3 0 98 1 93 10 8 22 
CALL[ ]	/* CallFunction */";
};
width = 452;
}
);
note = uni01CD;
unicode = 461;
},
{
glyphname = uni1EA6;
kernRight = A;
layers = (
{
layerId = m01;
shapes = (
{
closed = 1;
nodes = (
(270,1,o),
(307,1,o),
(337,1,o),
(341,1,qs),
(352,1,o),
(369,8,o),
(379,9,q),
(413,1,l),
(421,1,o),
(452,5,o),
(452,17,qs),
(452,20,o),
(450,29,o),
(447,33,q),
(434,60,o),
(405,112,o),
(391,137,qs),
(387,146,o),
(375,164,o),
(373,173,qs),
(372,180,o),
(358,212,o),
(342,242,o),
(337,246,qs),
(328,254,o),
(324,274,o),
(317,281,qs),
(304,297,o),
(288,335,o),
(275,351,q),
(275,370,o),
(264,381,qs),
(257,389,o),
(252,407,o),
(246,414,qs),
(240,420,o),
(232,434,o),
(227,441,q),
(208,477,o),
(172,547,o),
(153,581,qs),
(149,589,o),
(139,604,o),
(138,611,qs),
(138,622,o),
(120,634,o),
(120,644,q),
(112,651,o),
(102,668,o),
(97,677,q),
(93,682,o),
(84,692,o),
(79,696,qs),
(71,704,o),
(48,693,o),
(48,681,qs),
(48,594,ls),
(48,592,o),
(48,586,o),
(49,584,q),
(54,580,o),
(57,569,o),
(57,564,qs),
(57,560,o),
(56,552,o),
(56,548,qs),
(56,451,ls),
(56,446,o),
(55,437,o),
(54,432,q),
(48,430,o),
(52,422,o),
(56,414,o),
(49,411,q),
(49,408,o),
(49,396,o),
(49,359,o),
(48,283,o),
(48,151,o),
(48,48,qs),
(48,40,o),
(48,26,o),
(41,19,q),
(38,17,o),
(44,9,o),
(48,8,qs),
(52,8,o),
(75,7,o),
(100,5,o),
(103,2,qs),
(104,1,o),
(126,8,o),
(132,8,qs),
(201,8,ls),
(213,8,o),
(221,5,o),
(227,1,o),
(236,1,qs),
(241,1,o)
);
},
{
closed = 1;
nodes = (
(110,385,o),
(94,379,q),
(93,378,o),
(89,381,o),
(89,382,qs),
(88,388,o),
(88,418,o),
(88,421,qs),
(88,426,o),
(86,436,o),
(82,440,qs),
(80,442,o),
(80,467,o),
(81,469,qs),
(95,489,o),
(83,507,q),
(90,524,o),
(88,527,qs),
(85,530,o),
(82,559,o),
(81,594,o),
(81,623,o),
(81,626,qs),
(81,629,o),
(88,629,o),
(88,627,qs),
(88,619,o),
(104,611,o),
(104,603,qs),
(104,596,o),
(111,585,o),
(115,580,qs),
(120,574,o),
(127,561,o),
(133,556,qs),
(139,552,o),
(136,537,o),
(143,532,q),
(151,517,o),
(175,470,o),
(195,433,o),
(196,432,qs),
(207,425,o),
(213,396,o),
(220,387,qs),
(221,386,o),
(217,379,o),
(215,379,qs),
(207,378,o),
(186,383,o),
(178,377,q),
(170,373,o),
(159,377,q),
(144,385,o)
);
},
{
closed = 1;
nodes = (
(377,33,o),
(372,32,qs),
(364,30,o),
(360,32,q),
(356,37,o),
(331,40,o),
(307,36,o),
(303,32,q),
(296,40,o),
(262,40,o),
(255,32,q),
(249,37,o),
(237,39,o),
(229,39,qs),
(225,39,o),
(207,39,o),
(157,39,o),
(104,39,qs),
(100,39,o),
(92,38,o),
(88,39,q),
(80,44,o),
(71,55,o),
(76,61,qs),
(84,69,o),
(75,77,q),
(72,81,o),
(77,84,o),
(78,86,qs),
(80,91,o),
(80,109,o),
(80,113,qs),
(80,118,o),
(83,129,o),
(87,133,q),
(79,142,o),
(79,156,qs),
(79,161,o),
(81,174,o),
(81,180,qs),
(80,304,ls),
(80,311,o),
(84,325,o),
(88,331,qs),
(89,333,o),
(85,340,o),
(83,342,q),
(83,346,o),
(107,354,o),
(110,351,q),
(115,348,o),
(127,347,o),
(133,347,qs),
(226,347,ls),
(244,347,o),
(251,332,qs),
(254,324,o),
(262,307,o),
(267,299,qs),
(275,289,o),
(285,264,o),
(296,255,qs),
(301,251,o),
(298,236,o),
(305,232,qs),
(312,228,o),
(314,215,o),
(316,210,qs),
(319,202,o),
(339,168,o),
(356,134,o),
(356,126,q),
(357,122,o),
(362,114,o),
(365,110,q),
(380,95,o),
(397,59,o),
(407,42,q),
(411,32,o),
(405,32,o),
(397,31,q),
(393,34,o)
);
},
{
closed = 1;
nodes = (
(234,179,q),
(238,188,o),
(229,197,q),
(225,203,o),
(203,214,o),
(182,219,o),
(176,213,q),
(172,207,o),
(165,194,o),
(163,186,q),
(163,182,o),
(172,170,o),
(173,164,qs),
(176,150,o),
(208,149,o),
(226,162,q),
(232,168,o)
);
},
{
closed = 1;
nodes = (
(194,175,o),
(193,179,qs),
(192,181,o),
(190,184,o),
(190,185,qs),
(190,187,o),
(192,191,o),
(193,192,qs),
(195,194,o),
(207,190,o),
(208,188,q),
(210,186,o),
(209,183,q),
(209,180,o),
(207,178,qs),
(203,175,o)
);
},
{
closed = 1;
nodes = (
(155,738,q),
(157,738,o),
(163,744,o),
(165,745,qs),
(166,746,o),
(146,769,o),
(116,804,o),
(85,838,o),
(74,850,q),
(72,854,o),
(64,853,o),
(62,849,qs),
(58,838,o),
(42,824,o),
(34,817,qs),
(27,811,o),
(20,802,o),
(12,795,q),
(6,792,o),
(-6,777,o),
(-11,774,q),
(-15,767,o),
(-27,754,o),
(-33,748,q),
(-37,739,o),
(-25,738,o),
(-17,739,qs),
(-12,739,o),
(11,755,o),
(38,778,o),
(60,799,o),
(64,803,q),
(69,805,o),
(73,805,o),
(79,802,qs),
(81,801,o),
(88,790,o),
(90,787,q),
(92,786,o),
(105,768,o),
(107,766,qs),
(110,762,o),
(129,746,o),
(143,738,q),
(150,736,o)
);
},
{
closed = 1;
nodes = (
(96,910,o),
(85,920,qs),
(64,938,o),
(52,954,q),
(44,961,o),
(30,974,o),
(23,982,qs),
(19,987,o),
(10,997,o),
(3,998,q),
(1,1000,o),
(-5,995,o),
(-7,996,qs),
(-10,998,o),
(-21,987,o),
(-20,984,qs),
(-15,972,o),
(-5,949,o),
(11,944,qs),
(17,942,o),
(28,934,o),
(32,929,qs),
(40,920,o),
(61,898,o),
(77,884,qs),
(95,871,o),
(123,876,o),
(127,880,q),
(117,890,o)
);
}
);
width = 452;
}
);
note = uni1EA6;
unicode = 7846;
},
{
glyphname = Agrave;
kernRight = A;
layers = (
{
layerId = m01;
shapes = (
{
closed = 1;
nodes = (
(270,1,o),
(307,1,o),
(337,1,o),
(341,1,qs),
(352,1,o),
(369,8,o),
(379,9,q),
(413,1,l),
(421,1,o),
(452,5,o),
(452,17,qs),
(452,20,o),
(450,29,o),
(447,33,q),
(434,60,o),
(405,112,o),
(391,137,qs),
(387,146,o),
(375,164,o),
(373,173,qs),
(372,180,o),
(358,212,o),
(342,242,o),
(337,246,qs),
(328,254,o),
(324,274,o),
(317,281,qs),
(304,297,o),
(288,335,o),
(275,351,q),
(275,370,o),
(264,381,qs),
(257,389,o),
(252,407,o),
(246,414,qs),
(240,420,o),
(232,434,o),
(227,441,q),
(208,477,o),
(172,547,o),
(153,581,qs),
(149,589,o),
(139,604,o),
(138,611,qs),
(138,622,o),
(120,634,o),
(120,644,q),
(112,651,o),
(102,668,o),
(97,677,q),
(93,682,o),
(84,692,o),
(79,696,qs),
(71,704,o),
(48,693,o),
(48,681,qs),
(48,594,ls),
(48,592,o),
(48,586,o),
(49,584,q),
(54,580,o),
(57,569,o),
(57,564,qs),
(57,560,o),
(56,552,o),
(56,548,qs),
(56,451,ls),
(56,446,o),
(55,437,o),
(54,432,q),
(48,430,o),
(52,422,o),
(56,414,o),
(49,411,q),
(49,408,o),
(49,396,o),
(49,359,o),
(48,283,o),
(48,151,o),
(48,48,qs),
(48,40,o),
(48,26,o),
(41,19,q),
(38,17,o),
(44,9,o),
(48,8,qs),
(52,8,o),
(75,7,o),
(100,5,o),
(103,2,qs),
(104,1,o),
(126,8,o),
(132,8,qs),
(201,8,ls),
(213,8,o),
(221,5,o),
(227,1,o),
(236,1,qs),
(241,1,o)
);
},
{
closed = 1;
nodes = (
(110,385,o),
(94,379,q),
(93,378,o),
(89,381,o),
(89,382,qs),
(88,388,o),
(88,418,o),
(88,421,qs),
(88,426,o),
(86,436,o),
(82,440,qs),
(80,442,o),
(80,467,o),
(81,469,qs),
(95,489,o),
(83,507,q),
(90,524,o),
(88,527,qs),
(85,530,o),
(82,559,o),
(81,594,o),
(81,623,o),
(81,626,qs),
(81,629,o),
(88,629,o),
(88,627,qs),
(88,619,o),
(104,611,o),
(104,603,qs),
(104,596,o),
(111,585,o),
(115,580,qs),
(120,574,o),
(127,561,o),
(133,556,qs),
(139,552,o),
(136,537,o),
(143,532,q),
(151,517,o),
(175,470,o),
(195,433,o),
(196,432,qs),
(207,425,o),
(213,396,o),
(220,387,qs),
(221,386,o),
(217,379,o),
(215,379,qs),
(207,378,o),
(186,383,o),
(178,377,q),
(170,373,o),
(159,377,q),
(144,385,o)
);
},
{
closed = 1;
nodes = (
(377,33,o),
(372,32,qs),
(364,30,o),
(360,32,q),
(356,37,o),
(331,40,o),
(307,36,o),
(303,32,q),
(296,40,o),
(262,40,o),
(255,32,q),
(249,37,o),
(237,39,o),
(229,39,qs),
(225,39,o),
(207,39,o),
(157,39,o),
(104,39,qs),
(100,39,o),
(92,38,o),
(88,39,q),
(80,44,o),
(71,55,o),
(76,61,qs),
(84,69,o),
(75,77,q),
(72,81,o),
(77,84,o),
(78,86,qs),
(80,91,o),
(80,109,o),
(80,113,qs),
(80,118,o),
(83,129,o),
(87,133,q),
(79,142,o),
(79,156,qs),
(79,161,o),
(81,174,o),
(81,180,qs),
(80,304,ls),
(80,311,o),
(84,325,o),
(88,331,qs),
(89,333,o),
(85,340,o),
(83,342,q),
(83,346,o),
(107,354,o),
(110,351,q),
(115,348,o),
(127,347,o),
(133,347,qs),
(226,347,ls),
(244,347,o),
(251,332,qs),
(254,324,o),
(262,307,o),
(267,299,qs),
(275,289,o),
(285,264,o),
(296,255,qs),
(301,251,o),
(298,236,o),
(305,232,qs),
(312,228,o),
(314,215,o),
(316,210,qs),
(319,202,o),
(339,168,o),
(356,134,o),
(356,126,q),
(357,122,o),
(362,114,o),
(365,110,q),
(380,95,o),
(397,59,o),
(407,42,q),
(411,32,o),
(405,32,o),
(397,31,q),
(393,34,o)
);
},
{
closed = 1;
nodes = (
(234,179,q),
(238,188,o),
(229,197,q),
(225,203,o),
(203,214,o),
(182,219,o),
(176,213,q),
(172,207,o),
(165,194,o),
(163,186,q),
(163,182,o),
(172,170,o),
(173,164,qs),
(176,150,o),
(208,149,o),
(226,162,q),
(232,168,o)
);
},
{
closed = 1;
nodes = (
(194,175,o),
(193,179,qs),
(192,181,o),
(190,184,o),
(190,185,qs),
(190,187,o),
(192,191,o),
(193,192,qs),
(195,194,o),
(207,190,o),
(208,188,q),
(210,186,o),
(209,183,q),
(209,180,o),
(207,178,qs),
(203,175,o)
);
},
{
closed = 1;
nodes = (
(95,792,o),
(84,802,qs),
(63,820,o),
(51,836,q),
(43,843,o),
(29,856,o),
(22,864,qs),
(18,869,o),
(9,879,o),
(2,880,q),
(0,882,o),
(-6,877,o),
(-8,878,qs),
(-11,880,o),
(-22,869,o),
(-21,866,qs),
(-16,854,o),
(-6,831,o),
(10,826,qs),
(16,824,o),
(27,816,o),
(31,811,qs),
(39,802,o),
(60,780,o),
(76,766,qs),
(94,753,o),
(122,758,o),
(126,762,q),
(116,772,o)
);
}
);
width = 452;
}
);
note = Agrave;
unicode = 192;
},
{
glyphname = uni2C6D;
layers = (
{
layerId = m01;
shapes = (
{
closed = 1;
nodes = (
(126,-9,o),
(182,16,o),
(230,37,o),
(241,38,qs),
(247,39,o),
(292,57,o),
(355,84,o),
(420,113,o),
(472,134,o),
(482,138,qs),
(487,140,o),
(491,143,q),
(492,15,ls),
(492,4,o),
(522,0,o),
(538,0,qs),
(558,0,o),
(591,9,o),
(591,12,qs),
(591,21,o),
(576,25,q),
(572,24,o),
(565,22,o),
(555,22,qs),
(550,22,o),
(534,23,o),
(523,24,q),
(522,62,o),
(521,113,o),
(521,139,qs),
(521,165,o),
(521,233,o),
(519,289,qs),
(519,319,o),
(521,348,o),
(523,363,o),
(523,369,qs),
(523,378,o),
(519,394,q),
(519,394,o),
(520,423,o),
(521,465,o),
(521,483,qs),
(521,497,o),
(516,527,o),
(516,531,qs),
(516,537,o),
(520,565,o),
(519,567,qs),
(516,574,o),
(514,585,o),
(514,589,qs),
(514,598,o),
(518,615,o),
(517,627,q),
(510,650,o),
(498,666,o),
(493,666,qs),
(486,666,o),
(480,648,o),
(480,643,qs),
(480,636,o),
(484,618,o),
(487,609,q),
(487,565,l),
(452,576,o),
(363,609,o),
(274,640,o),
(240,649,q),
(227,654,o),
(198,659,o),
(185,666,qs),
(179,669,o),
(142,683,o),
(98,700,o),
(65,711,o),
(64,711,qs),
(40,711,o),
(40,692,qs),
(40,663,ls),
(40,659,o),
(42,644,o),
(46,606,o),
(50,566,qs),
(51,543,o),
(49,509,o),
(49,474,qs),
(49,456,o),
(50,405,o),
(51,369,qs),
(51,363,o),
(54,352,o),
(60,347,q),
(64,341,o),
(60,335,qs),
(55,328,o),
(52,315,o),
(52,308,qs),
(53,251,o),
(59,198,o),
(59,197,qs),
(59,193,o),
(57,179,o),
(54,138,o),
(54,93,qs),
(54,84,o),
(64,74,o),
(64,69,qs),
(64,65,o),
(62,63,qs),
(58,57,o),
(49,22,o),
(49,5,qs),
(49,-7,o),
(57,-28,o),
(68,-29,qs),
(78,-29,o)
);
},
{
closed = 1;
nodes = (
(88,59,o),
(90,67,o),
(92,74,o),
(92,85,qs),
(90,317,ls),
(90,322,o),
(90,334,o),
(84,338,q),
(81,341,o),
(89,347,o),
(89,359,qs),
(89,382,ls),
(89,385,o),
(82,391,o),
(82,394,qs),
(82,397,o),
(86,400,qs),
(88,402,o),
(88,416,o),
(88,426,qs),
(88,442,o),
(85,475,o),
(82,476,q),
(78,481,o),
(87,485,o),
(87,488,qs),
(87,491,o),
(79,499,o),
(79,502,qs),
(79,527,o),
(78,543,o),
(77,549,o),
(77,564,o),
(77,588,qs),
(77,654,l),
(79,659,o),
(94,665,o),
(99,663,q),
(102,663,o),
(141,649,o),
(194,629,o),
(247,609,o),
(284,596,o),
(286,596,qs),
(299,597,o),
(353,578,o),
(417,551,o),
(473,529,o),
(488,526,q),
(491,176,l),
(490,176,o),
(488,175,qs),
(481,171,o),
(424,148,o),
(346,117,o),
(269,85,o),
(214,62,o),
(209,58,qs),
(199,50,o),
(184,50,qs),
(173,50,o),
(138,33,o),
(105,16,o),
(97,15,qs),
(88,15,o),
(88,34,qs),
(88,48,ls)
);
},
{
closed = 1;
nodes = (
(321,319,o),
(328,329,qs),
(332,334,o),
(332,341,qs),
(332,350,o),
(327,355,qs),
(318,364,o),
(296,383,o),
(284,383,qs),
(264,382,o),
(248,355,o),
(248,347,qs),
(248,331,o),
(275,311,o),
(292,311,qs),
(302,311,o)
);
},
{
closed = 1;
nodes = (
(279,346,qs),
(279,348,o),
(281,358,o),
(288,358,qs),
(295,358,o),
(302,348,q),
(306,344,o),
(298,336,o),
(292,336,qs),
(279,336,o)
);
}
);
userData = {
assembly = "NPUSHB[ ]	/* 35 values pushed */
154 134 67 64 52 51 32 7 8 1 79 1 9 8 195 187 2 10 9 131 104 18 3 6 7 89 1 2 6 97 1 3 5 6 76 
MPPEM[ ]	/* MeasurePixelPerEm */
PUSHB[ ]	/* 1 value pushed */
21 
LT[ ]	/* LessThan */
IF[ ]	/* If */
NPUSHB[ ]	/* 64 values pushed */
0 1 0 8 0 1 8 128 0 6 7 2 7 6 2 128 0 5 2 3 2 5 3 128 0 8 0 9 10 8 9 105 13 1 10 12 1 7 6 10 7 105 0 0 0 37 77 0 2 2 3 97 0 3 3 38 77 11 1 4 4 44 4 78 
ELSE[ ]	/* Else */
MPPEM[ ]	/* MeasurePixelPerEm */
PUSHB[ ]	/* 1 value pushed */
45 
LT[ ]	/* LessThan */
IF[ ]	/* If */
NPUSHB[ ]	/* 64 values pushed */
0 1 0 8 0 1 8 128 0 6 7 2 7 6 2 128 0 5 2 3 2 5 3 128 11 1 4 3 4 134 0 8 0 9 10 8 9 105 13 1 10 12 1 7 6 10 7 105 0 0 0 37 77 0 2 2 3 97 0 3 3 38 3 78 
ELSE[ ]	/* Else */
NPUSHB[ ]	/* 61 values pushed */
0 0 1 0 133 0 1 8 1 133 0 6 7 2 7 6 2 128 0 5 2 3 2 5 3 128 11 1 4 3 4 134 0 8 0 9 10 8 9 105 13 1 10 12 1 7 6 10 7 105 0 2 2 3 97 0 3 3 38 3 78 
EIF[ ]	/* EndIf */
EIF[ ]	/* EndIf */
NPUSHB[ ]	/* 37 values pushed */
200 200 185 184 0 0 200 209 200 209 206 204 191 189 184 199 185 199 124 122 119 118 0 116 0 116 101 99 93 90 59 57 39 38 14 8 22 
CALL[ ]	/* CallFunction */";
};
width = 601;
}
);
note = uni2C6D;
unicode = 11373;
},
{
glyphname = uni023A;
kernRight = A;
layers = (
{
layerId = m01;
shapes = (
{
closed = 1;
nodes = (
(79,-3,o),
(80,6,q),
(97,6,o),
(103,2,qs),
(104,1,o),
(126,8,o),
(132,8,qs),
(201,8,ls),
(213,8,o),
(221,5,o),
(227,1,o),
(236,1,qs),
(241,1,o),
(270,1,o),
(307,1,o),
(337,1,o),
(341,1,qs),
(352,1,o),
(369,8,o),
(379,9,q),
(413,1,l),
(421,1,o),
(452,5,o),
(452,17,qs),
(452,20,o),
(450,29,o),
(447,33,q),
(434,60,o),
(405,112,o),
(391,137,qs),
(387,146,o),
(375,164,o),
(373,173,qs),
(372,180,o),
(358,212,o),
(342,242,o),
(337,246,qs),
(328,254,o),
(324,274,o),
(317,281,qs),
(304,297,o),
(288,335,o),
(275,351,q),
(275,370,o),
(264,381,qs),
(257,389,o),
(252,407,o),
(246,414,qs),
(240,420,o),
(232,434,o),
(227,441,q),
(225,446,o),
(219,455,o),
(217,460,q),
(234,514,o),
(269,623,o),
(285,678,q),
(289,686,o),
(290,706,o),
(288,713,qs),
(285,724,o),
(277,728,q),
(275,725,o),
(259,709,o),
(252,682,qs),
(251,675,o),
(241,638,o),
(239,632,qs),
(229,599,o),
(208,532,o),
(197,498,q),
(186,519,o),
(164,561,o),
(153,581,qs),
(149,589,o),
(139,604,o),
(138,611,qs),
(138,622,o),
(120,634,o),
(120,644,q),
(112,651,o),
(102,668,o),
(97,677,q),
(93,682,o),
(84,692,o),
(79,696,qs),
(71,704,o),
(48,693,o),
(48,681,qs),
(48,594,ls),
(48,592,o),
(48,586,o),
(49,584,q),
(54,580,o),
(57,569,o),
(57,564,qs),
(57,560,o),
(56,552,o),
(56,548,qs),
(56,451,ls),
(56,446,o),
(55,437,o),
(54,432,q),
(48,430,o),
(52,422,o),
(56,414,o),
(49,411,q),
(49,408,o),
(49,396,o),
(49,359,o),
(48,283,o),
(48,151,o),
(48,48,qs),
(48,40,o),
(48,26,o),
(41,19,q),
(38,17,o),
(44,9,o),
(48,8,qs),
(50,8,l),
(47,1,o),
(44,-10,o),
(43,-12,qs),
(37,-26,o),
(47,-37,o),
(63,-34,o),
(66,-27,q),
(73,-20,o)
);
},
{
closed = 1;
nodes = (
(110,385,o),
(94,379,q),
(93,378,o),
(89,381,o),
(89,382,qs),
(88,388,o),
(88,418,o),
(88,421,qs),
(88,426,o),
(86,436,o),
(82,440,qs),
(80,442,o),
(80,467,o),
(81,469,qs),
(95,489,o),
(83,507,q),
(90,524,o),
(88,527,qs),
(85,530,o),
(82,559,o),
(81,594,o),
(81,623,o),
(81,626,qs),
(81,629,o),
(88,629,o),
(88,627,qs),
(88,619,o),
(104,611,o),
(104,603,qs),
(104,596,o),
(111,585,o),
(115,580,qs),
(120,574,o),
(127,561,o),
(133,556,qs),
(139,552,o),
(136,537,o),
(143,532,q),
(151,517,o),
(174,472,o),
(183,455,q),
(180,445,o),
(173,423,o),
(170,412,qs),
(158,377,l),
(144,385,o)
);
},
{
closed = 1;
nodes = (
(209,415,o),
(213,399,o),
(217,393,qs),
(218,392,o),
(214,385,o),
(212,385,qs),
(208,384,o),
(199,384,o),
(194,383,q),
(206,422,l)
);
},
{
closed = 1;
nodes = (
(79,156,qs),
(79,161,o),
(81,174,o),
(81,180,qs),
(80,304,ls),
(80,311,o),
(84,325,o),
(88,331,qs),
(89,333,o),
(85,340,o),
(83,342,q),
(83,346,o),
(107,354,o),
(110,351,q),
(115,348,o),
(127,347,o),
(133,347,qs),
(151,347,l),
(148,327,o),
(128,303,o),
(129,283,q),
(125,270,o),
(112,250,o),
(109,235,qs),
(107,226,o),
(94,187,o),
(84,148,o),
(85,136,q),
(79,145,o)
);
},
{
closed = 1;
nodes = (
(377,33,o),
(372,32,qs),
(364,30,o),
(360,32,q),
(356,37,o),
(331,40,o),
(307,36,o),
(303,32,q),
(296,40,o),
(262,40,o),
(255,32,q),
(249,37,o),
(237,39,o),
(229,39,qs),
(225,39,o),
(207,39,o),
(157,39,o),
(104,39,qs),
(100,39,o),
(93,38,o),
(89,39,q),
(95,50,o),
(99,72,o),
(98,84,q),
(114,135,o),
(144,237,o),
(160,287,qs),
(163,297,o),
(176,314,o),
(175,325,qs),
(174,338,o),
(178,347,q),
(226,347,ls),
(244,347,o),
(251,332,qs),
(254,324,o),
(262,307,o),
(267,299,qs),
(275,289,o),
(285,264,o),
(296,255,qs),
(301,251,o),
(298,236,o),
(305,232,qs),
(312,228,o),
(314,215,o),
(316,210,qs),
(319,202,o),
(339,168,o),
(356,134,o),
(356,126,q),
(357,122,o),
(362,114,o),
(365,110,q),
(380,95,o),
(397,59,o),
(407,42,q),
(411,32,o),
(405,32,o),
(397,31,q),
(393,34,o)
);
}
);
userData = {
assembly = "NPUSHW[ ]	/* 39 values pushed */
84 1 4 3 208 191 184 3 6 4 265 262 2 8 6 107 1 1 8 4 76 7 1 1 1 75 183 159 157 150 132 73 56 50 47 28 10 3 74 
MPPEM[ ]	/* MeasurePixelPerEm */
PUSHB[ ]	/* 1 value pushed */
10 
LT[ ]	/* LessThan */
IF[ ]	/* If */
NPUSHB[ ]	/* 41 values pushed */
0 8 6 1 6 8 1 128 0 3 5 1 4 6 3 4 105 7 1 6 6 1 97 2 1 1 1 38 77 7 1 6 6 0 95 0 0 0 38 0 78 
ELSE[ ]	/* Else */
MPPEM[ ]	/* MeasurePixelPerEm */
PUSHB[ ]	/* 1 value pushed */
45 
LT[ ]	/* LessThan */
IF[ ]	/* If */
NPUSHB[ ]	/* 41 values pushed */
0 8 6 1 6 8 1 128 0 3 5 1 4 6 3 4 105 7 1 6 6 1 97 0 1 1 38 77 7 1 6 6 0 97 2 1 0 0 38 0 78 
ELSE[ ]	/* Else */
NPUSHB[ ]	/* 41 values pushed */
0 8 6 1 6 8 1 128 0 3 5 1 4 6 3 4 105 7 1 6 6 1 97 2 1 1 1 38 77 7 1 6 6 0 95 0 0 0 38 0 78 
EIF[ ]	/* EndIf */
EIF[ ]	/* EndIf */
NPUSHW[ ]	/* 21 values pushed */
271 269 264 263 260 252 241 239 197 194 173 172 125 124 120 118 116 109 9 8 22 
CALL[ ]	/* CallFunction */";
};
width = 452;
}
);
note = uni023A;
unicode = 570;
},
{
glyphname = AE;
layers = (
{
layerId = m01;
shapes = (
{
closed = 1;
nodes = (
(393,-1,o),
(434,0,o),
(464,1,o),
(464,1,q),
(498,6,o),
(551,2,o),
(556,2,qs),
(692,2,l),
(703,4,o),
(710,21,o),
(703,37,o),
(693,37,qs),
(433,37,ls),
(430,37,o),
(427,90,o),
(426,171,o),
(426,259,o),
(425,332,o),
(424,348,q),
(432,347,o),
(453,347,o),
(457,347,qs),
(458,347,o),
(479,347,o),
(502,347,o),
(506,347,qs),
(523,347,o),
(557,353,o),
(573,356,q),
(578,358,o),
(578,369,o),
(573,370,qs),
(568,371,o),
(565,376,o),
(560,377,qs),
(555,378,o),
(543,379,o),
(537,379,qs),
(526,379,o),
(498,378,o),
(487,378,qs),
(423,378,l),
(423,411,l),
(417,414,o),
(420,422,o),
(424,430,o),
(418,432,q),
(417,437,o),
(416,446,o),
(416,451,qs),
(416,548,ls),
(416,552,o),
(415,560,o),
(415,564,qs),
(415,569,o),
(419,580,o),
(423,584,qs),
(425,586,o),
(424,592,o),
(424,594,qs),
(424,662,l),
(445,663,o),
(510,663,o),
(573,663,o),
(590,663,qs),
(595,663,o),
(626,671,o),
(633,671,qs),
(643,671,o),
(653,666,qs),
(661,663,o),
(667,663,qs),
(677,663,o),
(693,678,o),
(703,679,qs),
(704,679,o),
(704,687,o),
(703,689,qs),
(700,693,o),
(692,699,o),
(686,699,qs),
(421,699,ls),
(416,699,o),
(413,698,q),
(402,705,o),
(393,696,qs),
(388,692,o),
(379,682,o),
(375,677,q),
(370,668,o),
(360,651,o),
(352,644,q),
(352,634,o),
(334,622,o),
(334,611,qs),
(333,604,o),
(323,589,o),
(319,581,qs),
(300,547,o),
(264,477,o),
(245,441,qs),
(241,434,o),
(232,420,o),
(226,414,qs),
(220,407,o),
(215,389,o),
(208,381,qs),
(197,370,o),
(197,351,q),
(184,335,o),
(169,297,o),
(155,281,qs),
(148,274,o),
(144,254,o),
(135,246,qs),
(130,242,o),
(114,212,o),
(101,180,o),
(99,173,qs),
(97,164,o),
(86,146,o),
(81,137,qs),
(67,112,o),
(39,60,o),
(25,33,q),
(22,29,o),
(20,20,o),
(20,17,qs),
(20,5,o),
(52,1,o),
(59,1,q),
(93,9,l),
(104,8,o),
(121,1,o),
(131,1,qs),
(136,1,o),
(165,2,o),
(202,2,o),
(232,1,o),
(236,1,qs),
(252,0,o),
(261,9,o),
(271,8,qs),
(347,0,ls),
(356,-1,o)
);
},
{
closed = 1;
nodes = (
(268,384,o),
(260,385,qs),
(258,385,o),
(254,392,o),
(255,393,qs),
(262,402,o),
(265,425,o),
(276,432,qs),
(277,433,o),
(297,470,o),
(321,517,o),
(329,532,q),
(337,537,o),
(333,552,o),
(339,556,qs),
(345,561,o),
(352,574,o),
(357,580,qs),
(362,585,o),
(368,596,o),
(368,603,qs),
(368,611,o),
(384,619,o),
(384,627,qs),
(384,629,o),
(391,629,o),
(391,626,qs),
(391,623,o),
(391,594,o),
(390,559,o),
(387,530,o),
(384,527,qs),
(382,524,o),
(389,507,q),
(377,489,o),
(391,469,q),
(393,467,o),
(392,442,o),
(390,440,qs),
(386,436,o),
(384,426,o),
(384,421,qs),
(384,418,o),
(384,388,o),
(383,382,q),
(383,382,o),
(356,384,o),
(323,383,o),
(313,377,q),
(302,373,o),
(294,377,q),
(286,383,o)
);
},
{
closed = 1;
nodes = (
(677,361,o),
(677,370,qs),
(677,378,o),
(668,395,o),
(660,398,qs),
(652,400,o),
(622,399,o),
(622,385,q),
(618,372,o),
(606,366,o),
(615,357,qs),
(623,348,o),
(644,328,o),
(653,337,qs),
(673,357,ls)
);
},
{
closed = 1;
nodes = (
(640,363,o),
(638,366,q),
(635,368,o),
(638,370,o),
(639,373,q),
(639,378,o),
(648,377,o),
(650,376,q),
(654,376,o),
(654,369,qs),
(654,367,o),
(653,366,qs),
(648,360,ls),
(646,358,o)
);
},
{
closed = 1;
nodes = (
(61,32,o),
(65,42,q),
(76,59,o),
(92,95,o),
(107,110,q),
(110,114,o),
(115,122,o),
(116,126,q),
(116,134,o),
(134,168,o),
(153,202,o),
(156,210,qs),
(158,215,o),
(160,228,o),
(167,232,qs),
(174,236,o),
(171,251,o),
(176,255,qs),
(187,264,o),
(198,289,o),
(205,299,qs),
(210,307,o),
(218,324,o),
(221,332,qs),
(228,347,o),
(246,347,qs),
(339,347,ls),
(345,347,o),
(357,348,o),
(362,351,q),
(365,354,o),
(389,346,o),
(389,342,q),
(388,340,o),
(383,333,o),
(384,331,q),
(389,325,o),
(392,311,o),
(392,304,qs),
(391,180,ls),
(391,174,o),
(393,161,o),
(393,156,qs),
(393,142,o),
(385,133,q),
(390,129,o),
(392,118,o),
(392,113,qs),
(392,109,o),
(392,91,o),
(394,86,qs),
(395,84,o),
(400,81,o),
(397,77,q),
(388,69,o),
(396,61,qs),
(401,55,o),
(392,44,o),
(384,39,q),
(380,38,o),
(373,39,o),
(368,39,qs),
(315,39,o),
(265,39,o),
(248,39,o),
(243,39,qs),
(236,39,o),
(223,37,o),
(217,32,q),
(210,40,o),
(177,40,o),
(169,32,q),
(165,36,o),
(141,40,o),
(117,37,o),
(112,32,q),
(108,30,o),
(100,32,qs),
(95,33,o),
(79,34,o),
(75,31,q),
(67,32,o)
);
}
);
userData = {
assembly = "MPPEM[ ]	/* MeasurePixelPerEm */
PUSHB[ ]	/* 1 value pushed */
10 
LT[ ]	/* LessThan */
IF[ ]	/* If */
NPUSHW[ ]	/* 43 values pushed */
60 1 3 1 162 101 94 84 52 5 12 2 203 191 2 10 12 125 35 2 6 5 271 268 264 262 253 5 7 6 238 226 16 12 4 0 7 6 76 13 1 0 73 
ELSE[ ]	/* Else */
MPPEM[ ]	/* MeasurePixelPerEm */
PUSHB[ ]	/* 1 value pushed */
45 
LT[ ]	/* LessThan */
IF[ ]	/* If */
NPUSHW[ ]	/* 43 values pushed */
60 1 3 1 162 101 94 84 52 5 12 2 203 191 2 5 12 125 35 2 6 5 271 268 264 262 253 5 7 6 238 226 16 12 4 0 7 6 76 13 1 0 73 
ELSE[ ]	/* Else */
NPUSHW[ ]	/* 43 values pushed */
60 1 3 1 162 101 94 84 52 5 12 2 203 191 2 10 12 125 35 2 6 5 271 268 264 262 253 5 7 6 238 226 16 12 4 0 7 6 76 13 1 0 73 
EIF[ ]	/* EndIf */
EIF[ ]	/* EndIf */
MPPEM[ ]	/* MeasurePixelPerEm */
PUSHB[ ]	/* 1 value pushed */
10 
LT[ ]	/* LessThan */
IF[ ]	/* If */
NPUSHB[ ]	/* 57 values pushed */
0 3 1 2 2 3 114 0 12 2 10 2 12 10 128 11 1 10 5 6 10 89 0 5 15 1 6 7 5 6 105 4 1 2 2 1 96 0 1 1 37 77 14 13 2 7 7 0 95 9 8 2 0 0 38 0 78 
ELSE[ ]	/* Else */
MPPEM[ ]	/* MeasurePixelPerEm */
PUSHB[ ]	/* 1 value pushed */
45 
LT[ ]	/* LessThan */
IF[ ]	/* If */
NPUSHB[ ]	/* 52 values pushed */
0 3 1 2 2 3 114 0 12 2 5 2 12 5 128 11 10 2 5 15 1 6 7 5 6 105 4 1 2 2 1 96 0 1 1 37 77 14 13 2 7 7 0 95 9 8 2 0 0 38 0 78 
ELSE[ ]	/* Else */
NPUSHB[ ]	/* 57 values pushed */
0 3 1 2 2 3 114 0 12 2 10 2 12 10 128 11 1 10 5 6 10 89 0 5 15 1 6 7 5 6 105 4 1 2 2 1 96 0 1 1 37 77 14 13 2 7 7 0 95 9 8 2 0 0 38 0 78 
EIF[ ]	/* EndIf */
EIF[ ]	/* EndIf */
NPUSHW[ ]	/* 34 values pushed */
282 279 245 240 237 236 205 204 196 195 149 148 144 140 139 136 133 130 124 117 108 102 83 78 76 75 72 71 63 62 115 16 8 23 
CALL[ ]	/* CallFunction */";
};
width = 728;
}
);
note = AE;
unicode = 198;
},
{
glyphname = B;
layers = (
{
layerId = m01;
shapes = (
{
closed = 1;
nodes = (
(78,6,o),
(84,5,q),
(226,5,ls),
(236,5,o),
(241,1,qs),
(247,-3,o),
(254,5,o),
(259,5,qs),
(272,3,o),
(317,7,o),
(362,8,o),
(373,1,qs),
(374,0,o),
(398,3,o),
(406,1,qs),
(411,-1,o),
(432,7,o),
(438,12,qs),
(444,17,o),
(433,27,o),
(431,32,q),
(431,35,o),
(414,49,o),
(396,65,o),
(394,70,qs),
(391,78,o),
(377,83,o),
(373,90,qs),
(372,92,o),
(345,121,o),
(305,160,o),
(264,199,o),
(231,225,o),
(226,226,q),
(216,245,o),
(182,269,o),
(168,284,qs),
(164,289,o),
(154,298,o),
(149,303,q),
(151,312,o),
(132,313,o),
(132,320,qs),
(132,329,o),
(114,334,o),
(108,338,qs),
(102,342,o),
(99,352,o),
(100,353,qs),
(107,361,o),
(119,378,o),
(128,384,qs),
(141,391,o),
(194,444,o),
(260,518,o),
(325,593,o),
(375,652,o),
(386,662,qs),
(389,664,o),
(392,671,o),
(393,675,q),
(395,677,o),
(398,681,o),
(394,684,qs),
(392,686,o),
(387,690,o),
(385,690,q),
(346,698,l),
(279,698,o),
(269,690,qs),
(265,686,o),
(251,698,o),
(242,698,qs),
(98,698,ls),
(88,698,o),
(72,690,o),
(61,690,q),
(52,692,o),
(41,680,o),
(41,673,qs),
(41,478,ls),
(41,473,o),
(43,462,o),
(47,457,q),
(41,429,l),
(41,422,o),
(43,410,o),
(47,404,qs),
(49,400,o),
(49,389,o),
(47,384,qs),
(44,372,o),
(45,341,o),
(49,318,o),
(48,317,qs),
(43,312,o),
(40,300,o),
(40,294,qs),
(41,272,o),
(42,201,o),
(42,120,o),
(41,47,o),
(41,23,qs),
(41,19,o),
(39,12,o),
(40,8,qs),
(41,4,o),
(58,-5,o),
(61,-2,q),
(66,1,o)
);
},
{
closed = 1;
nodes = (
(70,402,ls),
(70,403,o),
(71,421,o),
(73,433,qs),
(77,453,o),
(79,491,o),
(74,514,qs),
(71,527,o),
(69,568,o),
(70,613,qs),
(72,633,o),
(74,654,o),
(88,662,o),
(107,662,qs),
(311,662,ls),
(316,662,o),
(328,667,o),
(333,668,q),
(339,664,l),
(335,658,o),
(326,645,o),
(321,640,qs),
(317,636,o),
(297,607,o),
(272,573,o),
(249,546,o),
(242,544,q),
(238,538,o),
(231,521,o),
(221,519,qs),
(204,516,o),
(204,500,q),
(195,497,o),
(171,474,o),
(151,448,o),
(148,442,qs),
(147,439,o),
(120,415,o),
(89,390,o),
(81,383,q),
(74,386,l)
);
},
{
closed = 1;
nodes = (
(200,578,q),
(200,583,ls),
(200,587,o),
(199,587,q),
(194,593,o),
(183,602,o),
(178,608,q),
(172,612,o),
(153,611,o),
(148,606,qs),
(133,592,ls),
(127,586,o),
(128,577,o),
(136,569,qs),
(153,554,o),
(166,554,qs),
(187,554,o)
);
},
{
closed = 1;
nodes = (
(154,579,qs),
(150,583,o),
(153,586,qs),
(158,590,ls),
(164,594,o),
(168,591,q),
(170,587,o),
(174,585,q),
(174,581,l),
(171,574,o),
(164,574,qs),
(159,574,o)
);
},
{
closed = 1;
nodes = (
(74,40,o),
(74,47,qs),
(74,50,o),
(72,89,o),
(70,144,o),
(69,202,o),
(71,247,o),
(75,256,q),
(71,261,o),
(73,280,o),
(74,306,qs),
(74,309,o),
(75,314,o),
(76,317,q),
(76,319,o),
(85,319,o),
(87,318,qs),
(91,316,o),
(92,304,o),
(99,304,qs),
(107,304,o),
(108,288,o),
(118,289,q),
(123,286,o),
(132,278,o),
(137,275,qs),
(143,271,o),
(148,259,o),
(152,254,q),
(182,225,o),
(230,187,o),
(245,164,q),
(252,166,o),
(257,157,o),
(261,148,o),
(268,148,q),
(271,145,o),
(298,119,o),
(333,87,o),
(361,60,o),
(364,57,qs),
(369,53,o),
(373,45,q),
(373,41,o),
(367,38,o),
(354,38,qs),
(245,36,o),
(113,35,o),
(88,35,qs),
(79,35,o)
);
},
{
closed = 1;
nodes = (
(206,129,q),
(206,134,ls),
(206,138,o),
(205,138,q),
(198,145,o),
(188,154,o),
(183,160,q),
(176,163,o),
(156,163,o),
(151,158,qs),
(137,143,ls),
(130,136,o),
(130,128,o),
(139,119,qs),
(154,105,o),
(170,105,qs),
(190,105,o)
);
},
{
closed = 1;
nodes = (
(158,130,qs),
(154,134,o),
(157,137,qs),
(162,141,ls),
(168,145,o),
(172,142,q),
(174,138,o),
(178,136,q),
(178,132,l),
(175,125,o),
(168,125,qs),
(163,125,o)
);
}
);
userData = {
assembly = "NPUSHB[ ]	/* 43 values pushed */
132 29 2 5 0 140 1 7 5 176 170 166 3 8 7 118 66 60 25 4 11 6 14 1 10 11 221 11 2 13 10 255 249 245 3 14 13 7 76 101 1 3 73 
MPPEM[ ]	/* MeasurePixelPerEm */
PUSHB[ ]	/* 1 value pushed */
32 
LT[ ]	/* LessThan */
IF[ ]	/* If */
NPUSHB[ ]	/* 77 values pushed */
0 7 5 8 8 7 114 0 11 6 10 6 11 10 128 0 10 13 6 10 13 126 0 13 14 14 13 112 16 1 8 15 1 6 11 8 6 106 19 1 14 18 1 12 9 14 12 106 0 0 0 39 77 0 5 5 1 97 2 1 1 1 39 77 17 1 9 9 3 97 4 1 3 3 38 3 78 
ELSE[ ]	/* Else */
MPPEM[ ]	/* MeasurePixelPerEm */
PUSHB[ ]	/* 1 value pushed */
33 
LT[ ]	/* LessThan */
IF[ ]	/* If */
NPUSHB[ ]	/* 78 values pushed */
0 7 5 8 8 7 114 0 11 6 10 6 11 10 128 0 10 13 6 10 13 126 0 13 14 6 13 14 126 16 1 8 15 1 6 11 8 6 106 19 1 14 18 1 12 9 14 12 106 0 0 0 39 77 0 5 5 1 97 2 1 1 1 39 77 17 1 9 9 3 97 4 1 3 3 38 3 78 
ELSE[ ]	/* Else */
MPPEM[ ]	/* MeasurePixelPerEm */
PUSHB[ ]	/* 1 value pushed */
34 
LT[ ]	/* LessThan */
IF[ ]	/* If */
NPUSHB[ ]	/* 77 values pushed */
0 7 5 8 8 7 114 0 11 6 10 6 11 10 128 0 10 13 6 10 13 126 0 13 14 14 13 112 16 1 8 15 1 6 11 8 6 106 19 1 14 18 1 12 9 14 12 106 0 0 0 39 77 0 5 5 1 97 2 1 1 1 39 77 17 1 9 9 3 97 4 1 3 3 38 3 78 
ELSE[ ]	/* Else */
NPUSHB[ ]	/* 79 values pushed */
0 7 5 8 5 7 8 128 0 11 6 10 6 11 10 128 0 10 13 6 10 13 126 0 13 14 6 13 14 126 16 1 8 15 1 6 11 8 6 106 19 1 14 18 1 12 9 14 12 106 0 0 0 39 77 0 5 5 1 97 2 1 1 1 39 77 17 1 9 9 3 97 4 1 3 3 38 3 78 
EIF[ ]	/* EndIf */
EIF[ ]	/* EndIf */
EIF[ ]	/* EndIf */
NPUSHW[ ]	/* 53 values pushed */
248 247 231 230 184 180 169 168 152 151 247 258 248 258 238 237 230 246 231 246 214 213 210 208 180 229 184 229 168 179 169 179 159 158 151 167 152 167 137 134 107 105 99 98 41 40 37 34 33 32 20 8 22 
CALL[ ]	/* CallFunction */";
};
width = 441;
}
);
note = B;
unicode = 66;
},
{
glyphname = uni0181;
layers = (
{
layerId = m01;
shapes = (
{
closed = 1;
nodes = (
(157,6,o),
(163,5,q),
(305,5,ls),
(315,5,o),
(320,1,qs),
(326,-3,o),
(333,5,o),
(338,5,qs),
(351,3,o),
(396,7,o),
(441,8,o),
(452,1,qs),
(453,0,o),
(477,3,o),
(485,1,qs),
(490,-1,o),
(511,7,o),
(517,12,qs),
(523,17,o),
(512,27,o),
(510,32,q),
(510,35,o),
(493,49,o),
(475,65,o),
(473,70,qs),
(470,78,o),
(456,83,o),
(452,90,qs),
(451,92,o),
(424,121,o),
(384,160,o),
(343,199,o),
(310,225,o),
(305,226,q),
(295,245,o),
(261,269,o),
(247,284,qs),
(243,289,o),
(233,298,o),
(228,303,q),
(230,312,o),
(211,313,o),
(211,320,qs),
(211,329,o),
(193,334,o),
(187,338,qs),
(181,342,o),
(178,352,o),
(179,353,qs),
(186,361,o),
(198,378,o),
(207,384,qs),
(220,391,o),
(273,444,o),
(339,518,o),
(404,593,o),
(454,652,o),
(465,662,qs),
(468,664,o),
(471,671,o),
(472,675,q),
(474,677,o),
(477,681,o),
(473,684,qs),
(471,686,o),
(466,690,o),
(464,690,q),
(425,698,l),
(358,698,o),
(348,690,qs),
(344,686,o),
(330,698,o),
(321,698,qs),
(177,698,ls),
(172,698,o),
(167,697,q),
(151,700,o),
(116,695,qs),
(112,694,o),
(82,694,o),
(77,694,qs),
(54,695,o),
(49,695,o),
(45,695,qs),
(17,694,o),
(3,660,o),
(1,635,qs),
(0,625,o),
(6,604,o),
(1,597,qs),
(-1,593,o),
(2,574,o),
(1,571,q),
(1,559,o),
(27,559,o),
(27,565,q),
(32,571,o),
(32,603,o),
(33,639,o),
(45,665,o),
(62,664,qs),
(67,664,o),
(90,665,o),
(95,663,qs),
(103,661,o),
(107,665,o),
(120,665,q),
(120,478,ls),
(120,473,o),
(122,462,o),
(126,457,q),
(120,429,l),
(120,422,o),
(122,410,o),
(126,404,qs),
(128,400,o),
(128,389,o),
(126,384,qs),
(123,372,o),
(124,341,o),
(128,318,o),
(127,317,qs),
(122,312,o),
(119,300,o),
(119,294,qs),
(120,272,o),
(121,201,o),
(121,120,o),
(120,47,o),
(120,23,qs),
(120,19,o),
(118,12,o),
(119,8,qs),
(120,4,o),
(137,-5,o),
(140,-2,q),
(145,1,o)
);
},
{
closed = 1;
nodes = (
(149,402,ls),
(149,403,o),
(150,421,o),
(152,433,qs),
(156,453,o),
(158,491,o),
(153,514,qs),
(150,527,o),
(148,568,o),
(149,613,qs),
(151,633,o),
(153,654,o),
(167,662,o),
(186,662,qs),
(390,662,ls),
(395,662,o),
(407,667,o),
(412,668,q),
(418,664,l),
(414,658,o),
(405,645,o),
(400,640,qs),
(396,636,o),
(376,607,o),
(351,573,o),
(328,546,o),
(321,544,q),
(317,538,o),
(310,521,o),
(300,519,qs),
(283,516,o),
(283,500,q),
(274,497,o),
(250,474,o),
(230,448,o),
(227,442,qs),
(226,439,o),
(198,415,o),
(168,390,o),
(160,383,q),
(153,386,l)
);
},
{
closed = 1;
nodes = (
(279,578,q),
(279,583,ls),
(279,587,o),
(278,587,q),
(273,593,o),
(262,602,o),
(257,608,q),
(251,612,o),
(232,611,o),
(227,606,qs),
(212,592,ls),
(206,586,o),
(207,577,o),
(215,569,qs),
(232,554,o),
(245,554,qs),
(266,554,o)
);
},
{
closed = 1;
nodes = (
(233,579,qs),
(229,583,o),
(232,586,qs),
(237,590,ls),
(243,594,o),
(247,591,q),
(249,587,o),
(253,585,q),
(253,581,l),
(250,574,o),
(243,574,qs),
(238,574,o)
);
},
{
closed = 1;
nodes = (
(153,40,o),
(153,47,qs),
(153,50,o),
(151,89,o),
(149,144,o),
(148,202,o),
(150,247,o),
(154,256,q),
(150,261,o),
(152,280,o),
(153,306,qs),
(153,309,o),
(154,314,o),
(155,317,q),
(155,319,o),
(164,319,o),
(166,318,qs),
(170,316,o),
(171,304,o),
(178,304,qs),
(186,304,o),
(187,288,o),
(197,289,q),
(202,286,o),
(211,278,o),
(216,275,qs),
(222,271,o),
(227,259,o),
(231,254,q),
(261,225,o),
(309,187,o),
(324,164,q),
(331,166,o),
(336,157,o),
(340,148,o),
(347,148,q),
(350,145,o),
(377,119,o),
(412,87,o),
(440,60,o),
(443,57,qs),
(448,53,o),
(452,45,q),
(452,41,o),
(446,38,o),
(433,38,qs),
(324,36,o),
(192,35,o),
(167,35,qs),
(158,35,o)
);
},
{
closed = 1;
nodes = (
(285,129,q),
(285,134,ls),
(285,138,o),
(284,138,q),
(277,145,o),
(267,154,o),
(262,160,q),
(255,163,o),
(235,163,o),
(230,158,qs),
(216,143,ls),
(209,136,o),
(209,128,o),
(218,119,qs),
(233,105,o),
(249,105,qs),
(269,105,o)
);
},
{
closed = 1;
nodes = (
(237,130,qs),
(233,134,o),
(236,137,qs),
(241,141,ls),
(247,145,o),
(251,142,q),
(253,138,o),
(257,136,q),
(257,132,l),
(254,125,o),
(247,125,qs),
(242,125,o)
);
}
);
userData = {
assembly = "NPUSHW[ ]	/* 50 values pushed */
159 1 0 2 167 1 9 0 203 197 193 3 10 9 43 1 8 10 145 93 87 25 4 13 8 14 1 12 13 248 11 2 15 12 282 276 272 3 16 15 8 76 60 1 2 74 128 1 5 73 
MPPEM[ ]	/* MeasurePixelPerEm */
PUSHB[ ]	/* 1 value pushed */
32 
LT[ ]	/* LessThan */
IF[ ]	/* If */
NPUSHB[ ]	/* 75 values pushed */
0 9 0 10 10 9 114 0 13 8 12 8 13 12 128 0 12 15 8 12 15 126 0 15 16 16 15 112 18 1 10 17 1 8 13 10 8 106 21 1 16 20 1 14 11 16 14 106 7 1 2 0 0 2 97 4 3 2 2 2 39 77 19 1 11 11 5 97 6 1 5 5 38 5 78 
ELSE[ ]	/* Else */
MPPEM[ ]	/* MeasurePixelPerEm */
PUSHB[ ]	/* 1 value pushed */
33 
LT[ ]	/* LessThan */
IF[ ]	/* If */
NPUSHB[ ]	/* 76 values pushed */
0 9 0 10 10 9 114 0 13 8 12 8 13 12 128 0 12 15 8 12 15 126 0 15 16 8 15 16 126 18 1 10 17 1 8 13 10 8 106 21 1 16 20 1 14 11 16 14 106 7 1 2 0 0 2 97 4 3 2 2 2 39 77 19 1 11 11 5 97 6 1 5 5 38 5 78 
ELSE[ ]	/* Else */
MPPEM[ ]	/* MeasurePixelPerEm */
PUSHB[ ]	/* 1 value pushed */
34 
LT[ ]	/* LessThan */
IF[ ]	/* If */
NPUSHB[ ]	/* 75 values pushed */
0 9 0 10 10 9 114 0 13 8 12 8 13 12 128 0 12 15 8 12 15 126 0 15 16 16 15 112 18 1 10 17 1 8 13 10 8 106 21 1 16 20 1 14 11 16 14 106 7 1 2 0 0 2 97 4 3 2 2 2 39 77 19 1 11 11 5 97 6 1 5 5 38 5 78 
ELSE[ ]	/* Else */
NPUSHB[ ]	/* 77 values pushed */
0 9 0 10 0 9 10 128 0 13 8 12 8 13 12 128 0 12 15 8 12 15 126 0 15 16 8 15 16 126 18 1 10 17 1 8 13 10 8 106 21 1 16 20 1 14 11 16 14 106 7 1 2 0 0 2 97 4 3 2 2 2 39 77 19 1 11 11 5 97 6 1 5 5 38 5 78 
EIF[ ]	/* EndIf */
EIF[ ]	/* EndIf */
EIF[ ]	/* EndIf */
NPUSHW[ ]	/* 57 values pushed */
275 274 258 257 211 207 196 195 179 178 274 285 275 285 265 264 257 273 258 273 241 240 237 235 207 256 211 256 195 206 196 206 186 185 178 194 179 194 164 161 134 132 126 125 68 67 64 62 57 51 36 32 30 29 22 8 22 
CALL[ ]	/* CallFunction */";
};
width = 520;
}
);
note = uni0181;
unicode = 385;
},
{
glyphname = C;
layers = (
{
layerId = m01;
shapes = (
{
closed = 1;
nodes = (
(93,-28,o),
(135,-10,o),
(170,6,o),
(175,10,qs),
(187,19,o),
(214,25,o),
(227,31,qs),
(264,49,o),
(300,67,o),
(315,74,o),
(323,77,o),
(339,82,o),
(377,97,o),
(415,112,q),
(415,58,o),
(415,6,o),
(414,-13,o),
(414,-19,qs),
(414,-24,o),
(430,-33,o),
(437,-33,qs),
(445,-33,o),
(448,-25,o),
(449,-20,qs),
(450,-17,o),
(456,10,o),
(457,15,q),
(448,24,o),
(448,36,qs),
(448,62,o),
(448,83,o),
(448,95,o),
(448,116,o),
(448,142,qs),
(448,149,o),
(441,149,q),
(436,150,o),
(423,151,o),
(420,149,q),
(413,142,o),
(397,143,o),
(389,139,qs),
(382,135,o),
(349,119,o),
(310,101,o),
(275,88,o),
(266,88,qs),
(265,88,o),
(226,69,o),
(170,42,o),
(115,16,o),
(98,8,qs),
(92,6,o),
(77,12,o),
(75,17,q),
(74,64,o),
(74,108,o),
(74,122,o),
(74,128,o),
(75,144,o),
(75,169,qs),
(75,174,o),
(81,182,q),
(83,186,o),
(74,191,o),
(78,195,qs),
(80,197,o),
(83,219,o),
(83,247,o),
(82,270,o),
(80,271,q),
(73,277,o),
(84,285,o),
(83,290,qs),
(82,295,o),
(83,305,o),
(83,309,qs),
(83,323,o),
(75,330,o),
(78,333,qs),
(83,338,o),
(83,349,o),
(83,354,qs),
(83,586,ls),
(83,591,o),
(83,601,o),
(81,604,qs),
(75,612,o),
(75,624,qs),
(75,641,o),
(89,654,o),
(96,654,qs),
(106,654,o),
(132,639,o),
(158,623,o),
(168,622,qs),
(183,620,o),
(190,613,qs),
(195,609,o),
(237,589,o),
(296,563,o),
(355,537,o),
(399,517,o),
(405,513,qs),
(415,506,o),
(448,513,o),
(449,526,qs),
(449,532,o),
(447,544,o),
(447,550,qs),
(447,559,o),
(456,575,o),
(456,583,qs),
(456,592,o),
(451,597,q),
(458,602,o),
(454,609,o),
(447,617,o),
(448,621,qs),
(450,627,o),
(449,649,o),
(449,681,qs),
(449,686,o),
(443,693,o),
(438,696,q),
(435,699,o),
(426,698,o),
(424,695,q),
(421,687,o),
(415,672,o),
(415,663,qs),
(415,657,o),
(415,625,o),
(415,588,o),
(415,559,o),
(415,556,qs),
(415,550,o),
(406,546,o),
(401,549,qs),
(389,555,o),
(337,580,o),
(276,608,o),
(228,629,o),
(221,630,qs),
(214,632,o),
(169,654,o),
(116,680,o),
(72,700,o),
(64,700,qs),
(56,700,o),
(48,695,qs),
(41,689,o),
(50,668,o),
(61,646,o),
(55,638,qs),
(48,627,o),
(47,617,o),
(55,608,qs),
(60,601,o),
(47,589,o),
(47,578,qs),
(47,533,o),
(50,492,o),
(52,478,o),
(52,474,qs),
(52,473,o),
(47,420,o),
(47,363,qs),
(47,356,o),
(50,343,o),
(55,336,qs),
(59,330,o),
(55,324,q),
(50,320,o),
(47,308,o),
(47,302,qs),
(46,250,o),
(46,188,o),
(47,151,o),
(48,123,o),
(48,105,qs),
(45,66,o),
(41,27,o),
(40,13,o),
(40,8,qs),
(40,-21,ls),
(40,-40,o),
(61,-40,qs),
(62,-40,o)
);
},
{
closed = 1;
nodes = (
(288,325,o),
(295,332,q),
(303,344,o),
(295,355,qs),
(289,363,o),
(276,371,o),
(266,369,q),
(247,369,o),
(226,352,o),
(226,340,qs),
(226,333,o),
(240,308,o),
(258,308,qs),
(269,308,o)
);
},
{
closed = 1;
nodes = (
(254,339,o),
(254,340,qs),
(254,347,o),
(264,347,q),
(267,348,o),
(271,344,q),
(273,340,o),
(271,338,q),
(268,331,o),
(261,331,qs),
(257,331,o)
);
}
);
userData = {
assembly = "NPUSHB[ ]	/* 31 values pushed */
78 75 73 3 8 2 205 108 2 9 8 111 1 7 9 12 1 5 7 174 7 2 3 4 161 133 2 6 3 6 76 
MPPEM[ ]	/* MeasurePixelPerEm */
PUSHB[ ]	/* 1 value pushed */
32 
LT[ ]	/* LessThan */
IF[ ]	/* If */
NPUSHB[ ]	/* 59 values pushed */
0 2 1 8 1 2 8 128 0 8 9 9 8 112 0 4 5 3 5 4 3 128 0 3 6 5 3 6 126 10 1 0 6 0 134 12 1 9 11 1 7 5 9 7 106 0 5 0 6 0 5 6 105 0 1 1 37 1 78 
ELSE[ ]	/* Else */
MPPEM[ ]	/* MeasurePixelPerEm */
PUSHB[ ]	/* 1 value pushed */
33 
LT[ ]	/* LessThan */
IF[ ]	/* If */
NPUSHB[ ]	/* 60 values pushed */
0 2 1 8 1 2 8 128 0 8 9 1 8 9 126 0 4 5 3 5 4 3 128 0 3 6 5 3 6 126 10 1 0 6 0 134 12 1 9 11 1 7 5 9 7 106 0 5 0 6 0 5 6 105 0 1 1 37 1 78 
ELSE[ ]	/* Else */
MPPEM[ ]	/* MeasurePixelPerEm */
PUSHB[ ]	/* 1 value pushed */
34 
LT[ ]	/* LessThan */
IF[ ]	/* If */
NPUSHB[ ]	/* 59 values pushed */
0 2 1 8 1 2 8 128 0 8 9 9 8 112 0 4 5 3 5 4 3 128 0 3 6 5 3 6 126 10 1 0 6 0 134 12 1 9 11 1 7 5 9 7 106 0 5 0 6 0 5 6 105 0 1 1 37 1 78 
ELSE[ ]	/* Else */
NPUSHB[ ]	/* 60 values pushed */
0 2 1 8 1 2 8 128 0 8 9 1 8 9 126 0 4 5 3 5 4 3 128 0 3 6 5 3 6 126 10 1 0 6 0 134 12 1 9 11 1 7 5 9 7 106 0 5 0 6 0 5 6 105 0 1 1 37 1 78 
EIF[ ]	/* EndIf */
EIF[ ]	/* EndIf */
EIF[ ]	/* EndIf */
NPUSHB[ ]	/* 35 values pushed */
204 203 190 189 1 0 203 213 204 213 195 194 189 202 190 202 168 166 151 149 148 147 142 140 96 95 40 38 0 188 1 188 13 8 22 
CALL[ ]	/* CallFunction */";
};
width = 477;
}
);
note = C;
unicode = 67;
},
{
glyphname = Ccaron;
layers = (
{
layerId = m01;
shapes = (
{
closed = 1;
nodes = (
(93,-28,o),
(135,-10,o),
(170,6,o),
(175,10,qs),
(187,19,o),
(214,25,o),
(227,31,qs),
(264,49,o),
(300,67,o),
(315,74,o),
(323,77,o),
(339,82,o),
(377,97,o),
(415,112,q),
(415,58,o),
(415,6,o),
(414,-13,o),
(414,-19,qs),
(414,-24,o),
(430,-33,o),
(437,-33,qs),
(445,-33,o),
(448,-25,o),
(449,-20,qs),
(450,-17,o),
(456,10,o),
(457,15,q),
(448,24,o),
(448,36,qs),
(448,62,o),
(448,83,o),
(448,95,o),
(448,116,o),
(448,142,qs),
(448,149,o),
(441,149,q),
(436,150,o),
(423,151,o),
(420,149,q),
(413,142,o),
(397,143,o),
(389,139,qs),
(382,135,o),
(349,119,o),
(310,101,o),
(275,88,o),
(266,88,qs),
(265,88,o),
(226,69,o),
(170,42,o),
(115,16,o),
(98,8,qs),
(92,6,o),
(77,12,o),
(75,17,q),
(74,64,o),
(74,108,o),
(74,122,o),
(74,128,o),
(75,144,o),
(75,169,qs),
(75,174,o),
(81,182,q),
(83,186,o),
(74,191,o),
(78,195,qs),
(80,197,o),
(83,219,o),
(83,247,o),
(82,270,o),
(80,271,q),
(73,277,o),
(84,285,o),
(83,290,qs),
(82,295,o),
(83,305,o),
(83,309,qs),
(83,323,o),
(75,330,o),
(78,333,qs),
(83,338,o),
(83,349,o),
(83,354,qs),
(83,586,ls),
(83,591,o),
(83,601,o),
(81,604,qs),
(75,612,o),
(75,624,qs),
(75,641,o),
(89,654,o),
(96,654,qs),
(106,654,o),
(132,639,o),
(158,623,o),
(168,622,qs),
(183,620,o),
(190,613,qs),
(195,609,o),
(237,589,o),
(296,563,o),
(355,537,o),
(399,517,o),
(405,513,qs),
(415,506,o),
(448,513,o),
(449,526,qs),
(449,532,o),
(447,544,o),
(447,550,qs),
(447,559,o),
(456,575,o),
(456,583,qs),
(456,592,o),
(451,597,q),
(458,602,o),
(454,609,o),
(447,617,o),
(448,621,qs),
(450,627,o),
(449,649,o),
(449,681,qs),
(449,686,o),
(443,693,o),
(438,696,q),
(435,699,o),
(426,698,o),
(424,695,q),
(421,687,o),
(415,672,o),
(415,663,qs),
(415,657,o),
(415,625,o),
(415,588,o),
(415,559,o),
(415,556,qs),
(415,550,o),
(406,546,o),
(401,549,qs),
(389,555,o),
(337,580,o),
(276,608,o),
(228,629,o),
(221,630,qs),
(214,632,o),
(169,654,o),
(116,680,o),
(72,700,o),
(64,700,qs),
(56,700,o),
(48,695,qs),
(41,689,o),
(50,668,o),
(61,646,o),
(55,638,qs),
(48,627,o),
(47,617,o),
(55,608,qs),
(60,601,o),
(47,589,o),
(47,578,qs),
(47,533,o),
(50,492,o),
(52,478,o),
(52,474,qs),
(52,473,o),
(47,420,o),
(47,363,qs),
(47,356,o),
(50,343,o),
(55,336,qs),
(59,330,o),
(55,324,q),
(50,320,o),
(47,308,o),
(47,302,qs),
(46,250,o),
(46,188,o),
(47,151,o),
(48,123,o),
(48,105,qs),
(45,66,o),
(41,27,o),
(40,13,o),
(40,8,qs),
(40,-21,ls),
(40,-40,o),
(61,-40,qs),
(62,-40,o)
);
},
{
closed = 1;
nodes = (
(288,325,o),
(295,332,q),
(303,344,o),
(295,355,qs),
(289,363,o),
(276,371,o),
(266,369,q),
(247,369,o),
(226,352,o),
(226,340,qs),
(226,333,o),
(240,308,o),
(258,308,qs),
(269,308,o)
);
},
{
closed = 1;
nodes = (
(254,339,o),
(254,340,qs),
(254,347,o),
(264,347,q),
(267,348,o),
(271,344,q),
(273,340,o),
(271,338,q),
(268,331,o),
(261,331,qs),
(257,331,o)
);
},
{
closed = 1;
nodes = (
(288,833,o),
(285,829,qs),
(283,827,o),
(270,810,o),
(268,808,qs),
(266,805,o),
(259,794,o),
(257,793,qs),
(251,790,o),
(247,790,o),
(242,792,q),
(238,797,o),
(216,817,o),
(189,840,o),
(166,856,o),
(161,856,q),
(153,858,o),
(141,856,o),
(145,847,q),
(151,841,o),
(163,828,o),
(167,821,q),
(172,818,o),
(184,803,o),
(190,800,q),
(198,793,o),
(205,784,o),
(212,778,qs),
(220,771,o),
(236,757,o),
(240,746,qs),
(242,742,o),
(250,741,o),
(252,745,q),
(263,757,o),
(294,791,o),
(324,826,o),
(344,849,o),
(343,850,qs),
(341,852,o),
(335,857,o),
(333,857,q),
(328,859,o),
(321,857,q),
(307,850,o)
);
}
);
userData = {
assembly = "NPUSHB[ ]	/* 31 values pushed */
78 75 73 3 8 2 205 108 2 9 8 111 1 7 9 12 1 5 7 174 7 2 3 4 161 133 2 6 3 6 76 
MPPEM[ ]	/* MeasurePixelPerEm */
PUSHB[ ]	/* 1 value pushed */
32 
LT[ ]	/* LessThan */
IF[ ]	/* If */
NPUSHB[ ]	/* 59 values pushed */
0 2 1 8 1 2 8 128 0 8 9 9 8 112 0 4 5 3 5 4 3 128 0 3 6 5 3 6 126 10 1 0 6 0 134 12 1 9 11 1 7 5 9 7 106 0 5 0 6 0 5 6 105 0 1 1 37 1 78 
ELSE[ ]	/* Else */
MPPEM[ ]	/* MeasurePixelPerEm */
PUSHB[ ]	/* 1 value pushed */
33 
LT[ ]	/* LessThan */
IF[ ]	/* If */
NPUSHB[ ]	/* 60 values pushed */
0 2 1 8 1 2 8 128 0 8 9 1 8 9 126 0 4 5 3 5 4 3 128 0 3 6 5 3 6 126 10 1 0 6 0 134 12 1 9 11 1 7 5 9 7 106 0 5 0 6 0 5 6 105 0 1 1 37 1 78 
ELSE[ ]	/* Else */
MPPEM[ ]	/* MeasurePixelPerEm */
PUSHB[ ]	/* 1 value pushed */
34 
LT[ ]	/* LessThan */
IF[ ]	/* If */
NPUSHB[ ]	/* 59 values pushed */
0 2 1 8 1 2 8 128 0 8 9 9 8 112 0 4 5 3 5 4 3 128 0 3 6 5 3 6 126 10 1 0 6 0 134 12 1 9 11 1 7 5 9 7 106 0 5 0 6 0 5 6 105 0 1 1 37 1 78 
ELSE[ ]	/* Else */
NPUSHB[ ]	/* 60 values pushed */
0 2 1 8 1 2 8 128 0 8 9 1 8 9 126 0 4 5 3 5 4 3 128 0 3 6 5 3 6 126 10 1 0 6 0 134 12 1 9 11 1 7 5 9 7 106 0 5 0 6 0 5 6 105 0 1 1 37 1 78 
EIF[ ]	/* EndIf */
EIF[ ]	/* EndIf */
EIF[ ]	/* EndIf */
NPUSHB[ ]	/* 35 values pushed */
204 203 190 189 1 0 203 213 204 213 195 194 189 202 190 202 168 166 151 149 148 147 142 140 96 95 40 38 0 188 1 188 13 8 22 
CALL[ ]	/* CallFunction */";
};
width = 477;
}
);
note = Ccaron;
unicode = 268;
},
{
glyphname = uni0187;
layers = (
{
layerId = m01;
shapes = (
{
closed = 1;
nodes = (
(93,-28,o),
(135,-10,o),
(170,6,o),
(175,10,qs),
(187,19,o),
(214,25,o),
(227,31,qs),
(264,49,o),
(300,67,o),
(315,74,o),
(323,77,o),
(339,82,o),
(377,97,o),
(415,112,q),
(415,58,o),
(415,6,o),
(414,-13,o),
(414,-19,qs),
(414,-24,o),
(430,-33,o),
(437,-33,qs),
(445,-33,o),
(448,-25,o),
(449,-20,qs),
(450,-17,o),
(456,10,o),
(457,15,q),
(448,24,o),
(448,36,qs),
(448,62,o),
(448,83,o),
(448,95,o),
(448,116,o),
(448,142,qs),
(448,149,o),
(441,149,q),
(436,150,o),
(423,151,o),
(420,149,q),
(413,142,o),
(397,143,o),
(389,139,qs),
(382,135,o),
(349,119,o),
(310,101,o),
(275,88,o),
(266,88,qs),
(265,88,o),
(226,69,o),
(170,42,o),
(115,16,o),
(98,8,qs),
(92,6,o),
(77,12,o),
(75,17,q),
(74,64,o),
(74,108,o),
(74,122,o),
(74,128,o),
(75,144,o),
(75,169,qs),
(75,174,o),
(81,182,q),
(83,186,o),
(74,191,o),
(78,195,qs),
(80,197,o),
(83,219,o),
(83,247,o),
(82,270,o),
(80,271,q),
(73,277,o),
(84,285,o),
(83,290,qs),
(82,295,o),
(83,305,o),
(83,309,qs),
(83,323,o),
(75,330,o),
(78,333,qs),
(83,338,o),
(83,349,o),
(83,354,qs),
(83,586,ls),
(83,591,o),
(83,601,o),
(81,604,qs),
(75,612,o),
(75,624,qs),
(75,641,o),
(89,654,o),
(96,654,qs),
(106,654,o),
(132,639,o),
(158,623,o),
(168,622,qs),
(183,620,o),
(190,613,qs),
(195,609,o),
(237,589,o),
(296,563,o),
(355,537,o),
(399,517,o),
(405,513,qs),
(415,506,o),
(448,513,o),
(449,526,qs),
(449,532,o),
(447,544,o),
(447,550,qs),
(447,559,o),
(456,575,o),
(456,583,qs),
(456,592,o),
(451,597,q),
(458,602,o),
(454,609,o),
(447,617,o),
(448,621,qs),
(450,627,o),
(449,649,o),
(449,681,qs),
(449,683,ls),
(451,697,o),
(450,740,o),
(460,773,o),
(480,772,qs),
(485,772,o),
(508,773,o),
(513,771,q),
(520,770,o),
(525,772,o),
(539,774,o),
(558,771,qs),
(563,770,o),
(573,776,o),
(579,773,q),
(592,781,o),
(590,792,o),
(579,797,q),
(567,805,o),
(548,808,o),
(534,803,qs),
(530,802,o),
(500,802,o),
(495,802,qs),
(472,803,o),
(467,803,o),
(463,803,qs),
(435,802,o),
(421,768,o),
(419,743,qs),
(418,733,o),
(424,712,o),
(419,705,qs),
(417,702,o),
(419,687,o),
(419,682,q),
(415,672,o),
(415,663,qs),
(415,657,o),
(415,625,o),
(415,588,o),
(415,559,o),
(415,556,qs),
(415,550,o),
(406,546,o),
(401,549,qs),
(389,555,o),
(337,580,o),
(276,608,o),
(228,629,o),
(221,630,qs),
(214,632,o),
(169,654,o),
(116,680,o),
(72,700,o),
(64,700,qs),
(56,700,o),
(48,695,qs),
(41,689,o),
(50,668,o),
(61,646,o),
(55,638,qs),
(48,627,o),
(47,617,o),
(55,608,qs),
(60,601,o),
(47,589,o),
(47,578,qs),
(47,533,o),
(50,492,o),
(52,478,o),
(52,474,qs),
(52,473,o),
(47,420,o),
(47,363,qs),
(47,356,o),
(50,343,o),
(55,336,qs),
(59,330,o),
(55,324,q),
(50,320,o),
(47,308,o),
(47,302,qs),
(46,250,o),
(46,188,o),
(47,151,o),
(48,123,o),
(48,105,qs),
(45,66,o),
(41,27,o),
(40,13,o),
(40,8,qs),
(40,-21,ls),
(40,-40,o),
(61,-40,qs),
(62,-40,o)
);
},
{
closed = 1;
nodes = (
(288,325,o),
(295,332,q),
(303,344,o),
(295,355,qs),
(289,363,o),
(276,371,o),
(266,369,q),
(247,369,o),
(226,352,o),
(226,340,qs),
(226,333,o),
(240,308,o),
(258,308,qs),
(269,308,o)
);
},
{
closed = 1;
nodes = (
(254,339,o),
(254,340,qs),
(254,347,o),
(264,347,q),
(267,348,o),
(271,344,q),
(273,340,o),
(271,338,q),
(268,331,o),
(261,331,qs),
(257,331,o)
);
}
);
userData = {
assembly = "NPUSHB[ ]	/* 40 values pushed */
80 1 3 2 94 59 2 4 1 107 104 102 3 10 4 234 137 2 11 10 140 1 9 11 12 1 7 9 203 7 2 5 6 190 162 2 8 5 8 76 
MPPEM[ ]	/* MeasurePixelPerEm */
PUSHB[ ]	/* 1 value pushed */
32 
LT[ ]	/* LessThan */
IF[ ]	/* If */
NPUSHB[ ]	/* 67 values pushed */
0 4 1 10 1 4 10 128 0 10 11 11 10 112 0 6 7 5 7 6 5 128 0 5 8 7 5 8 126 12 1 0 8 0 134 0 2 0 3 1 2 3 105 14 1 11 13 1 9 7 11 9 106 0 7 0 8 0 7 8 105 0 1 1 37 1 78 
ELSE[ ]	/* Else */
MPPEM[ ]	/* MeasurePixelPerEm */
PUSHB[ ]	/* 1 value pushed */
33 
LT[ ]	/* LessThan */
IF[ ]	/* If */
NPUSHB[ ]	/* 68 values pushed */
0 4 1 10 1 4 10 128 0 10 11 1 10 11 126 0 6 7 5 7 6 5 128 0 5 8 7 5 8 126 12 1 0 8 0 134 0 2 0 3 1 2 3 105 14 1 11 13 1 9 7 11 9 106 0 7 0 8 0 7 8 105 0 1 1 37 1 78 
ELSE[ ]	/* Else */
MPPEM[ ]	/* MeasurePixelPerEm */
PUSHB[ ]	/* 1 value pushed */
34 
LT[ ]	/* LessThan */
IF[ ]	/* If */
NPUSHB[ ]	/* 67 values pushed */
0 4 1 10 1 4 10 128 0 10 11 11 10 112 0 6 7 5 7 6 5 128 0 5 8 7 5 8 126 12 1 0 8 0 134 0 2 0 3 1 2 3 105 14 1 11 13 1 9 7 11 9 106 0 7 0 8 0 7 8 105 0 1 1 37 1 78 
ELSE[ ]	/* Else */
NPUSHB[ ]	/* 68 values pushed */
0 4 1 10 1 4 10 128 0 10 11 1 10 11 126 0 6 7 5 7 6 5 128 0 5 8 7 5 8 126 12 1 0 8 0 134 0 2 0 3 1 2 3 105 14 1 11 13 1 9 7 11 9 106 0 7 0 8 0 7 8 105 0 1 1 37 1 78 
EIF[ ]	/* EndIf */
EIF[ ]	/* EndIf */
EIF[ ]	/* EndIf */
NPUSHB[ ]	/* 39 values pushed */
233 232 219 218 1 0 232 242 233 242 224 223 218 231 219 231 197 195 180 178 177 176 171 169 125 124 91 87 73 67 40 38 0 217 1 217 15 8 22 
CALL[ ]	/* CallFunction */";
};
width = 497;
}
);
note = uni0187;
unicode = 391;
},
{
glyphname = uni023B;
layers = (
{
layerId = m01;
shapes = (
{
closed = 1;
nodes = (
(175,-20,o),
(176,-6,qs),
(176,-5,o),
(177,-5,o),
(177,-4,q),
(199,5,o),
(205,10,qs),
(217,19,o),
(244,25,o),
(257,31,qs),
(294,49,o),
(330,67,o),
(345,74,o),
(353,77,o),
(369,82,o),
(407,97,o),
(445,112,q),
(445,58,o),
(445,6,o),
(444,-13,o),
(444,-19,qs),
(444,-24,o),
(460,-33,o),
(467,-33,qs),
(475,-33,o),
(478,-25,o),
(479,-20,qs),
(480,-17,o),
(486,10,o),
(487,15,q),
(478,24,o),
(478,36,qs),
(478,62,o),
(478,83,o),
(478,95,o),
(478,116,o),
(478,142,qs),
(478,149,o),
(471,149,q),
(466,150,o),
(453,151,o),
(450,149,q),
(443,142,o),
(427,143,o),
(419,139,qs),
(412,135,o),
(379,119,o),
(340,101,o),
(305,88,o),
(296,88,q),
(296,88,o),
(264,73,o),
(217,50,o),
(192,38,q),
(192,50,l),
(208,101,o),
(238,203,o),
(254,253,qs),
(257,263,o),
(270,280,o),
(269,291,qs),
(267,310,o),
(281,326,o),
(285,339,qs),
(348,553,l),
(379,540,o),
(429,518,o),
(435,513,qs),
(445,506,o),
(478,513,o),
(479,526,qs),
(479,532,o),
(477,544,o),
(477,550,qs),
(477,559,o),
(486,575,o),
(486,583,qs),
(486,592,o),
(481,597,q),
(488,602,o),
(484,609,o),
(477,617,o),
(478,621,qs),
(480,627,o),
(479,649,o),
(479,681,qs),
(479,686,o),
(473,693,o),
(468,696,q),
(465,699,o),
(456,698,o),
(454,695,q),
(451,687,o),
(445,672,o),
(445,663,qs),
(445,657,o),
(445,625,o),
(445,588,o),
(445,559,o),
(445,556,qs),
(445,550,o),
(436,546,o),
(431,549,qs),
(357,584,l),
(366,613,o),
(382,668,o),
(389,693,q),
(393,701,o),
(394,721,o),
(392,728,qs),
(389,739,o),
(381,743,q),
(379,740,o),
(363,724,o),
(356,697,qs),
(355,690,o),
(345,653,o),
(343,647,qs),
(329,598,l),
(302,610,o),
(258,629,o),
(251,630,qs),
(244,632,o),
(199,654,o),
(146,680,o),
(102,700,o),
(94,700,qs),
(86,700,o),
(78,695,qs),
(71,689,o),
(80,668,o),
(91,646,o),
(85,638,qs),
(78,627,o),
(77,617,o),
(85,608,qs),
(90,601,o),
(77,589,o),
(77,578,qs),
(77,533,o),
(80,492,o),
(82,478,o),
(82,474,qs),
(82,473,o),
(77,420,o),
(77,363,qs),
(77,356,o),
(80,343,o),
(85,336,qs),
(89,330,o),
(85,324,q),
(80,320,o),
(77,308,o),
(77,302,qs),
(76,250,o),
(76,188,o),
(77,151,o),
(78,123,o),
(78,105,qs),
(75,66,o),
(71,27,o),
(70,13,o),
(70,8,qs),
(70,-21,ls),
(70,-40,o),
(91,-40,qs),
(93,-40,o),
(125,-27,o),
(145,-18,q),
(141,-31,o),
(134,-52,o),
(133,-55,qs),
(127,-69,o),
(142,-86,o),
(161,-80,o),
(160,-61,q),
(171,-50,o)
);
},
{
closed = 1;
nodes = (
(107,12,o),
(105,17,q),
(104,64,o),
(104,108,o),
(104,122,o),
(104,128,o),
(105,144,o),
(105,169,qs),
(105,174,o),
(111,182,q),
(113,186,o),
(104,191,o),
(108,195,qs),
(110,197,o),
(113,219,o),
(113,247,o),
(112,270,o),
(110,271,q),
(103,277,o),
(114,285,o),
(113,290,qs),
(112,295,o),
(113,305,o),
(113,309,qs),
(113,323,o),
(105,330,o),
(108,333,qs),
(113,338,o),
(113,349,o),
(113,354,qs),
(113,586,ls),
(113,591,o),
(113,601,o),
(111,604,qs),
(105,612,o),
(105,624,qs),
(105,641,o),
(119,654,o),
(126,654,qs),
(136,654,o),
(162,639,o),
(188,623,o),
(198,622,qs),
(213,620,o),
(220,613,qs),
(225,608,o),
(284,581,o),
(319,565,q),
(264,378,ls),
(259,362,o),
(247,328,o),
(245,313,qs),
(242,293,o),
(222,269,o),
(223,249,q),
(219,236,o),
(206,216,o),
(203,201,qs),
(201,191,o),
(188,151,o),
(178,111,o),
(179,100,q),
(168,80,o),
(167,54,qs),
(167,52,o),
(162,34,o),
(158,22,q),
(150,18,o),
(134,11,o),
(128,8,qs),
(122,6,o)
);
}
);
userData = {
assembly = "NPUSHB[ ]	/* 92 values pushed */
223 220 199 192 111 102 99 97 72 57 22 11 4 6 185 159 17 3 2 3 245 146 122 121 7 5 5 2 3 76 0 1 0 73 0 6 1 4 1 6 4 128 0 3 4 2 4 3 2 128 0 2 5 4 2 5 126 0 0 5 0 134 0 4 0 5 0 4 5 105 0 1 1 37 1 78 208 207 153 151 136 134 133 132 127 125 50 48 41 7 8 23 
CALL[ ]	/* CallFunction */";
};
width = 497;
}
);
note = uni023B;
unicode = 571;
},
{
glyphname = D;
kernRight = D;
layers = (
{
layerId = m01;
shapes = (
{
closed = 1;
nodes = (
(76,-33,o),
(82,-31,q),
(89,-27,o),
(93,-20,qs),
(95,-16,o),
(135,23,o),
(196,82,o),
(264,146,o),
(326,202,o),
(367,238,o),
(370,238,q),
(383,249,o),
(422,288,o),
(453,323,o),
(453,326,qs),
(453,334,o),
(433,351,o),
(410,368,o),
(406,375,qs),
(402,383,o),
(385,397,o),
(377,403,qs),
(348,426,o),
(300,489,o),
(260,523,qs),
(253,529,o),
(237,538,o),
(232,545,qs),
(229,549,o),
(203,576,o),
(167,610,o),
(132,640,o),
(119,647,q),
(121,656,o),
(104,659,o),
(103,663,q),
(103,670,o),
(86,684,o),
(67,696,o),
(64,698,qs),
(60,701,o),
(52,698,o),
(49,696,q),
(43,680,o),
(39,658,o),
(48,647,q),
(55,632,o),
(46,620,qs),
(36,605,o),
(45,594,qs),
(51,588,o),
(49,574,o),
(49,567,q),
(40,558,o),
(40,512,o),
(47,499,q),
(45,498,o),
(42,469,o),
(41,433,o),
(42,403,o),
(44,400,q),
(50,394,o),
(39,385,o),
(41,380,qs),
(43,373,o),
(50,356,o),
(45,351,q),
(48,303,l),
(44,298,o),
(44,292,qs),
(44,287,o),
(50,277,o),
(50,270,qs),
(50,264,o),
(42,252,o),
(44,248,qs),
(47,243,o),
(49,231,o),
(49,226,qs),
(49,153,ls),
(49,149,o),
(50,139,o),
(48,137,qs),
(44,133,o),
(41,122,o),
(41,116,qs),
(41,-23,ls),
(41,-33,o),
(48,-38,o),
(59,-38,qs),
(66,-39,o)
);
},
{
closed = 1;
nodes = (
(71,26,o),
(73,30,qs),
(74,32,o),
(76,36,o),
(75,37,qs),
(67,43,o),
(75,55,o),
(75,60,qs),
(76,308,ls),
(76,311,o),
(75,337,o),
(75,370,o),
(77,397,o),
(80,399,q),
(83,404,o),
(81,406,qs),
(75,414,o),
(75,421,qs),
(75,475,o),
(75,583,o),
(76,636,qs),
(76,642,o),
(80,647,o),
(83,644,qs),
(94,634,o),
(128,602,o),
(164,568,o),
(193,543,o),
(198,541,qs),
(202,540,o),
(206,530,o),
(209,527,qs),
(215,521,o),
(253,486,o),
(290,448,o),
(295,436,q),
(313,423,o),
(335,388,o),
(357,378,qs),
(360,377,o),
(367,369,o),
(368,367,q),
(368,359,o),
(383,357,o),
(384,352,qs),
(386,347,o),
(403,338,o),
(408,335,qs),
(412,333,o),
(414,324,o),
(406,316,qs),
(381,292,o),
(325,238,o),
(300,214,q),
(291,213,o),
(282,199,o),
(276,195,q),
(268,192,o),
(256,180,o),
(250,175,qs),
(244,169,o),
(224,146,o),
(217,141,qs),
(212,137,o),
(182,111,o),
(146,77,o),
(119,49,o),
(116,44,qs),
(111,34,o),
(91,19,o),
(83,11,qs),
(74,3,o),
(69,3,o),
(68,7,qs),
(67,12,o)
);
},
{
closed = 1;
nodes = (
(231,320,o),
(238,328,qs),
(246,340,o),
(238,351,qs),
(226,366,o),
(209,365,qs),
(190,365,o),
(169,348,o),
(169,336,qs),
(169,329,o),
(183,304,o),
(201,304,qs),
(212,304,o)
);
},
{
closed = 1;
nodes = (
(197,334,o),
(197,335,qs),
(197,342,o),
(207,342,q),
(211,343,o),
(214,339,qs),
(216,335,o),
(214,333,qs),
(210,327,o),
(204,327,qs),
(200,327,o)
);
}
);
userData = {
assembly = "NPUSHB[ ]	/* 21 values pushed */
181 23 2 3 2 160 157 22 11 4 5 0 1 2 76 149 147 26 3 2 74 
MPPEM[ ]	/* MeasurePixelPerEm */
PUSHB[ ]	/* 1 value pushed */
33 
LT[ ]	/* LessThan */
IF[ ]	/* If */
NPUSHB[ ]	/* 31 values pushed */
0 2 3 3 2 112 4 1 0 1 0 134 6 1 3 1 1 3 89 6 1 3 3 1 98 5 1 1 3 1 82 
ELSE[ ]	/* Else */
NPUSHB[ ]	/* 30 values pushed */
0 2 3 2 133 4 1 0 1 0 134 6 1 3 1 1 3 89 6 1 3 3 1 98 5 1 1 3 1 82 
EIF[ ]	/* EndIf */
NPUSHB[ ]	/* 23 values pushed */
180 179 167 166 1 0 179 189 180 189 173 171 166 178 167 178 0 90 1 90 7 8 22 
CALL[ ]	/* CallFunction */";
};
width = 453;
}
);
note = D;
unicode = 68;
},
{
glyphname = Eth;
kernRight = D;
layers = (
{
layerId = m01;
shapes = (
{
closed = 1;
nodes = (
(125,6,o),
(131,8,qs),
(138,10,o),
(142,18,qs),
(144,21,o),
(184,59,o),
(245,114,o),
(313,175,o),
(375,228,o),
(416,262,o),
(419,262,q),
(432,273,o),
(471,310,o),
(502,343,o),
(502,346,qs),
(502,353,o),
(482,369,o),
(459,386,o),
(455,392,qs),
(451,400,o),
(434,413,o),
(426,419,qs),
(397,441,o),
(349,501,o),
(309,532,qs),
(302,538,o),
(286,546,o),
(281,553,qs),
(278,557,o),
(252,583,o),
(216,615,o),
(181,644,o),
(168,650,q),
(170,658,o),
(153,661,o),
(152,665,q),
(152,672,o),
(135,685,o),
(116,696,o),
(113,698,qs),
(109,701,o),
(101,698,o),
(98,696,q),
(92,681,o),
(88,661,o),
(97,650,q),
(104,636,o),
(95,624,qs),
(85,610,o),
(94,600,qs),
(100,594,o),
(98,581,o),
(98,574,q),
(89,566,o),
(89,522,o),
(96,510,q),
(94,509,o),
(91,482,o),
(90,447,o),
(91,419,o),
(93,416,q),
(99,410,o),
(88,402,o),
(90,397,qs),
(92,390,o),
(99,374,o),
(94,369,qs),
(90,366,o),
(82,362,o),
(76,362,qs),
(66,362,o),
(37,362,o),
(27,361,qs),
(19,361,o),
(21,339,o),
(29,339,qs),
(82,339,ls),
(87,339,o),
(100,326,o),
(97,324,q),
(93,319,o),
(93,314,qs),
(93,309,o),
(99,299,o),
(99,293,qs),
(99,287,o),
(91,276,o),
(93,272,qs),
(98,263,o),
(98,251,qs),
(98,182,ls),
(98,178,o),
(99,169,o),
(97,167,qs),
(93,163,o),
(90,152,o),
(90,147,qs),
(90,15,ls),
(90,6,o),
(97,1,o),
(108,1,qs),
(115,0,o)
);
},
{
closed = 1;
nodes = (
(120,61,o),
(122,65,qs),
(123,67,o),
(125,71,o),
(124,72,qs),
(116,78,o),
(124,89,o),
(124,94,qs),
(125,329,ls),
(125,339,o),
(134,339,qs),
(277,339,ls),
(280,339,o),
(287,340,o),
(289,341,qs),
(301,348,o),
(296,358,o),
(287,361,qs),
(285,362,o),
(276,362,o),
(249,362,o),
(191,362,o),
(140,362,qs),
(136,362,o),
(126,374,o),
(127,375,qs),
(132,379,o),
(129,395,o),
(126,412,o),
(129,415,q),
(132,420,o),
(130,422,qs),
(124,428,o),
(124,436,qs),
(124,487,o),
(124,589,o),
(125,639,qs),
(125,649,o),
(132,642,qs),
(143,633,o),
(177,602,o),
(213,570,o),
(242,547,o),
(247,545,qs),
(251,544,o),
(255,534,o),
(258,531,qs),
(264,525,o),
(302,493,o),
(339,457,o),
(344,445,q),
(362,432,o),
(392,400,o),
(414,390,q),
(422,388,o),
(425,380,q),
(425,372,o),
(440,371,o),
(441,366,qs),
(443,361,o),
(449,354,o),
(455,353,qs),
(457,353,o),
(460,343,o),
(457,341,qs),
(432,319,o),
(382,273,o),
(357,250,q),
(348,249,o),
(339,236,o),
(333,232,q),
(325,229,o),
(313,218,o),
(307,213,qs),
(301,208,o),
(286,201,o),
(279,196,qs),
(274,193,o),
(240,163,o),
(199,125,o),
(168,94,o),
(165,89,qs),
(160,79,o),
(140,65,o),
(132,58,qs),
(123,50,o),
(118,47,o),
(117,51,qs),
(116,56,o)
);
}
);
userData = {
assembly = "NPUSHB[ ]	/* 62 values pushed */
125 1 1 2 185 182 21 13 4 5 0 1 2 76 164 158 156 37 4 3 74 0 3 2 3 133 4 1 2 5 1 1 0 2 1 105 6 1 0 0 38 0 78 1 0 180 177 171 166 133 132 31 27 25 23 0 101 1 101 7 8 22 
CALL[ ]	/* CallFunction */";
};
width = 502;
}
);
note = Eth;
unicode = 208;
},
{
glyphname = Dcaron;
kernRight = D;
layers = (
{
layerId = m01;
shapes = (
{
closed = 1;
nodes = (
(76,-33,o),
(82,-31,q),
(89,-27,o),
(93,-20,qs),
(95,-16,o),
(135,23,o),
(196,82,o),
(264,146,o),
(326,202,o),
(367,238,o),
(370,238,q),
(383,249,o),
(422,288,o),
(453,323,o),
(453,326,qs),
(453,334,o),
(433,351,o),
(410,368,o),
(406,375,qs),
(402,383,o),
(385,397,o),
(377,403,qs),
(348,426,o),
(300,489,o),
(260,523,qs),
(253,529,o),
(237,538,o),
(232,545,qs),
(229,549,o),
(203,576,o),
(167,610,o),
(132,640,o),
(119,647,q),
(121,656,o),
(104,659,o),
(103,663,q),
(103,670,o),
(86,684,o),
(67,696,o),
(64,698,qs),
(60,701,o),
(52,698,o),
(49,696,q),
(43,680,o),
(39,658,o),
(48,647,q),
(55,632,o),
(46,620,qs),
(36,605,o),
(45,594,qs),
(51,588,o),
(49,574,o),
(49,567,q),
(40,558,o),
(40,512,o),
(47,499,q),
(45,498,o),
(42,469,o),
(41,433,o),
(42,403,o),
(44,400,q),
(50,394,o),
(39,385,o),
(41,380,qs),
(43,373,o),
(50,356,o),
(45,351,q),
(48,303,l),
(44,298,o),
(44,292,qs),
(44,287,o),
(50,277,o),
(50,270,qs),
(50,264,o),
(42,252,o),
(44,248,qs),
(47,243,o),
(49,231,o),
(49,226,qs),
(49,153,ls),
(49,149,o),
(50,139,o),
(48,137,qs),
(44,133,o),
(41,122,o),
(41,116,qs),
(41,-23,ls),
(41,-33,o),
(48,-38,o),
(59,-38,qs),
(66,-39,o)
);
},
{
closed = 1;
nodes = (
(71,26,o),
(73,30,qs),
(74,32,o),
(76,36,o),
(75,37,qs),
(67,43,o),
(75,55,o),
(75,60,qs),
(76,308,ls),
(76,311,o),
(75,337,o),
(75,370,o),
(77,397,o),
(80,399,q),
(83,404,o),
(81,406,qs),
(75,414,o),
(75,421,qs),
(75,475,o),
(75,583,o),
(76,636,qs),
(76,642,o),
(80,647,o),
(83,644,qs),
(94,634,o),
(128,602,o),
(164,568,o),
(193,543,o),
(198,541,qs),
(202,540,o),
(206,530,o),
(209,527,qs),
(215,521,o),
(253,486,o),
(290,448,o),
(295,436,q),
(313,423,o),
(335,388,o),
(357,378,qs),
(360,377,o),
(367,369,o),
(368,367,q),
(368,359,o),
(383,357,o),
(384,352,qs),
(386,347,o),
(403,338,o),
(408,335,qs),
(412,333,o),
(414,324,o),
(406,316,qs),
(381,292,o),
(325,238,o),
(300,214,q),
(291,213,o),
(282,199,o),
(276,195,q),
(268,192,o),
(256,180,o),
(250,175,qs),
(244,169,o),
(224,146,o),
(217,141,qs),
(212,137,o),
(182,111,o),
(146,77,o),
(119,49,o),
(116,44,qs),
(111,34,o),
(91,19,o),
(83,11,qs),
(74,3,o),
(69,3,o),
(68,7,qs),
(67,12,o)
);
},
{
closed = 1;
nodes = (
(231,320,o),
(238,328,qs),
(246,340,o),
(238,351,qs),
(226,366,o),
(209,365,qs),
(190,365,o),
(169,348,o),
(169,336,qs),
(169,329,o),
(183,304,o),
(201,304,qs),
(212,304,o)
);
},
{
closed = 1;
nodes = (
(197,334,o),
(197,335,qs),
(197,342,o),
(207,342,q),
(211,343,o),
(214,339,qs),
(216,335,o),
(214,333,qs),
(210,327,o),
(204,327,qs),
(200,327,o)
);
},
{
closed = 1;
nodes = (
(272,836,o),
(269,832,qs),
(267,830,o),
(254,813,o),
(252,811,qs),
(250,808,o),
(243,797,o),
(241,796,qs),
(235,793,o),
(231,793,o),
(226,795,q),
(222,800,o),
(200,820,o),
(173,843,o),
(150,859,o),
(145,859,q),
(137,861,o),
(125,859,o),
(129,850,q),
(135,844,o),
(147,831,o),
(151,824,q),
(156,821,o),
(168,806,o),
(174,803,q),
(182,796,o),
(189,787,o),
(196,781,qs),
(204,774,o),
(220,760,o),
(224,749,qs),
(226,745,o),
(234,744,o),
(236,748,q),
(247,760,o),
(278,794,o),
(308,829,o),
(328,852,o),
(327,853,qs),
(325,855,o),
(319,860,o),
(317,860,q),
(312,862,o),
(305,860,q),
(291,853,o)
);
}
);
userData = {
assembly = "NPUSHB[ ]	/* 21 values pushed */
181 23 2 3 2 160 157 22 11 4 5 0 1 2 76 149 147 26 3 2 74 
MPPEM[ ]	/* MeasurePixelPerEm */
PUSHB[ ]	/* 1 value pushed */
33 
LT[ ]	/* LessThan */
IF[ ]	/* If */
NPUSHB[ ]	/* 31 values pushed */
0 2 3 3 2 112 4 1 0 1 0 134 6 1 3 1 1 3 89 6 1 3 3 1 98 5 1 1 3 1 82 
ELSE[ ]	/* Else */
NPUSHB[ ]	/* 30 values pushed */
0 2 3 2 133 4 1 0 1 0 134 6 1 3 1 1 3 89 6 1 3 3 1 98 5 1 1 3 1 82 
EIF[ ]	/* EndIf */
NPUSHB[ ]	/* 23 values pushed */
180 179 167 166 1 0 179 189 180 189 173 171 166 178 167 178 0 90 1 90 7 8 22 
CALL[ ]	/* CallFunction */";
};
width = 453;
}
);
note = Dcaron;
unicode = 270;
},
{
glyphname = uni1E10;
kernRight = D;
layers = (
{
layerId = m01;
shapes = (
{
closed = 1;
nodes = (
(76,-33,o),
(82,-31,q),
(89,-27,o),
(93,-20,qs),
(95,-16,o),
(135,23,o),
(196,82,o),
(264,146,o),
(326,202,o),
(367,238,o),
(370,238,q),
(383,249,o),
(422,288,o),
(453,323,o),
(453,326,qs),
(453,334,o),
(433,351,o),
(410,368,o),
(406,375,qs),
(402,383,o),
(385,397,o),
(377,403,qs),
(348,426,o),
(300,489,o),
(260,523,qs),
(253,529,o),
(237,538,o),
(232,545,qs),
(229,549,o),
(203,576,o),
(167,610,o),
(132,640,o),
(119,647,q),
(121,656,o),
(104,659,o),
(103,663,q),
(103,670,o),
(86,684,o),
(67,696,o),
(64,698,qs),
(60,701,o),
(52,698,o),
(49,696,q),
(43,680,o),
(39,658,o),
(48,647,q),
(55,632,o),
(46,620,qs),
(36,605,o),
(45,594,qs),
(51,588,o),
(49,574,o),
(49,567,q),
(40,558,o),
(40,512,o),
(47,499,q),
(45,498,o),
(42,469,o),
(41,433,o),
(42,403,o),
(44,400,q),
(50,394,o),
(39,385,o),
(41,380,qs),
(43,373,o),
(50,356,o),
(45,351,q),
(48,303,l),
(44,298,o),
(44,292,qs),
(44,287,o),
(50,277,o),
(50,270,qs),
(50,264,o),
(42,252,o),
(44,248,qs),
(47,243,o),
(49,231,o),
(49,226,qs),
(49,153,ls),
(49,149,o),
(50,139,o),
(48,137,qs),
(44,133,o),
(41,122,o),
(41,116,qs),
(41,-23,ls),
(41,-33,o),
(48,-38,o),
(59,-38,qs),
(66,-39,o)
);
},
{
closed = 1;
nodes = (
(71,26,o),
(73,30,qs),
(74,32,o),
(76,36,o),
(75,37,qs),
(67,43,o),
(75,55,o),
(75,60,qs),
(76,308,ls),
(76,311,o),
(75,337,o),
(75,370,o),
(77,397,o),
(80,399,q),
(83,404,o),
(81,406,qs),
(75,414,o),
(75,421,qs),
(75,475,o),
(75,583,o),
(76,636,qs),
(76,642,o),
(80,647,o),
(83,644,qs),
(94,634,o),
(128,602,o),
(164,568,o),
(193,543,o),
(198,541,qs),
(202,540,o),
(206,530,o),
(209,527,qs),
(215,521,o),
(253,486,o),
(290,448,o),
(295,436,q),
(313,423,o),
(335,388,o),
(357,378,qs),
(360,377,o),
(367,369,o),
(368,367,q),
(368,359,o),
(383,357,o),
(384,352,qs),
(386,347,o),
(403,338,o),
(408,335,qs),
(412,333,o),
(414,324,o),
(406,316,qs),
(381,292,o),
(325,238,o),
(300,214,q),
(291,213,o),
(282,199,o),
(276,195,q),
(268,192,o),
(256,180,o),
(250,175,qs),
(244,169,o),
(224,146,o),
(217,141,qs),
(212,137,o),
(182,111,o),
(146,77,o),
(119,49,o),
(116,44,qs),
(111,34,o),
(91,19,o),
(83,11,qs),
(74,3,o),
(69,3,o),
(68,7,qs),
(67,12,o)
);
},
{
closed = 1;
nodes = (
(231,320,o),
(238,328,qs),
(246,340,o),
(238,351,qs),
(226,366,o),
(209,365,qs),
(190,365,o),
(169,348,o),
(169,336,qs),
(169,329,o),
(183,304,o),
(201,304,qs),
(212,304,o)
);
},
{
closed = 1;
nodes = (
(197,334,o),
(197,335,qs),
(197,342,o),
(207,342,q),
(211,343,o),
(214,339,qs),
(216,335,o),
(214,333,qs),
(210,327,o),
(204,327,qs),
(200,327,o)
);
},
{
closed = 1;
nodes = (
(171,-201,o),
(173,-198,q),
(177,-198,o),
(194,-174,o),
(196,-172,q),
(205,-158,o),
(208,-143,o),
(215,-129,qs),
(221,-113,o),
(234,-102,qs),
(247,-91,o),
(251,-65,o),
(252,-48,qs),
(253,-37,o),
(246,-27,o),
(240,-31,q),
(235,-36,o),
(215,-51,o),
(213,-58,qs),
(210,-69,o),
(199,-91,o),
(193,-103,qs),
(185,-124,o),
(165,-159,o),
(151,-194,q),
(154,-199,o)
);
}
);
userData = {
assembly = "NPUSHB[ ]	/* 25 values pushed */
181 23 2 3 2 160 157 22 11 4 5 0 1 2 76 149 147 26 3 2 74 202 1 0 73 
MPPEM[ ]	/* MeasurePixelPerEm */
PUSHB[ ]	/* 1 value pushed */
33 
LT[ ]	/* LessThan */
IF[ ]	/* If */
NPUSHB[ ]	/* 31 values pushed */
0 2 3 3 2 112 4 1 0 1 0 134 6 1 3 1 1 3 89 6 1 3 3 1 98 5 1 1 3 1 82 
ELSE[ ]	/* Else */
NPUSHB[ ]	/* 30 values pushed */
0 2 3 2 133 4 1 0 1 0 134 6 1 3 1 1 3 89 6 1 3 3 1 98 5 1 1 3 1 82 
EIF[ ]	/* EndIf */
NPUSHB[ ]	/* 23 values pushed */
180 179 167 166 1 0 179 189 180 189 173 171 166 178 167 178 0 90 1 90 7 8 22 
CALL[ ]	/* CallFunction */";
};
width = 453;
}
);
note = uni1E10;
unicode = 7696;
},
{
glyphname = Dcroat;
kernRight = D;
layers = (
{
layerId = m01;
shapes = (
{
closed = 1;
nodes = (
(105,6,o),
(111,8,qs),
(118,10,o),
(122,18,qs),
(124,21,o),
(164,59,o),
(225,114,o),
(293,175,o),
(355,228,o),
(396,262,o),
(399,262,q),
(412,273,o),
(451,310,o),
(482,343,o),
(482,346,qs),
(482,353,o),
(462,369,o),
(439,386,o),
(435,392,qs),
(431,400,o),
(414,413,o),
(406,419,qs),
(377,441,o),
(329,501,o),
(289,532,qs),
(282,538,o),
(266,546,o),
(261,553,qs),
(258,557,o),
(232,583,o),
(196,615,o),
(161,644,o),
(148,650,q),
(150,658,o),
(133,661,o),
(132,665,q),
(132,672,o),
(115,685,o),
(96,696,o),
(93,698,qs),
(89,701,o),
(81,698,o),
(78,696,q),
(72,681,o),
(68,661,o),
(77,650,q),
(84,636,o),
(75,624,qs),
(65,610,o),
(74,600,qs),
(80,594,o),
(78,581,o),
(78,574,q),
(69,566,o),
(69,522,o),
(76,510,q),
(74,509,o),
(71,482,o),
(70,447,o),
(71,419,o),
(73,416,q),
(79,410,o),
(68,402,o),
(70,397,qs),
(72,390,o),
(79,374,o),
(74,369,qs),
(70,366,o),
(62,362,o),
(56,362,qs),
(46,362,o),
(17,362,o),
(7,361,qs),
(2,361,o),
(-1,347,o),
(4,333,o),
(9,333,qs),
(62,333,ls),
(67,333,o),
(80,320,o),
(77,318,q),
(73,313,o),
(73,308,qs),
(73,303,o),
(79,293,o),
(79,287,qs),
(79,281,o),
(71,270,o),
(73,266,qs),
(78,257,o),
(78,245,qs),
(78,182,ls),
(78,178,o),
(79,169,o),
(77,167,qs),
(73,163,o),
(70,152,o),
(70,147,qs),
(70,15,ls),
(70,6,o),
(77,1,o),
(88,1,qs),
(95,0,o)
);
},
{
closed = 1;
nodes = (
(100,61,o),
(102,65,qs),
(103,67,o),
(105,71,o),
(104,72,qs),
(96,78,o),
(104,89,o),
(104,94,qs),
(105,323,ls),
(105,333,o),
(114,333,qs),
(237,333,ls),
(240,333,o),
(247,334,o),
(249,335,qs),
(261,342,o),
(256,358,o),
(247,361,qs),
(245,362,o),
(230,362,o),
(178,362,o),
(120,362,qs),
(116,362,o),
(106,374,o),
(107,375,qs),
(112,379,o),
(109,395,o),
(106,412,o),
(109,415,q),
(112,420,o),
(110,422,qs),
(104,428,o),
(104,436,qs),
(104,487,o),
(104,589,o),
(105,639,qs),
(105,649,o),
(112,642,qs),
(123,633,o),
(157,602,o),
(193,570,o),
(222,547,o),
(227,545,qs),
(231,544,o),
(235,534,o),
(238,531,qs),
(244,525,o),
(282,493,o),
(319,457,o),
(324,445,q),
(342,432,o),
(372,400,o),
(394,390,q),
(402,388,o),
(405,380,q),
(405,372,o),
(420,371,o),
(421,366,qs),
(423,361,o),
(429,354,o),
(435,353,qs),
(437,353,o),
(440,343,o),
(437,341,qs),
(412,319,o),
(362,273,o),
(337,250,q),
(328,249,o),
(319,236,o),
(313,232,q),
(305,229,o),
(293,218,o),
(287,213,qs),
(281,208,o),
(266,201,o),
(259,196,qs),
(254,193,o),
(220,163,o),
(179,125,o),
(148,94,o),
(145,89,qs),
(140,79,o),
(120,65,o),
(112,58,qs),
(103,50,o),
(98,47,o),
(97,51,qs),
(96,56,o)
);
}
);
userData = {
assembly = "NPUSHB[ ]	/* 62 values pushed */
126 1 1 2 185 182 21 13 4 5 0 1 2 76 165 159 157 38 4 3 74 0 3 2 3 133 4 1 2 5 1 1 0 2 1 105 6 1 0 0 38 0 78 1 0 180 177 171 167 134 133 32 28 25 23 0 102 1 102 7 8 22 
CALL[ ]	/* CallFunction */";
};
width = 482;
}
);
note = Dcroat;
unicode = 272;
},
{
glyphname = uni018A;
layers = (
{
layerId = m01;
shapes = (
{
closed = 1;
nodes = (
(166,-33,o),
(172,-31,q),
(179,-27,o),
(183,-20,qs),
(185,-16,o),
(225,23,o),
(286,82,o),
(354,146,o),
(416,202,o),
(457,238,o),
(460,238,q),
(473,249,o),
(512,288,o),
(543,323,o),
(543,326,qs),
(543,334,o),
(523,351,o),
(500,368,o),
(496,375,qs),
(492,383,o),
(475,397,o),
(467,403,qs),
(438,426,o),
(390,489,o),
(350,523,qs),
(343,529,o),
(327,538,o),
(322,545,qs),
(319,549,o),
(293,576,o),
(257,610,o),
(222,640,o),
(209,647,q),
(211,656,o),
(194,659,o),
(193,663,q),
(193,670,o),
(176,684,o),
(157,696,o),
(154,698,qs),
(151,700,o),
(147,700,q),
(132,706,o),
(115,699,qs),
(111,698,o),
(81,698,o),
(76,698,qs),
(44,698,ls),
(16,697,o),
(3,663,o),
(1,638,qs),
(0,628,o),
(6,607,o),
(1,600,qs),
(-1,596,o),
(2,577,o),
(2,574,qs),
(2,562,o),
(28,562,o),
(28,568,q),
(33,574,o),
(32,606,o),
(32,642,o),
(44,668,o),
(61,667,qs),
(66,667,o),
(89,669,o),
(94,667,q),
(100,666,o),
(105,668,o),
(116,669,o),
(131,668,q),
(130,657,o),
(138,647,q),
(145,632,o),
(136,620,qs),
(126,605,o),
(135,594,qs),
(141,588,o),
(139,574,o),
(139,567,q),
(130,558,o),
(130,512,o),
(137,499,q),
(135,498,o),
(132,469,o),
(131,433,o),
(132,403,o),
(134,400,q),
(140,394,o),
(129,385,o),
(131,380,qs),
(133,373,o),
(140,356,o),
(135,351,q),
(138,303,l),
(134,298,o),
(134,292,qs),
(134,287,o),
(140,277,o),
(140,270,qs),
(140,264,o),
(132,252,o),
(134,248,qs),
(137,243,o),
(139,231,o),
(139,226,qs),
(139,153,ls),
(139,149,o),
(140,139,o),
(138,137,qs),
(134,133,o),
(131,122,o),
(131,116,qs),
(131,-23,ls),
(131,-33,o),
(138,-38,o),
(149,-38,qs),
(156,-39,o)
);
},
{
closed = 1;
nodes = (
(161,26,o),
(163,30,qs),
(164,32,o),
(166,36,o),
(165,37,qs),
(157,43,o),
(165,55,o),
(165,60,qs),
(166,308,ls),
(166,311,o),
(165,337,o),
(165,370,o),
(167,397,o),
(170,399,q),
(173,404,o),
(171,406,qs),
(165,414,o),
(165,421,qs),
(165,475,o),
(165,583,o),
(166,636,qs),
(166,642,o),
(170,647,o),
(173,644,qs),
(184,634,o),
(218,602,o),
(254,568,o),
(283,543,o),
(288,541,qs),
(292,540,o),
(296,530,o),
(299,527,qs),
(305,521,o),
(343,486,o),
(380,448,o),
(385,436,q),
(403,423,o),
(425,388,o),
(447,378,qs),
(450,377,o),
(457,369,o),
(458,367,q),
(458,359,o),
(473,357,o),
(474,352,qs),
(476,347,o),
(493,338,o),
(498,335,qs),
(502,333,o),
(504,324,o),
(496,316,qs),
(471,292,o),
(415,238,o),
(390,214,q),
(381,213,o),
(372,199,o),
(366,195,q),
(358,192,o),
(346,180,o),
(340,175,qs),
(334,169,o),
(314,146,o),
(307,141,qs),
(302,137,o),
(272,111,o),
(236,77,o),
(209,49,o),
(206,44,qs),
(201,34,o),
(181,19,o),
(173,11,qs),
(164,3,o),
(159,3,o),
(158,7,qs),
(157,12,o)
);
},
{
closed = 1;
nodes = (
(321,320,o),
(328,328,qs),
(336,340,o),
(328,351,qs),
(316,366,o),
(299,365,qs),
(280,365,o),
(259,348,o),
(259,336,qs),
(259,329,o),
(273,304,o),
(291,304,qs),
(302,304,o)
);
},
{
closed = 1;
nodes = (
(287,334,o),
(287,335,qs),
(287,342,o),
(297,342,q),
(301,343,o),
(304,339,qs),
(306,335,o),
(304,333,qs),
(300,327,o),
(294,327,qs),
(290,327,o)
);
}
);
userData = {
assembly = "NPUSHB[ ]	/* 22 values pushed */
177 175 61 26 4 5 1 209 23 2 6 5 188 185 22 11 4 5 0 4 3 76 
MPPEM[ ]	/* MeasurePixelPerEm */
PUSHB[ ]	/* 1 value pushed */
33 
LT[ ]	/* LessThan */
IF[ ]	/* If */
NPUSHB[ ]	/* 35 values pushed */
0 5 1 6 6 5 114 7 1 0 4 0 134 9 1 6 8 1 4 0 6 4 106 2 1 1 1 3 97 0 3 3 39 1 78 
ELSE[ ]	/* Else */
NPUSHB[ ]	/* 36 values pushed */
0 5 1 6 1 5 6 128 7 1 0 4 0 134 9 1 6 8 1 4 0 6 4 106 2 1 1 1 3 97 0 3 3 39 1 78 
EIF[ ]	/* EndIf */
NPUSHB[ ]	/* 29 values pushed */
208 207 195 194 1 0 207 217 208 217 201 199 194 206 195 206 73 69 54 50 47 46 0 118 1 118 10 8 22 
CALL[ ]	/* CallFunction */";
};
width = 543;
}
);
note = uni018A;
unicode = 394;
},
{
glyphname = Dtail;
layers = (
{
layerId = m01;
shapes = (
{
closed = 1;
nodes = (
(80,-33,o),
(86,-31,q),
(93,-27,o),
(97,-20,qs),
(99,-16,o),
(139,23,o),
(200,82,o),
(268,146,o),
(330,202,o),
(371,238,o),
(374,238,q),
(387,249,o),
(426,288,o),
(457,323,o),
(457,326,qs),
(457,334,o),
(437,351,o),
(414,368,o),
(410,375,qs),
(406,383,o),
(389,397,o),
(381,403,qs),
(352,426,o),
(304,489,o),
(264,523,qs),
(257,529,o),
(241,538,o),
(236,545,qs),
(233,549,o),
(207,576,o),
(171,610,o),
(136,640,o),
(123,647,q),
(125,656,o),
(108,659,o),
(107,663,q),
(107,670,o),
(90,684,o),
(71,696,o),
(68,698,qs),
(64,701,o),
(56,698,o),
(53,696,q),
(47,680,o),
(43,658,o),
(52,647,q),
(59,632,o),
(50,620,qs),
(40,605,o),
(49,594,qs),
(55,588,o),
(53,574,o),
(53,567,q),
(44,558,o),
(44,512,o),
(51,499,q),
(49,498,o),
(46,469,o),
(45,433,o),
(46,403,o),
(48,400,q),
(54,394,o),
(43,385,o),
(45,380,qs),
(47,373,o),
(54,356,o),
(49,351,q),
(49,345,l),
(38,345,o),
(19,348,o),
(11,354,q),
(-38,348,ls),
(-39,348,o),
(-53,341,o),
(-62,330,o),
(-52,322,o),
(-29,320,qs),
(-15,319,o),
(31,320,o),
(51,319,q),
(52,303,l),
(48,298,o),
(48,292,qs),
(48,287,o),
(54,277,o),
(54,270,qs),
(54,264,o),
(46,252,o),
(48,248,qs),
(51,243,o),
(53,231,o),
(53,226,qs),
(53,153,ls),
(53,149,o),
(54,139,o),
(52,137,qs),
(48,133,o),
(45,122,o),
(45,116,qs),
(45,-23,ls),
(45,-33,o),
(52,-38,o),
(63,-38,qs),
(70,-39,o)
);
},
{
closed = 1;
nodes = (
(75,26,o),
(77,30,qs),
(78,32,o),
(80,36,o),
(79,37,qs),
(71,43,o),
(79,55,o),
(79,60,qs),
(80,308,ls),
(80,309,o),
(80,315,q),
(80,315,l),
(85,312,o),
(112,312,o),
(119,314,qs),
(131,319,o),
(146,344,o),
(135,350,q),
(133,352,o),
(115,355,o),
(113,353,q),
(106,349,o),
(89,346,o),
(79,346,q),
(79,363,o),
(81,396,o),
(84,399,q),
(87,404,o),
(85,406,qs),
(79,414,o),
(79,421,qs),
(79,475,o),
(79,583,o),
(80,636,qs),
(80,642,o),
(84,647,o),
(87,644,qs),
(98,634,o),
(132,602,o),
(168,568,o),
(197,543,o),
(202,541,qs),
(206,540,o),
(210,530,o),
(213,527,qs),
(219,521,o),
(257,486,o),
(294,448,o),
(299,436,q),
(317,423,o),
(339,388,o),
(361,378,qs),
(364,377,o),
(371,369,o),
(372,367,q),
(372,359,o),
(387,357,o),
(388,352,qs),
(390,347,o),
(407,338,o),
(412,335,qs),
(416,333,o),
(418,324,o),
(410,316,qs),
(385,292,o),
(329,238,o),
(304,214,q),
(295,213,o),
(286,199,o),
(280,195,q),
(272,192,o),
(260,180,o),
(254,175,qs),
(248,169,o),
(228,146,o),
(221,141,qs),
(216,137,o),
(186,111,o),
(150,77,o),
(123,49,o),
(120,44,qs),
(115,34,o),
(95,19,o),
(87,11,qs),
(78,3,o),
(73,3,o),
(72,7,qs),
(71,12,o)
);
},
{
closed = 1;
nodes = (
(235,320,o),
(242,328,qs),
(250,340,o),
(242,351,qs),
(230,366,o),
(213,365,qs),
(194,365,o),
(173,348,o),
(173,336,qs),
(173,329,o),
(187,304,o),
(205,304,qs),
(216,304,o)
);
},
{
closed = 1;
nodes = (
(201,334,o),
(201,335,qs),
(201,342,o),
(211,342,q),
(215,343,o),
(218,339,qs),
(220,335,o),
(218,333,qs),
(214,327,o),
(208,327,qs),
(204,327,o)
);
}
);
userData = {
assembly = "NPUSHB[ ]	/* 28 values pushed */
32 1 4 7 207 1 8 2 182 1 6 5 186 183 22 11 4 5 0 6 4 76 162 160 39 3 7 74 
MPPEM[ ]	/* MeasurePixelPerEm */
PUSHB[ ]	/* 1 value pushed */
33 
LT[ ]	/* LessThan */
IF[ ]	/* If */
NPUSHB[ ]	/* 51 values pushed */
0 7 4 8 7 112 0 4 2 4 133 9 1 0 6 0 134 11 1 8 1 6 8 89 0 1 5 2 1 89 3 1 2 0 5 6 2 5 105 11 1 8 8 6 98 10 1 6 8 6 82 
ELSE[ ]	/* Else */
NPUSHB[ ]	/* 50 values pushed */
0 7 4 7 133 0 4 2 4 133 9 1 0 6 0 134 11 1 8 1 6 8 89 0 1 5 2 1 89 3 1 2 0 5 6 2 5 105 11 1 8 8 6 98 10 1 6 8 6 82 
EIF[ ]	/* EndIf */
NPUSHB[ ]	/* 33 values pushed */
206 205 193 192 1 0 205 215 206 215 199 197 192 204 193 204 178 177 172 170 168 167 35 34 25 23 0 103 1 103 12 8 22 
CALL[ ]	/* CallFunction */";
};
width = 457;
}
);
note = Dtail;
unicode = 393;
},
{
glyphname = E;
layers = (
{
layerId = m01;
shapes = (
{
closed = 1;
nodes = (
(372,1,o),
(374,2,q),
(382,10,o),
(377,36,o),
(367,36,qs),
(341,36,ls),
(338,36,o),
(304,34,o),
(257,33,o),
(209,32,o),
(175,33,o),
(173,34,qs),
(166,38,o),
(154,36,o),
(148,34,qs),
(145,33,o),
(138,35,o),
(136,35,qs),
(123,37,o),
(98,43,o),
(86,34,q),
(82,32,o),
(74,37,o),
(74,41,qs),
(74,298,ls),
(74,302,o),
(73,311,o),
(75,314,qs),
(83,325,o),
(83,339,qs),
(83,523,ls),
(83,531,o),
(79,545,o),
(74,551,q),
(74,565,o),
(81,575,o),
(81,582,q),
(77,588,o),
(73,614,o),
(74,645,qs),
(74,666,o),
(97,666,qs),
(336,660,ls),
(363,659,o),
(381,669,o),
(381,681,qs),
(381,691,o),
(371,691,qs),
(343,692,o),
(322,691,o),
(318,694,qs),
(313,697,o),
(214,698,o),
(101,697,q),
(95,692,o),
(87,697,q),
(83,701,o),
(76,699,qs),
(63,694,o),
(35,679,o),
(43,667,q),
(47,665,o),
(47,661,qs),
(44,617,o),
(42,571,o),
(45,550,o),
(48,544,q),
(48,527,o),
(49,469,o),
(48,452,qs),
(48,448,o),
(42,440,o),
(43,438,qs),
(47,433,o),
(43,424,q),
(37,415,o),
(43,405,qs),
(45,401,o),
(48,394,o),
(48,390,qs),
(48,384,o),
(48,346,o),
(47,300,o),
(46,266,o),
(45,264,qs),
(40,252,o),
(40,244,qs),
(40,219,o),
(40,141,o),
(41,62,o),
(40,37,qs),
(39,30,o),
(50,1,o),
(59,1,qs),
(66,1,o),
(93,0,o),
(118,0,o),
(120,-2,qs),
(125,-6,o),
(136,0,o),
(141,0,qs),
(152,0,l),
(308,3,ls),
(315,3,o),
(342,-1,o),
(353,-3,qs),
(356,-4,o)
);
},
{
closed = 1;
nodes = (
(151,260,o),
(187,291,o),
(225,324,o),
(239,336,qs),
(246,343,o),
(236,350,qs),
(228,357,o),
(219,369,o),
(214,374,qs),
(203,386,ls),
(199,391,o),
(189,400,o),
(184,407,qs),
(182,409,o),
(161,434,o),
(156,440,q),
(150,445,o),
(128,467,o),
(120,469,q),
(114,464,o),
(116,452,o),
(116,447,q),
(120,441,o),
(118,431,qs),
(117,421,ls),
(114,392,o),
(119,334,o),
(116,305,qs),
(115,299,o),
(119,288,o),
(118,282,qs),
(117,278,o),
(114,268,o),
(113,264,qs),
(113,260,o),
(113,254,o),
(114,250,qs),
(114,248,o),
(120,240,o),
(124,240,qs),
(126,240,o)
);
},
{
closed = 1;
nodes = (
(142,346,o),
(142,386,o),
(146,408,o),
(152,401,qs),
(195,353,l),
(200,349,o),
(200,345,o),
(196,339,qs),
(195,337,o),
(192,333,o),
(192,331,q),
(188,319,o),
(171,314,q),
(169,314,o),
(161,307,o),
(149,293,qs),
(147,291,o),
(143,292,q),
(144,304,o)
);
}
);
userData = {
assembly = "NPUSHB[ ]	/* 54 values pushed */
148 82 72 69 43 39 33 21 19 9 5 4 1 76 0 3 3 39 77 0 4 4 2 97 0 2 2 39 77 0 5 5 0 97 1 1 0 0 38 0 78 102 94 65 62 59 56 54 52 53 50 6 8 24 
CALL[ ]	/* CallFunction */";
};
width = 381;
}
);
note = E;
unicode = 69;
},
{
glyphname = Ecaron;
layers = (
{
layerId = m01;
shapes = (
{
closed = 1;
nodes = (
(372,1,o),
(374,2,q),
(382,10,o),
(377,36,o),
(367,36,qs),
(341,36,ls),
(338,36,o),
(304,34,o),
(257,33,o),
(209,32,o),
(175,33,o),
(173,34,qs),
(166,38,o),
(154,36,o),
(148,34,qs),
(145,33,o),
(138,35,o),
(136,35,qs),
(123,37,o),
(98,43,o),
(86,34,q),
(82,32,o),
(74,37,o),
(74,41,qs),
(74,298,ls),
(74,302,o),
(73,311,o),
(75,314,qs),
(83,325,o),
(83,339,qs),
(83,523,ls),
(83,531,o),
(79,545,o),
(74,551,q),
(74,565,o),
(81,575,o),
(81,582,q),
(77,588,o),
(73,614,o),
(74,645,qs),
(74,666,o),
(97,666,qs),
(336,660,ls),
(363,659,o),
(381,669,o),
(381,681,qs),
(381,691,o),
(371,691,qs),
(343,692,o),
(322,691,o),
(318,694,qs),
(313,697,o),
(214,698,o),
(101,697,q),
(95,692,o),
(87,697,q),
(83,701,o),
(76,699,qs),
(63,694,o),
(35,679,o),
(43,667,q),
(47,665,o),
(47,661,qs),
(44,617,o),
(42,571,o),
(45,550,o),
(48,544,q),
(48,527,o),
(49,469,o),
(48,452,qs),
(48,448,o),
(42,440,o),
(43,438,qs),
(47,433,o),
(43,424,q),
(37,415,o),
(43,405,qs),
(45,401,o),
(48,394,o),
(48,390,qs),
(48,384,o),
(48,346,o),
(47,300,o),
(46,266,o),
(45,264,qs),
(40,252,o),
(40,244,qs),
(40,219,o),
(40,141,o),
(41,62,o),
(40,37,qs),
(39,30,o),
(50,1,o),
(59,1,qs),
(66,1,o),
(93,0,o),
(118,0,o),
(120,-2,qs),
(125,-6,o),
(136,0,o),
(141,0,qs),
(152,0,l),
(308,3,ls),
(315,3,o),
(342,-1,o),
(353,-3,qs),
(356,-4,o)
);
},
{
closed = 1;
nodes = (
(151,260,o),
(187,291,o),
(225,324,o),
(239,336,qs),
(246,343,o),
(236,350,qs),
(228,357,o),
(219,369,o),
(214,374,qs),
(203,386,ls),
(199,391,o),
(189,400,o),
(184,407,qs),
(182,409,o),
(161,434,o),
(156,440,q),
(150,445,o),
(128,467,o),
(120,469,q),
(114,464,o),
(116,452,o),
(116,447,q),
(120,441,o),
(118,431,qs),
(117,421,ls),
(114,392,o),
(119,334,o),
(116,305,qs),
(115,299,o),
(119,288,o),
(118,282,qs),
(117,278,o),
(114,268,o),
(113,264,qs),
(113,260,o),
(113,254,o),
(114,250,qs),
(114,248,o),
(120,240,o),
(124,240,qs),
(126,240,o)
);
},
{
closed = 1;
nodes = (
(142,346,o),
(142,386,o),
(146,408,o),
(152,401,qs),
(195,353,l),
(200,349,o),
(200,345,o),
(196,339,qs),
(195,337,o),
(192,333,o),
(192,331,q),
(188,319,o),
(171,314,q),
(169,314,o),
(161,307,o),
(149,293,qs),
(147,291,o),
(143,292,q),
(144,304,o)
);
},
{
closed = 1;
nodes = (
(286,836,o),
(283,832,qs),
(281,830,o),
(268,813,o),
(266,811,qs),
(264,808,o),
(257,797,o),
(255,796,qs),
(249,793,o),
(245,793,o),
(240,795,q),
(236,800,o),
(214,820,o),
(187,843,o),
(164,859,o),
(159,859,q),
(151,861,o),
(139,859,o),
(143,850,q),
(149,844,o),
(161,831,o),
(165,824,q),
(170,821,o),
(182,806,o),
(188,803,q),
(196,796,o),
(203,787,o),
(210,781,qs),
(218,774,o),
(234,760,o),
(238,749,qs),
(240,745,o),
(248,744,o),
(250,748,q),
(261,760,o),
(292,794,o),
(322,829,o),
(342,852,o),
(341,853,qs),
(339,855,o),
(333,860,o),
(331,860,q),
(326,862,o),
(319,860,q),
(305,853,o)
);
}
);
userData = {
assembly = "NPUSHB[ ]	/* 54 values pushed */
148 82 72 69 43 39 33 21 19 9 5 4 1 76 0 3 3 39 77 0 4 4 2 97 0 2 2 39 77 0 5 5 0 97 1 1 0 0 38 0 78 102 94 65 62 59 56 54 52 53 50 6 8 24 
CALL[ ]	/* CallFunction */";
};
width = 381;
}
);
note = Ecaron;
unicode = 282;
},
{
glyphname = uni1EC0;
layers = (
{
layerId = m01;
shapes = (
{
closed = 1;
nodes = (
(372,1,o),
(374,2,q),
(382,10,o),
(377,36,o),
(367,36,qs),
(341,36,ls),
(338,36,o),
(304,34,o),
(257,33,o),
(209,32,o),
(175,33,o),
(173,34,qs),
(166,38,o),
(154,36,o),
(148,34,qs),
(145,33,o),
(138,35,o),
(136,35,qs),
(123,37,o),
(98,43,o),
(86,34,q),
(82,32,o),
(74,37,o),
(74,41,qs),
(74,298,ls),
(74,302,o),
(73,311,o),
(75,314,qs),
(83,325,o),
(83,339,qs),
(83,523,ls),
(83,531,o),
(79,545,o),
(74,551,q),
(74,565,o),
(81,575,o),
(81,582,q),
(77,588,o),
(73,614,o),
(74,645,qs),
(74,666,o),
(97,666,qs),
(336,660,ls),
(363,659,o),
(381,669,o),
(381,681,qs),
(381,691,o),
(371,691,qs),
(343,692,o),
(322,691,o),
(318,694,qs),
(313,697,o),
(214,698,o),
(101,697,q),
(95,692,o),
(87,697,q),
(83,701,o),
(76,699,qs),
(63,694,o),
(35,679,o),
(43,667,q),
(47,665,o),
(47,661,qs),
(44,617,o),
(42,571,o),
(45,550,o),
(48,544,q),
(48,527,o),
(49,469,o),
(48,452,qs),
(48,448,o),
(42,440,o),
(43,438,qs),
(47,433,o),
(43,424,q),
(37,415,o),
(43,405,qs),
(45,401,o),
(48,394,o),
(48,390,qs),
(48,384,o),
(48,346,o),
(47,300,o),
(46,266,o),
(45,264,qs),
(40,252,o),
(40,244,qs),
(40,219,o),
(40,141,o),
(41,62,o),
(40,37,qs),
(39,30,o),
(50,1,o),
(59,1,qs),
(66,1,o),
(93,0,o),
(118,0,o),
(120,-2,qs),
(125,-6,o),
(136,0,o),
(141,0,qs),
(152,0,l),
(308,3,ls),
(315,3,o),
(342,-1,o),
(353,-3,qs),
(356,-4,o)
);
},
{
closed = 1;
nodes = (
(151,260,o),
(187,291,o),
(225,324,o),
(239,336,qs),
(246,343,o),
(236,350,qs),
(228,357,o),
(219,369,o),
(214,374,qs),
(203,386,ls),
(199,391,o),
(189,400,o),
(184,407,qs),
(182,409,o),
(161,434,o),
(156,440,q),
(150,445,o),
(128,467,o),
(120,469,q),
(114,464,o),
(116,452,o),
(116,447,q),
(120,441,o),
(118,431,qs),
(117,421,ls),
(114,392,o),
(119,334,o),
(116,305,qs),
(115,299,o),
(119,288,o),
(118,282,qs),
(117,278,o),
(114,268,o),
(113,264,qs),
(113,260,o),
(113,254,o),
(114,250,qs),
(114,248,o),
(120,240,o),
(124,240,qs),
(126,240,o)
);
},
{
closed = 1;
nodes = (
(142,346,o),
(142,386,o),
(146,408,o),
(152,401,qs),
(195,353,l),
(200,349,o),
(200,345,o),
(196,339,qs),
(195,337,o),
(192,333,o),
(192,331,q),
(188,319,o),
(171,314,q),
(169,314,o),
(161,307,o),
(149,293,qs),
(147,291,o),
(143,292,q),
(144,304,o)
);
},
{
closed = 1;
nodes = (
(325,738,q),
(327,738,o),
(333,744,o),
(335,745,qs),
(336,746,o),
(316,769,o),
(286,804,o),
(255,838,o),
(244,850,q),
(242,854,o),
(234,853,o),
(232,849,qs),
(228,838,o),
(212,824,o),
(204,817,qs),
(197,811,o),
(190,802,o),
(182,795,q),
(176,792,o),
(164,777,o),
(159,774,q),
(155,767,o),
(143,754,o),
(137,748,q),
(133,739,o),
(145,738,o),
(153,739,qs),
(158,739,o),
(181,755,o),
(208,778,o),
(230,799,o),
(234,803,q),
(239,805,o),
(243,805,o),
(249,802,qs),
(251,801,o),
(258,790,o),
(260,787,q),
(262,786,o),
(275,768,o),
(277,766,qs),
(280,762,o),
(299,746,o),
(313,738,q),
(320,736,o)
);
},
{
closed = 1;
nodes = (
(266,910,o),
(255,920,qs),
(234,938,o),
(222,954,q),
(214,961,o),
(200,974,o),
(193,982,qs),
(189,987,o),
(180,997,o),
(173,998,q),
(171,1000,o),
(165,995,o),
(163,996,qs),
(160,998,o),
(149,987,o),
(150,984,qs),
(155,972,o),
(165,949,o),
(181,944,qs),
(187,942,o),
(198,934,o),
(202,929,qs),
(210,920,o),
(231,898,o),
(247,884,qs),
(265,871,o),
(293,876,o),
(297,880,q),
(287,890,o)
);
}
);
userData = {
assembly = "NPUSHB[ ]	/* 58 values pushed */
148 82 72 69 43 39 33 21 19 9 5 4 1 76 224 1 2 74 0 3 3 39 77 0 4 4 2 97 0 2 2 39 77 0 5 5 0 97 1 1 0 0 38 0 78 102 94 65 62 59 56 54 52 53 50 6 8 24 
CALL[ ]	/* CallFunction */";
};
width = 381;
}
);
note = uni1EC0;
unicode = 7872;
},
{
glyphname = Egrave;
layers = (
{
layerId = m01;
shapes = (
{
closed = 1;
nodes = (
(372,1,o),
(374,2,q),
(382,10,o),
(377,36,o),
(367,36,qs),
(341,36,ls),
(338,36,o),
(304,34,o),
(257,33,o),
(209,32,o),
(175,33,o),
(173,34,qs),
(166,38,o),
(154,36,o),
(148,34,qs),
(145,33,o),
(138,35,o),
(136,35,qs),
(123,37,o),
(98,43,o),
(86,34,q),
(82,32,o),
(74,37,o),
(74,41,qs),
(74,298,ls),
(74,302,o),
(73,311,o),
(75,314,qs),
(83,325,o),
(83,339,qs),
(83,523,ls),
(83,531,o),
(79,545,o),
(74,551,q),
(74,565,o),
(81,575,o),
(81,582,q),
(77,588,o),
(73,614,o),
(74,645,qs),
(74,666,o),
(97,666,qs),
(336,660,ls),
(363,659,o),
(381,669,o),
(381,681,qs),
(381,691,o),
(371,691,qs),
(343,692,o),
(322,691,o),
(318,694,qs),
(313,697,o),
(214,698,o),
(101,697,q),
(95,692,o),
(87,697,q),
(83,701,o),
(76,699,qs),
(63,694,o),
(35,679,o),
(43,667,q),
(47,665,o),
(47,661,qs),
(44,617,o),
(42,571,o),
(45,550,o),
(48,544,q),
(48,527,o),
(49,469,o),
(48,452,qs),
(48,448,o),
(42,440,o),
(43,438,qs),
(47,433,o),
(43,424,q),
(37,415,o),
(43,405,qs),
(45,401,o),
(48,394,o),
(48,390,qs),
(48,384,o),
(48,346,o),
(47,300,o),
(46,266,o),
(45,264,qs),
(40,252,o),
(40,244,qs),
(40,219,o),
(40,141,o),
(41,62,o),
(40,37,qs),
(39,30,o),
(50,1,o),
(59,1,qs),
(66,1,o),
(93,0,o),
(118,0,o),
(120,-2,qs),
(125,-6,o),
(136,0,o),
(141,0,qs),
(152,0,l),
(308,3,ls),
(315,3,o),
(342,-1,o),
(353,-3,qs),
(356,-4,o)
);
},
{
closed = 1;
nodes = (
(151,260,o),
(187,291,o),
(225,324,o),
(239,336,qs),
(246,343,o),
(236,350,qs),
(228,357,o),
(219,369,o),
(214,374,qs),
(203,386,ls),
(199,391,o),
(189,400,o),
(184,407,qs),
(182,409,o),
(161,434,o),
(156,440,q),
(150,445,o),
(128,467,o),
(120,469,q),
(114,464,o),
(116,452,o),
(116,447,q),
(120,441,o),
(118,431,qs),
(117,421,ls),
(114,392,o),
(119,334,o),
(116,305,qs),
(115,299,o),
(119,288,o),
(118,282,qs),
(117,278,o),
(114,268,o),
(113,264,qs),
(113,260,o),
(113,254,o),
(114,250,qs),
(114,248,o),
(120,240,o),
(124,240,qs),
(126,240,o)
);
},
{
closed = 1;
nodes = (
(142,346,o),
(142,386,o),
(146,408,o),
(152,401,qs),
(195,353,l),
(200,349,o),
(200,345,o),
(196,339,qs),
(195,337,o),
(192,333,o),
(192,331,q),
(188,319,o),
(171,314,q),
(169,314,o),
(161,307,o),
(149,293,qs),
(147,291,o),
(143,292,q),
(144,304,o)
);
},
{
closed = 1;
nodes = (
(265,792,o),
(254,802,qs),
(233,820,o),
(221,836,q),
(213,843,o),
(199,856,o),
(192,864,qs),
(188,869,o),
(179,879,o),
(172,880,q),
(170,882,o),
(164,877,o),
(162,878,qs),
(159,880,o),
(148,869,o),
(149,866,qs),
(154,854,o),
(164,831,o),
(180,826,qs),
(186,824,o),
(197,816,o),
(201,811,qs),
(209,802,o),
(230,780,o),
(246,766,qs),
(264,753,o),
(292,758,o),
(296,762,q),
(286,772,o)
);
}
);
userData = {
assembly = "NPUSHB[ ]	/* 58 values pushed */
148 82 72 69 43 39 33 21 19 9 5 4 1 76 179 1 2 74 0 3 3 39 77 0 4 4 2 97 0 2 2 39 77 0 5 5 0 97 1 1 0 0 38 0 78 102 94 65 62 59 56 54 52 53 50 6 8 24 
CALL[ ]	/* CallFunction */";
};
width = 381;
}
);
note = Egrave;
unicode = 200;
},
{
glyphname = uni1E14;
layers = (
{
layerId = m01;
shapes = (
{
closed = 1;
nodes = (
(372,1,o),
(374,2,q),
(382,10,o),
(377,36,o),
(367,36,qs),
(341,36,ls),
(338,36,o),
(304,34,o),
(257,33,o),
(209,32,o),
(175,33,o),
(173,34,qs),
(166,38,o),
(154,36,o),
(148,34,qs),
(145,33,o),
(138,35,o),
(136,35,qs),
(123,37,o),
(98,43,o),
(86,34,q),
(82,32,o),
(74,37,o),
(74,41,qs),
(74,298,ls),
(74,302,o),
(73,311,o),
(75,314,qs),
(83,325,o),
(83,339,qs),
(83,523,ls),
(83,531,o),
(79,545,o),
(74,551,q),
(74,565,o),
(81,575,o),
(81,582,q),
(77,588,o),
(73,614,o),
(74,645,qs),
(74,666,o),
(97,666,qs),
(336,660,ls),
(363,659,o),
(381,669,o),
(381,681,qs),
(381,691,o),
(371,691,qs),
(343,692,o),
(322,691,o),
(318,694,qs),
(313,697,o),
(214,698,o),
(101,697,q),
(95,692,o),
(87,697,q),
(83,701,o),
(76,699,qs),
(63,694,o),
(35,679,o),
(43,667,q),
(47,665,o),
(47,661,qs),
(44,617,o),
(42,571,o),
(45,550,o),
(48,544,q),
(48,527,o),
(49,469,o),
(48,452,qs),
(48,448,o),
(42,440,o),
(43,438,qs),
(47,433,o),
(43,424,q),
(37,415,o),
(43,405,qs),
(45,401,o),
(48,394,o),
(48,390,qs),
(48,384,o),
(48,346,o),
(47,300,o),
(46,266,o),
(45,264,qs),
(40,252,o),
(40,244,qs),
(40,219,o),
(40,141,o),
(41,62,o),
(40,37,qs),
(39,30,o),
(50,1,o),
(59,1,qs),
(66,1,o),
(93,0,o),
(118,0,o),
(120,-2,qs),
(125,-6,o),
(136,0,o),
(141,0,qs),
(152,0,l),
(308,3,ls),
(315,3,o),
(342,-1,o),
(353,-3,qs),
(356,-4,o)
);
},
{
closed = 1;
nodes = (
(151,260,o),
(187,291,o),
(225,324,o),
(239,336,qs),
(246,343,o),
(236,350,qs),
(228,357,o),
(219,369,o),
(214,374,qs),
(203,386,ls),
(199,391,o),
(189,400,o),
(184,407,qs),
(182,409,o),
(161,434,o),
(156,440,q),
(150,445,o),
(128,467,o),
(120,469,q),
(114,464,o),
(116,452,o),
(116,447,q),
(120,441,o),
(118,431,qs),
(117,421,ls),
(114,392,o),
(119,334,o),
(116,305,qs),
(115,299,o),
(119,288,o),
(118,282,qs),
(117,278,o),
(114,268,o),
(113,264,qs),
(113,260,o),
(113,254,o),
(114,250,qs),
(114,248,o),
(120,240,o),
(124,240,qs),
(126,240,o)
);
},
{
closed = 1;
nodes = (
(142,346,o),
(142,386,o),
(146,408,o),
(152,401,qs),
(195,353,l),
(200,349,o),
(200,345,o),
(196,339,qs),
(195,337,o),
(192,333,o),
(192,331,q),
(188,319,o),
(171,314,q),
(169,314,o),
(161,307,o),
(149,293,qs),
(147,291,o),
(143,292,q),
(144,304,o)
);
},
{
closed = 1;
nodes = (
(325,792,o),
(336,795,qs),
(339,796,o),
(339,809,o),
(336,809,qs),
(332,810,o),
(330,816,o),
(327,817,qs),
(324,818,o),
(318,819,o),
(313,819,qs),
(306,819,o),
(290,818,o),
(282,818,qs),
(252,818,ls),
(239,817,o),
(235,816,o),
(230,817,o),
(217,818,qs),
(150,818,l),
(150,811,o),
(158,799,o),
(175,794,q),
(176,793,o),
(191,792,o),
(194,792,qs),
(218,791,o),
(240,791,o),
(247,792,qs),
(255,794,o),
(270,791,o),
(277,788,qs),
(286,785,o),
(294,785,qs),
(305,785,o)
);
},
{
closed = 1;
nodes = (
(265,911,o),
(254,921,qs),
(233,939,o),
(221,955,q),
(213,962,o),
(199,975,o),
(192,983,qs),
(188,988,o),
(179,998,o),
(172,999,q),
(170,1001,o),
(164,996,o),
(162,997,qs),
(159,999,o),
(148,988,o),
(149,985,qs),
(154,973,o),
(164,950,o),
(180,945,qs),
(186,943,o),
(197,935,o),
(201,930,qs),
(209,921,o),
(230,899,o),
(246,885,qs),
(264,872,o),
(292,877,o),
(296,881,q),
(286,891,o)
);
}
);
userData = {
assembly = "NPUSHB[ ]	/* 86 values pushed */
148 82 72 69 43 39 33 21 19 9 5 4 1 76 214 1 7 74 0 6 9 7 6 89 8 1 7 10 1 9 2 7 9 105 0 3 3 39 77 0 4 4 2 97 0 2 2 39 77 0 5 5 0 97 1 1 0 0 38 0 78 167 167 167 201 167 201 191 186 185 183 177 172 102 94 65 62 59 56 54 52 53 50 11 8 24 
CALL[ ]	/* CallFunction */";
};
width = 381;
}
);
note = uni1E14;
unicode = 7700;
},
{
glyphname = uni0190;
layers = (
{
layerId = m01;
shapes = (
{
closed = 1;
nodes = (
(409,36,o),
(399,36,qs),
(373,36,ls),
(370,36,o),
(330,35,o),
(274,33,o),
(217,32,o),
(177,33,o),
(175,34,qs),
(168,38,o),
(156,36,o),
(150,34,qs),
(142,32,o),
(138,35,qs),
(130,40,o),
(113,34,o),
(97,25,o),
(88,26,qs),
(84,26,o),
(82,27,q),
(111,93,o),
(145,173,o),
(161,214,o),
(165,230,o),
(163,233,q),
(162,243,o),
(173,251,o),
(176,260,qs),
(188,299,o),
(204,330,o),
(216,342,o),
(222,354,q),
(229,352,o),
(230,354,q),
(235,359,o),
(244,356,o),
(249,357,qs),
(267,360,o),
(291,352,o),
(301,353,qs),
(318,356,o),
(344,365,o),
(344,372,qs),
(344,385,o),
(306,381,o),
(271,385,q),
(258,385,o),
(229,386,o),
(221,389,q),
(215,399,o),
(203,410,o),
(188,438,o),
(176,472,qs),
(173,480,o),
(161,488,o),
(162,497,q),
(164,501,o),
(139,546,o),
(98,620,o),
(77,664,q),
(94,663,o),
(123,665,o),
(136,665,qs),
(368,666,ls),
(395,666,o),
(413,675,o),
(413,687,qs),
(413,697,o),
(403,697,qs),
(375,698,o),
(354,697,o),
(350,700,qs),
(345,703,o),
(216,698,o),
(103,697,q),
(97,692,o),
(89,697,q),
(85,701,o),
(78,699,qs),
(67,695,o),
(39,686,o),
(40,677,q),
(39,667,o),
(61,629,o),
(86,589,o),
(88,575,q),
(91,566,o),
(107,529,o),
(124,494,o),
(126,487,q),
(131,484,o),
(149,457,o),
(168,423,o),
(183,393,o),
(185,387,qs),
(186,380,o),
(191,372,o),
(191,367,qs),
(191,364,o),
(175,329,o),
(153,284,o),
(133,248,o),
(127,244,q),
(125,237,o),
(109,198,o),
(93,157,o),
(90,147,qs),
(87,132,o),
(66,78,o),
(41,21,q),
(42,21,l),
(41,19,o),
(41,16,qs),
(41,-1,o),
(61,-1,qs),
(68,-1,o),
(91,1,o),
(113,3,o),
(115,1,qs),
(120,-3,o),
(138,0,o),
(143,0,qs),
(154,0,l),
(340,3,ls),
(345,3,o),
(376,2,o),
(405,1,o),
(406,2,qs),
(414,10,o)
);
}
);
userData = {
assembly = "NPUSHB[ ]	/* 69 values pushed */
46 1 5 3 91 85 2 7 6 108 15 2 0 7 3 76 116 1 7 1 75 0 6 5 7 5 6 7 128 0 5 5 3 97 4 1 3 3 37 77 0 7 7 0 97 2 1 2 0 0 38 0 78 127 119 82 80 68 63 60 57 55 53 33 35 96 8 8 25 
CALL[ ]	/* CallFunction */";
};
width = 423;
}
);
note = uni0190;
unicode = 400;
},
{
glyphname = uni018E;
layers = (
{
layerId = m01;
shapes = (
{
closed = 1;
nodes = (
(66,3,o),
(73,3,qs),
(229,0,l),
(240,0,ls),
(245,0,o),
(256,-6,o),
(261,-2,qs),
(264,0,o),
(288,0,o),
(316,1,o),
(322,1,qs),
(331,1,o),
(342,30,o),
(341,37,q),
(341,62,o),
(341,141,o),
(341,219,o),
(341,244,qs),
(341,252,o),
(336,264,qs),
(335,266,o),
(334,300,o),
(333,346,o),
(333,384,o),
(333,390,qs),
(333,394,o),
(337,401,o),
(338,405,q),
(344,415,o),
(338,424,q),
(334,433,o),
(338,438,qs),
(339,440,o),
(333,448,o),
(333,452,qs),
(332,469,o),
(333,527,o),
(333,544,q),
(337,550,o),
(339,571,o),
(338,617,o),
(334,661,qs),
(334,665,o),
(338,667,q),
(346,679,o),
(319,694,o),
(305,699,qs),
(298,701,o),
(294,697,q),
(286,692,o),
(280,697,q),
(167,698,o),
(68,697,o),
(63,694,qs),
(59,691,o),
(38,692,o),
(10,691,qs),
(0,691,o),
(0,681,qs),
(0,669,o),
(18,659,o),
(45,660,qs),
(284,666,ls),
(307,666,o),
(307,645,qs),
(308,614,o),
(305,588,o),
(300,582,q),
(300,575,o),
(307,565,o),
(307,551,q),
(302,545,o),
(298,531,o),
(298,523,qs),
(298,339,ls),
(298,325,o),
(306,314,qs),
(308,311,o),
(307,302,o),
(307,298,qs),
(307,41,ls),
(307,37,o),
(299,32,o),
(295,34,q),
(283,43,o),
(258,37,o),
(245,35,qs),
(243,35,o),
(236,33,o),
(233,34,qs),
(227,36,o),
(216,38,o),
(208,34,qs),
(206,33,o),
(172,32,o),
(124,33,o),
(77,34,o),
(43,36,o),
(40,36,qs),
(14,36,ls),
(4,36,o),
(0,10,o),
(7,2,q),
(9,1,o),
(25,-4,o),
(28,-3,qs),
(39,-1,o)
);
},
{
closed = 1;
nodes = (
(267,248,o),
(267,250,q),
(269,254,o),
(268,260,o),
(268,264,qs),
(267,268,o),
(264,278,o),
(263,282,qs),
(262,288,o),
(266,299,o),
(265,305,qs),
(262,334,o),
(267,392,o),
(264,421,qs),
(263,431,ls),
(261,441,o),
(265,447,q),
(265,452,o),
(267,464,o),
(261,469,q),
(254,467,o),
(231,445,o),
(225,440,q),
(221,434,o),
(199,409,o),
(197,407,qs),
(192,400,o),
(183,391,o),
(178,386,qs),
(167,374,ls),
(162,369,o),
(153,357,o),
(145,350,qs),
(135,343,o),
(142,336,qs),
(156,324,o),
(194,291,o),
(230,260,o),
(256,240,o),
(257,240,qs),
(262,240,o)
);
},
{
closed = 1;
nodes = (
(232,293,qs),
(220,307,o),
(212,314,o),
(210,314,q),
(193,319,o),
(189,331,q),
(189,333,o),
(186,337,o),
(185,339,qs),
(181,345,o),
(182,349,o),
(186,353,qs),
(229,401,ls),
(235,408,o),
(239,386,o),
(239,346,o),
(237,304,o),
(238,292,q),
(234,291,o)
);
}
);
userData = {
assembly = "NPUSHB[ ]	/* 66 values pushed */
92 71 68 64 35 32 26 7 0 1 1 76 22 1 0 1 75 59 1 3 74 0 1 4 73 0 2 2 39 77 0 1 1 3 97 0 3 3 39 77 0 0 0 4 97 5 1 4 4 38 4 78 104 101 98 94 55 53 51 48 45 42 117 6 8 23 
CALL[ ]	/* CallFunction */";
};
width = 381;
}
);
note = uni018E;
unicode = 398;
},
{
glyphname = uni01A9;
layers = (
{
layerId = m01;
shapes = (
{
closed = 1;
nodes = (
(376,2,o),
(405,1,o),
(406,2,qs),
(414,10,o),
(409,36,o),
(399,36,qs),
(373,36,ls),
(370,36,o),
(330,35,o),
(274,33,o),
(217,32,o),
(177,33,o),
(175,34,qs),
(168,38,o),
(156,36,o),
(150,34,qs),
(142,32,o),
(138,35,qs),
(130,40,o),
(113,34,o),
(97,25,o),
(88,26,qs),
(84,26,o),
(82,27,q),
(111,93,o),
(145,173,o),
(161,214,o),
(165,230,o),
(163,233,q),
(162,243,o),
(173,251,o),
(176,260,qs),
(188,299,o),
(204,330,o),
(216,342,o),
(222,354,q),
(230,364,o),
(229,386,o),
(221,389,q),
(215,399,o),
(203,410,o),
(188,438,o),
(176,472,qs),
(173,480,o),
(161,488,o),
(162,497,q),
(164,501,o),
(139,546,o),
(98,620,o),
(77,664,q),
(94,663,o),
(123,665,o),
(136,665,qs),
(368,666,ls),
(395,666,o),
(413,675,o),
(413,687,qs),
(413,697,o),
(403,697,qs),
(375,698,o),
(354,697,o),
(350,700,qs),
(345,703,o),
(216,698,o),
(103,697,q),
(97,692,o),
(89,697,q),
(85,701,o),
(78,699,qs),
(67,695,o),
(39,686,o),
(40,677,q),
(39,667,o),
(61,629,o),
(86,589,o),
(88,575,q),
(91,566,o),
(107,529,o),
(124,494,o),
(126,487,q),
(131,484,o),
(149,457,o),
(168,423,o),
(183,393,o),
(185,387,qs),
(186,380,o),
(191,372,o),
(191,367,qs),
(191,364,o),
(175,329,o),
(153,284,o),
(133,248,o),
(127,244,q),
(125,237,o),
(109,198,o),
(93,157,o),
(90,147,qs),
(87,132,o),
(66,78,o),
(41,21,q),
(42,21,l),
(41,19,o),
(41,16,qs),
(41,-1,o),
(61,-1,qs),
(68,-1,o),
(91,1,o),
(113,3,o),
(115,1,qs),
(120,-3,o),
(138,0,o),
(143,0,qs),
(154,0,l),
(340,3,ls),
(345,3,o)
);
}
);
userData = {
assembly = "NPUSHB[ ]	/* 62 values pushed */
42 1 5 3 90 11 2 0 6 2 76 98 1 6 1 75 0 5 5 3 97 4 1 3 3 37 77 0 6 6 0 97 2 1 7 3 0 0 38 0 78 2 0 109 101 64 59 56 53 51 49 10 8 7 5 0 114 2 111 8 8 22 
CALL[ ]	/* CallFunction */";
};
width = 413;
}
);
note = uni01A9;
unicode = 425;
},
{
glyphname = uni0246;
layers = (
{
layerId = m01;
shapes = (
{
closed = 1;
nodes = (
(92,-25,o),
(99,-13,o),
(101,-7,q),
(103,-4,o),
(104,0,q),
(118,-1,o),
(120,-2,qs),
(125,-6,o),
(136,0,o),
(141,0,qs),
(152,0,l),
(308,3,ls),
(315,3,o),
(342,-1,o),
(353,-3,qs),
(356,-4,o),
(372,1,o),
(374,2,q),
(382,10,o),
(377,36,o),
(367,36,qs),
(341,36,ls),
(338,36,o),
(304,34,o),
(257,33,o),
(209,32,o),
(175,33,o),
(173,34,qs),
(166,38,o),
(154,36,o),
(148,34,qs),
(145,33,o),
(138,35,o),
(136,35,qs),
(132,35,o),
(125,37,o),
(121,38,q),
(132,63,o),
(153,110,o),
(167,142,o),
(168,144,qs),
(171,149,o),
(179,157,o),
(185,158,q),
(186,159,o),
(188,168,o),
(187,170,qs),
(186,174,o),
(200,210,o),
(220,253,o),
(237,287,o),
(240,289,qs),
(248,296,o),
(256,307,o),
(254,317,q),
(261,319,o),
(267,328,o),
(271,335,qs),
(274,343,o),
(300,399,o),
(336,477,o),
(375,561,o),
(410,634,o),
(432,681,o),
(432,682,q),
(436,692,o),
(434,700,q),
(435,711,o),
(428,719,o),
(412,719,q),
(396,688,o),
(391,672,o),
(388,665,qs),
(271,418,l),
(270,414,o),
(260,390,o),
(254,391,q),
(253,387,o),
(243,360,o),
(233,333,o),
(230,329,q),
(191,258,o),
(148,173,o),
(127,130,o),
(119,115,o),
(116,113,qs),
(112,111,o),
(105,98,o),
(106,94,qs),
(107,86,o),
(92,44,o),
(83,33,q),
(74,32,o),
(74,41,qs),
(74,298,ls),
(74,302,o),
(73,311,o),
(75,314,qs),
(83,325,o),
(83,339,qs),
(83,523,ls),
(83,531,o),
(79,545,o),
(74,551,q),
(74,565,o),
(81,575,o),
(81,582,q),
(77,588,o),
(73,614,o),
(74,645,qs),
(74,666,o),
(97,666,qs),
(336,660,ls),
(363,659,o),
(381,669,o),
(381,681,qs),
(381,691,o),
(371,691,qs),
(343,692,o),
(322,691,o),
(318,694,qs),
(313,697,o),
(214,698,o),
(101,697,q),
(95,692,o),
(87,697,q),
(83,701,o),
(76,699,qs),
(63,694,o),
(35,679,o),
(43,667,q),
(47,665,o),
(47,661,qs),
(44,617,o),
(42,571,o),
(45,550,o),
(48,544,q),
(48,527,o),
(49,469,o),
(48,452,qs),
(48,448,o),
(42,440,o),
(43,438,qs),
(47,433,o),
(43,424,q),
(37,415,o),
(43,405,qs),
(45,401,o),
(48,394,o),
(48,390,qs),
(48,384,o),
(48,346,o),
(47,300,o),
(46,266,o),
(45,264,qs),
(40,252,o),
(40,244,qs),
(40,219,o),
(40,141,o),
(41,62,o),
(40,37,qs),
(39,30,o),
(50,1,o),
(59,1,qs),
(62,1,o),
(67,1,q),
(64,-9,o),
(59,-28,o),
(57,-33,qs),
(52,-48,o),
(64,-55,o),
(80,-50,o),
(80,-50,q),
(95,-32,l)
);
},
{
closed = 1;
nodes = (
(155,312,o),
(197,348,o),
(211,360,qs),
(217,366,o),
(209,371,qs),
(202,376,o),
(197,386,o),
(192,390,qs),
(183,399,ls),
(179,404,o),
(173,411,o),
(168,416,q),
(167,418,o),
(150,437,o),
(146,441,qs),
(142,446,o),
(124,463,o),
(118,464,q),
(114,460,o),
(115,451,o),
(115,447,q),
(118,440,o),
(117,434,qs),
(116,427,ls),
(113,404,o),
(117,359,o),
(115,336,q),
(114,332,o),
(117,323,o),
(117,318,q),
(116,314,o),
(114,307,o),
(113,304,q),
(113,301,o),
(113,296,o),
(114,293,qs),
(114,292,o),
(118,285,o),
(121,285,qs),
(123,285,o)
);
},
{
closed = 1;
nodes = (
(141,382,o),
(142,406,o),
(147,400,qs),
(171,373,l),
(175,370,o),
(172,365,qs),
(171,364,o),
(169,363,o),
(169,361,q),
(166,354,o),
(157,351,q),
(156,351,o),
(152,348,o),
(145,340,q),
(145,338,o),
(142,339,q),
(143,349,o)
);
}
);
userData = {
assembly = "NPUSHB[ ]	/* 23 values pushed */
106 1 1 4 214 136 69 66 40 36 30 18 16 9 5 3 2 76 173 168 2 0 73 
MPPEM[ ]	/* MeasurePixelPerEm */
PUSHB[ ]	/* 1 value pushed */
25 
LT[ ]	/* LessThan */
IF[ ]	/* If */
NPUSHB[ ]	/* 32 values pushed */
0 4 4 37 77 0 2 2 39 77 0 3 3 1 97 0 1 1 39 77 0 5 5 0 97 6 1 0 0 38 0 78 
ELSE[ ]	/* Else */
NPUSHB[ ]	/* 32 values pushed */
0 4 1 4 133 0 2 2 39 77 0 3 3 1 97 0 1 1 39 77 0 5 5 0 97 6 1 0 0 38 0 78 
EIF[ ]	/* EndIf */
NPUSHB[ ]	/* 16 values pushed */
163 160 153 145 104 103 62 59 56 53 51 49 55 7 8 23 
CALL[ ]	/* CallFunction */";
};
width = 435;
}
);
note = uni0246;
unicode = 582;
},
{
glyphname = uni018F;
layers = (
{
layerId = m01;
shapes = (
{
closed = 1;
nodes = (
(513,21,o),
(505,33,q),
(501,35,o),
(501,39,qs),
(505,83,o),
(506,129,o),
(504,150,o),
(500,156,q),
(500,173,o),
(499,231,o),
(500,248,qs),
(500,252,o),
(506,260,o),
(505,262,qs),
(501,267,o),
(505,276,q),
(511,285,o),
(505,295,q),
(504,299,o),
(500,306,o),
(500,310,qs),
(500,316,o),
(500,354,o),
(501,400,o),
(502,435,o),
(503,436,q),
(508,448,o),
(508,456,qs),
(508,481,o),
(508,556,o),
(508,630,o),
(508,655,q),
(509,663,o),
(498,691,o),
(489,691,qs),
(483,692,o),
(455,692,o),
(431,693,o),
(428,694,q),
(423,698,o),
(412,700,o),
(407,700,qs),
(396,700,l),
(200,697,ls),
(193,697,o),
(166,702,o),
(155,703,q),
(152,704,o),
(136,700,o),
(134,698,qs),
(127,691,o),
(131,664,o),
(141,664,qs),
(167,664,ls),
(170,664,o),
(212,665,o),
(271,667,o),
(331,668,o),
(373,667,o),
(375,666,qs),
(383,662,o),
(394,665,o),
(400,666,qs),
(408,668,o),
(412,665,qs),
(439,649,o),
(462,666,q),
(466,668,o),
(474,664,o),
(474,659,qs),
(474,402,ls),
(474,398,o),
(475,389,o),
(473,386,qs),
(465,375,o),
(465,362,q),
(437,362,o),
(433,364,q),
(431,366,o),
(378,368,o),
(292,369,o),
(186,368,o),
(130,368,q),
(124,363,o),
(116,368,q),
(111,373,o),
(105,369,q),
(92,365,o),
(65,350,o),
(73,338,q),
(77,336,o),
(77,332,qs),
(74,288,o),
(72,242,o),
(75,221,o),
(78,215,q),
(78,198,o),
(79,140,o),
(78,122,qs),
(78,119,o),
(72,111,o),
(73,109,qs),
(77,104,o),
(73,95,q),
(67,86,o),
(73,75,qs),
(74,73,o),
(76,45,o),
(77,17,o),
(77,14,q),
(78,14,l),
(80,9,o),
(87,9,qs),
(115,8,o),
(136,9,o),
(140,6,q),
(143,5,o),
(196,3,o),
(283,2,o),
(390,3,o),
(447,3,q),
(453,8,o),
(461,3,q),
(465,-1,o),
(472,1,qs),
(486,6,o)
);
},
{
closed = 1;
nodes = (
(112,40,l),
(112,194,ls),
(112,211,o),
(104,222,q),
(104,236,o),
(110,246,o),
(110,253,q),
(106,259,o),
(103,285,o),
(104,316,qs),
(104,336,o),
(126,336,qs),
(451,330,l),
(465,330,l),
(465,177,ls),
(465,170,o),
(469,155,o),
(474,149,q),
(474,136,o),
(467,126,o),
(467,118,q),
(472,112,o),
(475,87,o),
(474,55,qs),
(474,34,o),
(451,34,qs),
(122,40,l)
);
},
{
closed = 1;
nodes = (
(314,175,o),
(321,182,q),
(329,194,o),
(321,205,qs),
(315,213,o),
(302,221,o),
(292,219,q),
(273,219,o),
(252,202,o),
(252,190,qs),
(252,183,o),
(266,158,o),
(284,158,qs),
(295,158,o)
);
},
{
closed = 1;
nodes = (
(280,189,o),
(280,190,qs),
(280,197,o),
(290,197,q),
(293,198,o),
(297,194,q),
(299,190,o),
(297,188,q),
(294,181,o),
(287,181,qs),
(283,181,o)
);
}
);
userData = {
assembly = "MPPEM[ ]	/* MeasurePixelPerEm */
PUSHB[ ]	/* 1 value pushed */
10 
LT[ ]	/* LessThan */
IF[ ]	/* If */
NPUSHB[ ]	/* 38 values pushed */
99 97 93 55 4 2 4 148 145 111 33 4 10 8 169 29 2 11 10 134 131 121 117 23 5 7 9 14 1 1 7 5 76 62 1 4 1 75 
ELSE[ ]	/* Else */
MPPEM[ ]	/* MeasurePixelPerEm */
PUSHB[ ]	/* 1 value pushed */
45 
LT[ ]	/* LessThan */
IF[ ]	/* If */
NPUSHB[ ]	/* 38 values pushed */
99 97 93 55 4 2 4 148 145 111 33 4 10 8 169 29 2 11 10 134 131 121 117 23 5 7 9 14 1 0 7 5 76 62 1 4 1 75 
ELSE[ ]	/* Else */
NPUSHB[ ]	/* 38 values pushed */
99 97 93 55 4 2 4 148 145 111 33 4 10 8 169 29 2 11 10 134 131 121 117 23 5 7 9 14 1 1 7 5 76 62 1 4 1 75 
EIF[ ]	/* EndIf */
EIF[ ]	/* EndIf */
MPPEM[ ]	/* MeasurePixelPerEm */
PUSHB[ ]	/* 1 value pushed */
10 
LT[ ]	/* LessThan */
IF[ ]	/* If */
NPUSHB[ ]	/* 64 values pushed */
0 3 2 8 2 3 114 0 10 8 11 11 10 114 0 2 0 8 10 2 8 103 14 1 11 13 1 9 7 11 9 106 0 6 6 39 77 0 4 4 5 95 0 5 5 39 77 0 1 1 38 77 12 1 7 7 0 97 0 0 0 38 0 78 
ELSE[ ]	/* Else */
MPPEM[ ]	/* MeasurePixelPerEm */
PUSHB[ ]	/* 1 value pushed */
34 
LT[ ]	/* LessThan */
IF[ ]	/* If */
NPUSHB[ ]	/* 54 values pushed */
0 10 8 11 11 10 114 3 1 2 0 8 10 2 8 103 14 1 11 13 1 9 7 11 9 106 0 6 6 39 77 0 4 4 5 95 0 5 5 39 77 12 1 7 7 0 97 1 1 0 0 38 0 78 
ELSE[ ]	/* Else */
MPPEM[ ]	/* MeasurePixelPerEm */
PUSHB[ ]	/* 1 value pushed */
45 
LT[ ]	/* LessThan */
IF[ ]	/* If */
NPUSHB[ ]	/* 55 values pushed */
0 10 8 11 8 10 11 128 3 1 2 0 8 10 2 8 103 14 1 11 13 1 9 7 11 9 106 0 6 6 39 77 0 4 4 5 95 0 5 5 39 77 12 1 7 7 0 97 1 1 0 0 38 0 78 
ELSE[ ]	/* Else */
NPUSHB[ ]	/* 65 values pushed */
0 3 2 8 2 3 114 0 10 8 11 8 10 11 128 0 2 0 8 10 2 8 103 14 1 11 13 1 9 7 11 9 106 0 6 6 39 77 0 4 4 5 95 0 5 5 39 77 0 1 1 38 77 12 1 7 7 0 97 0 0 0 38 0 78 
EIF[ ]	/* EndIf */
EIF[ ]	/* EndIf */
EIF[ ]	/* EndIf */
NPUSHB[ ]	/* 37 values pushed */
168 167 154 153 127 126 167 177 168 177 159 158 153 166 154 166 141 138 126 152 127 151 91 88 83 80 73 65 49 48 46 42 34 68 15 8 24 
CALL[ ]	/* CallFunction */";
};
width = 578;
}
);
note = uni018F;
unicode = 399;
},
{
glyphname = uni01B7;
layers = (
{
layerId = m01;
shapes = (
{
closed = 1;
nodes = (
(291,0,o),
(351,1,o),
(369,1,o),
(371,1,qs),
(378,1,o),
(391,25,o),
(397,58,o),
(390,70,q),
(393,75,o),
(397,113,o),
(397,160,o),
(395,197,o),
(393,201,qs),
(386,212,o),
(395,224,o),
(395,233,qs),
(393,315,ls),
(393,326,o),
(387,340,o),
(373,344,qs),
(365,346,o),
(307,349,o),
(254,350,qs),
(241,350,o),
(189,344,o),
(174,348,qs),
(159,351,o),
(116,350,o),
(78,347,o),
(68,346,q),
(138,410,o),
(231,494,o),
(286,545,o),
(314,571,o),
(324,583,o),
(326,587,qs),
(329,593,o),
(356,620,o),
(388,647,o),
(395,652,qs),
(403,657,o),
(410,674,o),
(415,680,qs),
(418,684,o),
(410,697,o),
(405,698,q),
(403,699,o),
(377,695,o),
(313,694,o),
(254,699,qs),
(238,701,o),
(204,699,o),
(184,699,qs),
(175,699,o),
(150,694,o),
(146,699,qs),
(142,704,o),
(130,698,o),
(124,699,qs),
(102,703,o),
(55,699,o),
(29,699,qs),
(20,700,o),
(10,678,o),
(16,661,o),
(32,666,qs),
(42,670,o),
(128,667,o),
(183,668,qs),
(191,668,o),
(208,664,o),
(216,668,qs),
(223,671,o),
(237,670,o),
(244,668,qs),
(279,661,o),
(340,669,o),
(356,669,q),
(363,668,o),
(354,654,o),
(337,639,o),
(331,637,qs),
(324,636,o),
(315,624,o),
(313,618,q),
(309,612,o),
(268,572,o),
(208,516,o),
(141,456,o),
(79,402,o),
(36,363,o),
(31,358,qs),
(11,340,o),
(14,321,o),
(40,314,o),
(53,314,qs),
(116,315,l),
(130,310,l),
(161,317,l),
(355,311,ls),
(356,311,o),
(359,258,o),
(362,179,o),
(363,98,o),
(363,38,o),
(361,32,q),
(348,33,o),
(311,34,o),
(249,34,o),
(197,32,q),
(162,34,o),
(126,38,o),
(102,38,qs),
(49,38,o),
(8,27,o),
(11,11,o),
(38,0,o),
(53,0,qs),
(164,0,o)
);
},
{
closed = 1;
nodes = (
(247,185,q),
(251,194,o),
(242,204,q),
(238,210,o),
(216,221,o),
(195,226,o),
(189,220,q),
(185,214,o),
(178,200,o),
(176,192,q),
(176,188,o),
(185,176,o),
(186,170,qs),
(189,155,o),
(221,155,o),
(239,168,q),
(245,174,o)
);
},
{
closed = 1;
nodes = (
(207,181,o),
(206,185,qs),
(205,187,o),
(203,190,o),
(203,191,qs),
(203,193,o),
(205,197,o),
(206,198,qs),
(208,201,o),
(220,196,o),
(221,194,q),
(223,192,o),
(222,189,q),
(222,186,o),
(220,184,qs),
(216,181,o)
);
}
);
userData = {
assembly = "MPPEM[ ]	/* MeasurePixelPerEm */
PUSHB[ ]	/* 1 value pushed */
10 
LT[ ]	/* LessThan */
IF[ ]	/* If */
NPUSHB[ ]	/* 18 values pushed */
88 1 3 10 20 1 12 3 12 1 0 2 3 76 59 1 7 74 
ELSE[ ]	/* Else */
MPPEM[ ]	/* MeasurePixelPerEm */
PUSHB[ ]	/* 1 value pushed */
45 
LT[ ]	/* LessThan */
IF[ ]	/* If */
NPUSHB[ ]	/* 18 values pushed */
88 1 3 10 20 1 12 3 12 1 0 1 3 76 59 1 7 74 
ELSE[ ]	/* Else */
NPUSHB[ ]	/* 18 values pushed */
88 1 3 10 20 1 12 3 12 1 0 2 3 76 59 1 7 74 
EIF[ ]	/* EndIf */
EIF[ ]	/* EndIf */
MPPEM[ ]	/* MeasurePixelPerEm */
PUSHB[ ]	/* 1 value pushed */
10 
LT[ ]	/* LessThan */
IF[ ]	/* If */
NPUSHB[ ]	/* 59 values pushed */
0 12 3 1 3 12 1 128 0 1 2 2 1 112 11 1 10 4 1 3 12 10 3 105 6 1 5 5 7 97 8 1 7 7 37 77 6 1 5 5 9 97 0 9 9 39 77 0 2 2 0 96 13 1 0 0 38 0 78 
ELSE[ ]	/* Else */
MPPEM[ ]	/* MeasurePixelPerEm */
PUSHB[ ]	/* 1 value pushed */
45 
LT[ ]	/* LessThan */
IF[ ]	/* If */
NPUSHB[ ]	/* 44 values pushed */
0 12 3 1 3 12 1 128 11 1 10 4 1 3 12 10 3 105 6 1 5 5 7 97 9 8 2 7 7 37 77 2 1 1 1 0 95 13 1 0 0 38 0 78 
ELSE[ ]	/* Else */
NPUSHB[ ]	/* 59 values pushed */
0 12 3 1 3 12 1 128 0 1 2 2 1 112 11 1 10 4 1 3 12 10 3 105 6 1 5 5 7 97 8 1 7 7 37 77 6 1 5 5 9 97 0 9 9 39 77 0 2 2 0 96 13 1 0 0 38 0 78 
EIF[ ]	/* EndIf */
EIF[ ]	/* EndIf */
NPUSHB[ ]	/* 33 values pushed */
1 0 121 120 97 94 91 90 70 69 67 64 57 56 51 48 41 39 23 21 19 17 11 7 6 4 0 118 1 113 14 8 22 
CALL[ ]	/* CallFunction */";
};
width = 436;
}
);
note = uni01B7;
unicode = 439;
},
{
glyphname = uni01EE;
layers = (
{
layerId = m01;
shapes = (
{
closed = 1;
nodes = (
(291,0,o),
(351,1,o),
(369,1,o),
(371,1,qs),
(378,1,o),
(391,25,o),
(397,58,o),
(390,70,q),
(393,75,o),
(397,113,o),
(397,160,o),
(395,197,o),
(393,201,qs),
(386,212,o),
(395,224,o),
(395,233,qs),
(393,315,ls),
(393,326,o),
(387,340,o),
(373,344,qs),
(365,346,o),
(307,349,o),
(254,350,qs),
(241,350,o),
(189,344,o),
(174,348,qs),
(159,351,o),
(116,350,o),
(78,347,o),
(68,346,q),
(138,410,o),
(231,494,o),
(286,545,o),
(314,571,o),
(324,583,o),
(326,587,qs),
(329,593,o),
(356,620,o),
(388,647,o),
(395,652,qs),
(403,657,o),
(410,674,o),
(415,680,qs),
(418,684,o),
(410,697,o),
(405,698,q),
(403,699,o),
(377,695,o),
(313,694,o),
(254,699,qs),
(238,701,o),
(204,699,o),
(184,699,qs),
(175,699,o),
(150,694,o),
(146,699,qs),
(142,704,o),
(130,698,o),
(124,699,qs),
(102,703,o),
(55,699,o),
(29,699,qs),
(20,700,o),
(10,678,o),
(16,661,o),
(32,666,qs),
(42,670,o),
(128,667,o),
(183,668,qs),
(191,668,o),
(208,664,o),
(216,668,qs),
(223,671,o),
(237,670,o),
(244,668,qs),
(279,661,o),
(340,669,o),
(356,669,q),
(363,668,o),
(354,654,o),
(337,639,o),
(331,637,qs),
(324,636,o),
(315,624,o),
(313,618,q),
(309,612,o),
(268,572,o),
(208,516,o),
(141,456,o),
(79,402,o),
(36,363,o),
(31,358,qs),
(11,340,o),
(14,321,o),
(40,314,o),
(53,314,qs),
(116,315,l),
(130,310,l),
(161,317,l),
(355,311,ls),
(356,311,o),
(359,258,o),
(362,179,o),
(363,98,o),
(363,38,o),
(361,32,q),
(348,33,o),
(311,34,o),
(249,34,o),
(197,32,q),
(162,34,o),
(126,38,o),
(102,38,qs),
(49,38,o),
(8,27,o),
(11,11,o),
(38,0,o),
(53,0,qs),
(164,0,o)
);
},
{
closed = 1;
nodes = (
(247,185,q),
(251,194,o),
(242,204,q),
(238,210,o),
(216,221,o),
(195,226,o),
(189,220,q),
(185,214,o),
(178,200,o),
(176,192,q),
(176,188,o),
(185,176,o),
(186,170,qs),
(189,155,o),
(221,155,o),
(239,168,q),
(245,174,o)
);
},
{
closed = 1;
nodes = (
(207,181,o),
(206,185,qs),
(205,187,o),
(203,190,o),
(203,191,qs),
(203,193,o),
(205,197,o),
(206,198,qs),
(208,201,o),
(220,196,o),
(221,194,q),
(223,192,o),
(222,189,q),
(222,186,o),
(220,184,qs),
(216,181,o)
);
},
{
closed = 1;
nodes = (
(257,836,o),
(254,832,qs),
(252,830,o),
(239,813,o),
(237,811,qs),
(235,808,o),
(228,797,o),
(226,796,qs),
(220,793,o),
(216,793,o),
(211,795,q),
(207,800,o),
(185,820,o),
(158,843,o),
(135,859,o),
(130,859,q),
(122,861,o),
(110,859,o),
(114,850,q),
(120,844,o),
(132,831,o),
(136,824,q),
(141,821,o),
(153,806,o),
(159,803,q),
(167,796,o),
(174,787,o),
(181,781,qs),
(189,774,o),
(205,760,o),
(209,749,qs),
(211,745,o),
(219,744,o),
(221,748,q),
(232,760,o),
(263,794,o),
(293,829,o),
(313,852,o),
(312,853,qs),
(310,855,o),
(304,860,o),
(302,860,q),
(297,862,o),
(290,860,q),
(276,853,o)
);
}
);
userData = {
assembly = "MPPEM[ ]	/* MeasurePixelPerEm */
PUSHB[ ]	/* 1 value pushed */
10 
LT[ ]	/* LessThan */
IF[ ]	/* If */
NPUSHB[ ]	/* 18 values pushed */
88 1 3 10 20 1 12 3 12 1 0 2 3 76 59 1 7 74 
ELSE[ ]	/* Else */
MPPEM[ ]	/* MeasurePixelPerEm */
PUSHB[ ]	/* 1 value pushed */
45 
LT[ ]	/* LessThan */
IF[ ]	/* If */
NPUSHB[ ]	/* 18 values pushed */
88 1 3 10 20 1 12 3 12 1 0 1 3 76 59 1 7 74 
ELSE[ ]	/* Else */
NPUSHB[ ]	/* 18 values pushed */
88 1 3 10 20 1 12 3 12 1 0 2 3 76 59 1 7 74 
EIF[ ]	/* EndIf */
EIF[ ]	/* EndIf */
MPPEM[ ]	/* MeasurePixelPerEm */
PUSHB[ ]	/* 1 value pushed */
10 
LT[ ]	/* LessThan */
IF[ ]	/* If */
NPUSHB[ ]	/* 59 values pushed */
0 12 3 1 3 12 1 128 0 1 2 2 1 112 11 1 10 4 1 3 12 10 3 105 6 1 5 5 7 97 8 1 7 7 37 77 6 1 5 5 9 97 0 9 9 39 77 0 2 2 0 96 13 1 0 0 38 0 78 
ELSE[ ]	/* Else */
MPPEM[ ]	/* MeasurePixelPerEm */
PUSHB[ ]	/* 1 value pushed */
45 
LT[ ]	/* LessThan */
IF[ ]	/* If */
NPUSHB[ ]	/* 44 values pushed */
0 12 3 1 3 12 1 128 11 1 10 4 1 3 12 10 3 105 6 1 5 5 7 97 9 8 2 7 7 37 77 2 1 1 1 0 95 13 1 0 0 38 0 78 
ELSE[ ]	/* Else */
NPUSHB[ ]	/* 59 values pushed */
0 12 3 1 3 12 1 128 0 1 2 2 1 112 11 1 10 4 1 3 12 10 3 105 6 1 5 5 7 97 8 1 7 7 37 77 6 1 5 5 9 97 0 9 9 39 77 0 2 2 0 96 13 1 0 0 38 0 78 
EIF[ ]	/* EndIf */
EIF[ ]	/* EndIf */
NPUSHB[ ]	/* 33 values pushed */
1 0 121 120 97 94 91 90 70 69 67 64 57 56 51 48 41 39 23 21 19 17 11 7 6 4 0 118 1 113 14 8 22 
CALL[ ]	/* CallFunction */";
};
width = 436;
}
);
note = uni01EE;
unicode = 494;
},
{
glyphname = uni01B8;
layers = (
{
layerId = m01;
shapes = (
{
closed = 1;
nodes = (
(425,11,o),
(428,27,o),
(387,38,o),
(334,38,qs),
(310,38,o),
(274,34,o),
(239,32,q),
(187,34,o),
(125,34,o),
(88,33,o),
(75,32,q),
(74,38,o),
(73,98,o),
(74,179,o),
(77,258,o),
(80,311,o),
(81,311,qs),
(275,317,l),
(306,310,l),
(320,315,l),
(383,314,ls),
(396,314,o),
(422,321,o),
(426,340,o),
(405,358,qs),
(400,363,o),
(357,402,o),
(295,456,o),
(228,516,o),
(168,572,o),
(127,612,o),
(123,618,q),
(121,624,o),
(113,636,o),
(105,637,q),
(99,639,o),
(82,654,o),
(74,668,o),
(80,669,q),
(97,669,o),
(158,661,o),
(192,668,qs),
(200,670,o),
(213,671,o),
(220,668,qs),
(228,664,o),
(245,668,o),
(253,668,qs),
(309,667,o),
(394,670,o),
(404,666,qs),
(420,661,o),
(426,678,o),
(416,700,o),
(407,699,qs),
(381,699,o),
(334,703,o),
(312,699,qs),
(306,698,o),
(294,704,o),
(290,699,qs),
(286,694,o),
(261,699,o),
(252,699,qs),
(233,699,o),
(198,701,o),
(182,699,qs),
(123,694,o),
(59,695,o),
(34,699,o),
(31,698,qs),
(26,697,o),
(18,684,o),
(21,680,qs),
(26,674,o),
(34,657,o),
(41,652,qs),
(49,647,o),
(80,620,o),
(108,593,o),
(110,587,qs),
(112,583,o),
(122,571,o),
(150,545,o),
(205,494,o),
(298,410,o),
(368,346,q),
(359,347,o),
(320,350,o),
(278,351,o),
(262,348,qs),
(247,344,o),
(195,350,o),
(182,350,qs),
(129,349,o),
(71,346,o),
(63,344,qs),
(50,340,o),
(43,326,o),
(43,315,qs),
(41,233,ls),
(41,224,o),
(51,212,o),
(43,201,q),
(41,197,o),
(39,160,o),
(39,113,o),
(43,75,o),
(46,70,q),
(40,58,o),
(45,25,o),
(59,1,o),
(65,1,qs),
(67,1,o),
(85,1,o),
(145,0,o),
(272,0,o),
(383,0,qs),
(398,0,o)
);
},
{
closed = 1;
nodes = (
(247,155,o),
(250,170,qs),
(252,176,o),
(260,188,o),
(260,192,qs),
(259,200,o),
(251,214,o),
(247,220,qs),
(242,226,o),
(220,221,o),
(199,210,o),
(194,204,qs),
(185,194,o),
(189,185,q),
(191,174,o),
(197,168,q),
(215,155,o)
);
},
{
closed = 1;
nodes = (
(214,189,q),
(213,192,o),
(215,194,qs),
(217,196,o),
(228,201,o),
(230,198,qs),
(231,197,o),
(233,193,o),
(233,191,qs),
(233,190,o),
(231,187,o),
(230,185,qs),
(229,181,o),
(221,181,o),
(216,184,q),
(214,186,o)
);
}
);
userData = {
assembly = "MPPEM[ ]	/* MeasurePixelPerEm */
PUSHB[ ]	/* 1 value pushed */
10 
LT[ ]	/* LessThan */
IF[ ]	/* If */
NPUSHB[ ]	/* 18 values pushed */
31 1 8 1 150 145 142 130 99 5 12 8 9 1 11 12 3 76 
ELSE[ ]	/* Else */
MPPEM[ ]	/* MeasurePixelPerEm */
PUSHB[ ]	/* 1 value pushed */
45 
LT[ ]	/* LessThan */
IF[ ]	/* If */
NPUSHB[ ]	/* 18 values pushed */
31 1 8 1 150 145 142 130 99 5 12 8 9 1 10 12 3 76 
ELSE[ ]	/* Else */
NPUSHB[ ]	/* 18 values pushed */
31 1 8 1 150 145 142 130 99 5 12 8 9 1 11 12 3 76 
EIF[ ]	/* EndIf */
EIF[ ]	/* EndIf */
MPPEM[ ]	/* MeasurePixelPerEm */
PUSHB[ ]	/* 1 value pushed */
10 
LT[ ]	/* LessThan */
IF[ ]	/* If */
NPUSHB[ ]	/* 59 values pushed */
0 12 8 11 8 12 11 128 0 11 10 10 11 112 2 1 1 9 1 8 12 1 8 105 7 1 6 6 4 97 5 1 4 4 37 77 7 1 6 6 3 97 0 3 3 39 77 0 10 10 0 98 13 1 0 0 38 0 78 
ELSE[ ]	/* Else */
MPPEM[ ]	/* MeasurePixelPerEm */
PUSHB[ ]	/* 1 value pushed */
45 
LT[ ]	/* LessThan */
IF[ ]	/* If */
NPUSHB[ ]	/* 48 values pushed */
0 12 8 10 8 12 10 128 2 1 1 9 1 8 12 1 8 105 0 4 4 37 77 7 1 6 6 3 97 5 1 3 3 39 77 11 1 10 10 0 97 13 1 0 0 38 0 78 
ELSE[ ]	/* Else */
NPUSHB[ ]	/* 59 values pushed */
0 12 8 11 8 12 11 128 0 11 10 10 11 112 2 1 1 9 1 8 12 1 8 105 7 1 6 6 4 97 5 1 4 4 37 77 7 1 6 6 3 97 0 3 3 39 77 0 10 10 0 98 13 1 0 0 38 0 78 
EIF[ ]	/* EndIf */
EIF[ ]	/* EndIf */
NPUSHB[ ]	/* 33 values pushed */
4 0 135 134 115 113 112 108 101 100 98 96 79 78 70 68 63 62 55 52 50 49 29 28 25 22 0 118 4 118 14 8 22 
CALL[ ]	/* CallFunction */";
};
width = 436;
}
);
note = uni01B8;
unicode = 440;
},
{
glyphname = F;
layers = (
{
layerId = m01;
shapes = (
{
closed = 1;
nodes = (
(212,5,o),
(222,9,o),
(226,10,qs),
(231,12,o),
(243,5,o),
(248,5,qs),
(252,5,o),
(282,5,o),
(317,5,o),
(344,5,o),
(344,6,q),
(348,9,o),
(356,17,o),
(357,21,qs),
(359,26,o),
(350,29,o),
(347,31,qs),
(333,39,o),
(320,39,qs),
(190,39,ls),
(188,39,o),
(182,48,o),
(182,72,qs),
(183,360,l),
(179,386,l),
(182,389,o),
(184,443,o),
(184,519,o),
(183,596,o),
(182,652,o),
(182,658,qs),
(182,666,o),
(188,667,qs),
(193,667,o),
(228,669,o),
(248,670,qs),
(269,671,o),
(292,676,o),
(317,670,q),
(320,665,o),
(342,667,o),
(364,668,qs),
(367,668,o),
(378,668,o),
(381,671,qs),
(386,676,o),
(395,669,o),
(397,669,qs),
(410,669,o),
(430,674,o),
(434,673,qs),
(451,669,o),
(474,677,o),
(475,681,qs),
(480,694,o),
(463,700,o),
(452,700,qs),
(370,702,o),
(268,701,o),
(214,699,o),
(195,697,o),
(194,696,qs),
(188,690,o),
(174,690,o),
(166,689,qs),
(159,688,o),
(148,678,o),
(148,670,qs),
(149,613,o),
(147,559,o),
(144,540,o),
(141,535,q),
(149,525,o),
(148,508,o),
(148,495,qs),
(148,50,ls),
(148,43,o),
(143,38,o),
(135,38,qs),
(79,38,ls),
(75,38,o),
(67,38,o),
(63,37,qs),
(59,36,o),
(50,24,o),
(51,22,qs),
(56,11,o),
(63,6,qs),
(65,5,o),
(72,5,o),
(76,5,qs),
(207,5,ls)
);
},
{
closed = 1;
nodes = (
(354,249,o),
(354,251,q),
(356,255,o),
(355,261,o),
(355,265,qs),
(354,269,o),
(351,279,o),
(350,283,qs),
(349,289,o),
(353,300,o),
(352,306,qs),
(349,335,o),
(354,393,o),
(351,422,qs),
(350,432,ls),
(348,442,o),
(352,448,q),
(352,453,o),
(354,465,o),
(348,470,q),
(341,468,o),
(318,446,o),
(312,441,q),
(308,435,o),
(286,410,o),
(284,408,qs),
(279,401,o),
(270,392,o),
(265,387,qs),
(254,375,ls),
(249,370,o),
(240,358,o),
(232,351,qs),
(222,344,o),
(229,337,qs),
(243,325,o),
(281,292,o),
(317,261,o),
(343,241,o),
(344,241,qs),
(349,241,o)
);
},
{
closed = 1;
nodes = (
(319,294,qs),
(307,308,o),
(299,315,o),
(297,315,q),
(280,320,o),
(276,332,q),
(276,334,o),
(273,338,o),
(272,340,qs),
(268,346,o),
(269,350,o),
(273,354,qs),
(316,402,ls),
(322,409,o),
(326,387,o),
(326,347,o),
(324,305,o),
(325,293,q),
(321,292,o)
);
},
{
closed = 1;
nodes = (
(102,328,o),
(109,335,q),
(117,347,o),
(109,358,qs),
(103,366,o),
(90,374,o),
(80,372,q),
(61,372,o),
(40,355,o),
(40,343,qs),
(40,336,o),
(54,311,o),
(72,311,qs),
(83,311,o)
);
},
{
closed = 1;
nodes = (
(69,342,o),
(69,343,qs),
(69,349,o),
(78,349,q),
(82,350,o),
(84,347,qs),
(86,343,o),
(84,341,q),
(83,335,o),
(75,335,qs),
(71,335,o)
);
}
);
userData = {
assembly = "NPUSHB[ ]	/* 15 values pushed */
40 23 2 4 2 19 1 10 4 5 1 0 1 3 76 
MPPEM[ ]	/* MeasurePixelPerEm */
PUSHB[ ]	/* 1 value pushed */
34 
LT[ ]	/* LessThan */
IF[ ]	/* If */
NPUSHB[ ]	/* 48 values pushed */
0 10 4 11 11 10 114 14 1 11 13 1 9 1 11 9 106 0 2 2 39 77 6 5 2 4 4 3 97 0 3 3 37 77 7 1 1 1 0 97 8 12 2 0 0 38 0 78 
ELSE[ ]	/* Else */
NPUSHB[ ]	/* 49 values pushed */
0 10 4 11 4 10 11 128 14 1 11 13 1 9 1 11 9 106 0 2 2 39 77 6 5 2 4 4 3 97 0 3 3 37 77 7 1 1 1 0 97 8 12 2 0 0 38 0 78 
EIF[ ]	/* EndIf */
NPUSHB[ ]	/* 39 values pushed */
167 166 153 152 2 0 166 176 167 176 158 157 152 165 153 165 86 82 73 70 57 54 50 48 43 42 35 31 28 27 12 9 0 91 2 90 15 8 22 
CALL[ ]	/* CallFunction */";
};
width = 446;
}
);
note = F;
unicode = 70;
},
{
glyphname = uni0191;
layers = (
{
layerId = m01;
shapes = (
{
closed = 1;
nodes = (
(144,77,o),
(143,89,o),
(142,94,q),
(143,360,l),
(139,386,l),
(142,389,o),
(144,443,o),
(144,519,o),
(143,596,o),
(142,652,o),
(142,658,qs),
(142,666,o),
(148,667,qs),
(153,667,o),
(188,669,o),
(208,670,qs),
(229,671,o),
(252,676,o),
(277,670,q),
(280,665,o),
(302,667,o),
(324,668,qs),
(327,668,o),
(338,668,o),
(341,671,qs),
(346,676,o),
(355,669,o),
(357,669,qs),
(370,669,o),
(390,674,o),
(394,673,qs),
(411,669,o),
(434,677,o),
(435,681,qs),
(440,694,o),
(423,700,o),
(412,700,qs),
(330,702,o),
(228,701,o),
(174,699,o),
(155,697,o),
(154,696,qs),
(148,690,o),
(134,690,o),
(126,689,qs),
(119,688,o),
(108,678,o),
(108,670,qs),
(109,613,o),
(107,559,o),
(104,540,o),
(101,535,q),
(109,525,o),
(108,508,o),
(108,495,qs),
(108,50,ls),
(108,45,o),
(108,41,qs),
(109,10,o),
(108,-57,o),
(96,-104,o),
(81,-103,qs),
(76,-103,o),
(53,-103,o),
(48,-102,qs),
(42,-100,o),
(36,-103,o),
(23,-104,o),
(3,-102,qs),
(-2,-101,o),
(-12,-107,o),
(-18,-104,q),
(-31,-111,o),
(-28,-123,o),
(-18,-128,qs),
(-6,-135,o),
(14,-139,o),
(27,-134,qs),
(31,-132,o),
(61,-133,o),
(66,-133,qs),
(89,-134,o),
(94,-134,o),
(98,-134,qs),
(117,-133,o),
(134,-108,o),
(141,-35,o),
(142,36,qs),
(142,41,o),
(140,51,o),
(140,56,q),
(142,64,o),
(142,72,qs),
(142,74,l)
);
},
{
closed = 1;
nodes = (
(304,249,o),
(304,251,q),
(306,255,o),
(305,261,o),
(305,265,qs),
(304,269,o),
(301,279,o),
(300,283,qs),
(299,289,o),
(303,300,o),
(302,306,qs),
(299,335,o),
(304,393,o),
(301,422,qs),
(300,432,ls),
(298,442,o),
(302,448,q),
(302,453,o),
(304,465,o),
(298,470,q),
(291,468,o),
(268,446,o),
(262,441,q),
(258,435,o),
(236,410,o),
(234,408,qs),
(229,401,o),
(220,392,o),
(215,387,qs),
(204,375,ls),
(199,370,o),
(190,358,o),
(182,351,qs),
(172,344,o),
(179,337,qs),
(193,325,o),
(231,292,o),
(267,261,o),
(293,241,o),
(294,241,qs),
(299,241,o)
);
},
{
closed = 1;
nodes = (
(269,294,qs),
(257,308,o),
(249,315,o),
(247,315,q),
(230,320,o),
(226,332,q),
(226,334,o),
(223,338,o),
(222,340,qs),
(218,346,o),
(219,350,o),
(223,354,qs),
(266,402,ls),
(272,409,o),
(276,387,o),
(276,347,o),
(274,305,o),
(275,293,q),
(271,292,o)
);
},
{
closed = 1;
nodes = (
(62,328,o),
(69,335,q),
(77,347,o),
(69,358,qs),
(63,366,o),
(50,374,o),
(40,372,q),
(21,372,o),
(0,355,o),
(0,343,qs),
(0,336,o),
(14,311,o),
(32,311,qs),
(43,311,o)
);
},
{
closed = 1;
nodes = (
(29,342,o),
(29,343,qs),
(29,349,o),
(38,349,q),
(42,350,o),
(44,347,qs),
(46,343,o),
(44,341,q),
(43,335,o),
(35,335,qs),
(31,335,o)
);
}
);
userData = {
assembly = "NPUSHB[ ]	/* 21 values pushed */
62 45 2 4 2 41 1 8 4 90 2 2 1 7 3 76 21 1 1 1 75 
MPPEM[ ]	/* MeasurePixelPerEm */
PUSHB[ ]	/* 1 value pushed */
34 
LT[ ]	/* LessThan */
IF[ ]	/* If */
NPUSHB[ ]	/* 42 values pushed */
0 8 4 9 9 8 114 11 1 9 10 1 7 1 9 7 106 0 1 0 0 1 0 101 0 2 2 39 77 6 5 2 4 4 3 97 0 3 3 37 4 78 
ELSE[ ]	/* Else */
NPUSHB[ ]	/* 43 values pushed */
0 8 4 9 4 8 9 128 11 1 9 10 1 7 1 9 7 106 0 1 0 0 1 0 101 0 2 2 39 77 6 5 2 4 4 3 97 0 3 3 37 4 78 
EIF[ ]	/* EndIf */
NPUSHB[ ]	/* 29 values pushed */
169 168 155 154 168 178 169 178 160 159 154 167 155 167 79 76 72 70 65 64 57 53 50 49 63 104 12 8 24 
CALL[ ]	/* CallFunction */";
};
width = 436;
}
);
note = uni0191;
unicode = 401;
},
{
glyphname = G;
layers = (
{
layerId = m01;
shapes = (
{
closed = 1;
nodes = (
(368,0,ls),
(375,0,o),
(391,5,o),
(397,-1,q),
(399,-2,o),
(421,-2,o),
(443,0,o),
(444,1,qs),
(452,9,o),
(445,155,o),
(449,307,qs),
(449,312,o),
(445,328,o),
(431,328,qs),
(400,330,o),
(374,330,o),
(361,331,o),
(335,333,o),
(304,336,q),
(295,328,o),
(281,328,qs),
(265,328,o),
(249,330,o),
(232,328,q),
(226,326,o),
(224,320,q),
(224,308,o),
(227,295,o),
(233,290,qs),
(259,268,o),
(304,216,o),
(333,197,q),
(341,193,o),
(374,161,o),
(408,129,o),
(414,122,q),
(414,35,l),
(411,35,o),
(362,33,o),
(293,32,o),
(224,31,o),
(175,32,o),
(173,33,qs),
(166,37,o),
(154,35,o),
(148,33,qs),
(143,32,o),
(136,34,qs),
(123,36,o),
(98,39,o),
(86,30,q),
(82,28,o),
(74,33,o),
(74,37,qs),
(74,302,ls),
(74,306,o),
(73,315,o),
(75,318,qs),
(83,329,o),
(83,343,qs),
(83,527,ls),
(83,535,o),
(79,549,o),
(74,555,q),
(74,569,o),
(81,579,o),
(81,586,q),
(77,592,o),
(73,619,o),
(74,650,qs),
(74,671,o),
(97,671,qs),
(397,671,ls),
(407,671,o),
(407,661,qs),
(407,597,o),
(407,536,o),
(408,517,o),
(408,514,qs),
(409,508,o),
(416,498,o),
(416,491,qs),
(416,481,o),
(431,482,qs),
(441,482,o),
(441,492,qs),
(441,686,ls),
(441,696,o),
(431,696,qs),
(403,697,o),
(382,696,o),
(378,699,qs),
(375,701,o),
(300,703,o),
(177,703,o),
(101,702,q),
(95,697,o),
(87,702,q),
(83,706,o),
(76,704,qs),
(63,699,o),
(35,684,o),
(43,672,q),
(47,670,o),
(47,666,qs),
(44,622,o),
(42,575,o),
(45,554,o),
(48,548,q),
(48,531,o),
(49,473,o),
(48,456,qs),
(48,452,o),
(42,444,o),
(43,442,qs),
(47,437,o),
(43,428,q),
(37,419,o),
(43,409,qs),
(45,405,o),
(48,398,o),
(48,394,qs),
(48,388,o),
(48,350,o),
(47,304,o),
(46,270,o),
(45,268,qs),
(40,256,o),
(40,248,qs),
(40,223,o),
(40,143,o),
(41,62,o),
(40,37,qs),
(39,30,o),
(50,1,o),
(59,1,qs),
(66,1,o),
(93,0,o),
(118,0,o),
(120,-2,qs),
(125,-6,o),
(136,-1,o),
(141,-1,qs),
(152,-1,l)
);
},
{
closed = 1;
nodes = (
(268,477,o),
(275,484,q),
(283,496,o),
(275,507,qs),
(269,515,o),
(256,523,o),
(246,521,q),
(227,521,o),
(206,504,o),
(206,492,qs),
(206,485,o),
(220,460,o),
(238,460,qs),
(249,460,o)
);
},
{
closed = 1;
nodes = (
(234,491,o),
(234,492,qs),
(234,499,o),
(244,499,q),
(247,500,o),
(251,496,q),
(253,492,o),
(251,490,q),
(248,483,o),
(241,483,qs),
(237,483,o)
);
},
{
closed = 1;
nodes = (
(377,199,o),
(337,233,o),
(297,267,o),
(269,294,o),
(267,299,q),
(286,301,l),
(294,303,o),
(315,305,o),
(322,300,q),
(359,298,o),
(396,297,o),
(412,296,o),
(415,292,q),
(418,291,o),
(418,255,o),
(416,209,o),
(416,192,qs),
(416,165,o),
(411,170,qs),
(407,174,o)
);
}
);
userData = {
assembly = "NPUSHB[ ]	/* 31 values pushed */
79 76 38 34 4 11 4 160 61 2 12 11 124 28 2 6 10 183 117 2 13 6 107 89 16 14 4 5 13 5 76 
MPPEM[ ]	/* MeasurePixelPerEm */
PUSHB[ ]	/* 1 value pushed */
10 
LT[ ]	/* LessThan */
IF[ ]	/* If */
NPUSHB[ ]	/* 65 values pushed */
0 11 4 12 12 11 114 0 3 12 10 12 3 10 128 7 1 6 0 13 5 6 13 105 0 2 2 39 77 0 4 4 1 97 0 1 1 37 77 15 1 10 10 12 97 16 1 12 12 46 77 0 5 5 0 97 14 9 8 3 0 0 38 0 78 
ELSE[ ]	/* Else */
MPPEM[ ]	/* MeasurePixelPerEm */
PUSHB[ ]	/* 1 value pushed */
12 
LT[ ]	/* LessThan */
IF[ ]	/* If */
NPUSHB[ ]	/* 63 values pushed */
0 11 4 12 12 11 114 0 3 12 10 12 3 10 128 16 1 12 15 1 10 6 12 10 106 7 1 6 0 13 5 6 13 105 0 2 2 39 77 0 4 4 1 97 0 1 1 37 77 0 5 5 0 97 14 9 8 3 0 0 38 0 78 
ELSE[ ]	/* Else */
MPPEM[ ]	/* MeasurePixelPerEm */
PUSHB[ ]	/* 1 value pushed */
21 
LT[ ]	/* LessThan */
IF[ ]	/* If */
NPUSHB[ ]	/* 65 values pushed */
0 11 4 12 12 11 114 0 3 12 10 12 3 10 128 7 1 6 0 13 5 6 13 105 0 2 2 39 77 0 4 4 1 97 0 1 1 37 77 15 1 10 10 12 97 16 1 12 12 46 77 0 5 5 0 97 14 9 8 3 0 0 38 0 78 
ELSE[ ]	/* Else */
MPPEM[ ]	/* MeasurePixelPerEm */
PUSHB[ ]	/* 1 value pushed */
32 
LT[ ]	/* LessThan */
IF[ ]	/* If */
NPUSHB[ ]	/* 63 values pushed */
0 11 4 12 12 11 114 0 3 12 10 12 3 10 128 16 1 12 15 1 10 6 12 10 106 7 1 6 0 13 5 6 13 105 0 2 2 39 77 0 4 4 1 97 0 1 1 37 77 0 5 5 0 97 14 9 8 3 0 0 38 0 78 
ELSE[ ]	/* Else */
MPPEM[ ]	/* MeasurePixelPerEm */
PUSHB[ ]	/* 1 value pushed */
33 
LT[ ]	/* LessThan */
IF[ ]	/* If */
NPUSHB[ ]	/* 64 values pushed */
0 11 4 12 4 11 12 128 0 3 12 10 12 3 10 128 16 1 12 15 1 10 6 12 10 106 7 1 6 0 13 5 6 13 105 0 2 2 39 77 0 4 4 1 97 0 1 1 37 77 0 5 5 0 97 14 9 8 3 0 0 38 0 78 
ELSE[ ]	/* Else */
MPPEM[ ]	/* MeasurePixelPerEm */
PUSHB[ ]	/* 1 value pushed */
34 
LT[ ]	/* LessThan */
IF[ ]	/* If */
NPUSHB[ ]	/* 63 values pushed */
0 11 4 12 12 11 114 0 3 12 10 12 3 10 128 16 1 12 15 1 10 6 12 10 106 7 1 6 0 13 5 6 13 105 0 2 2 39 77 0 4 4 1 97 0 1 1 37 77 0 5 5 0 97 14 9 8 3 0 0 38 0 78 
ELSE[ ]	/* Else */
NPUSHB[ ]	/* 64 values pushed */
0 11 4 12 4 11 12 128 0 3 12 10 12 3 10 128 16 1 12 15 1 10 6 12 10 106 7 1 6 0 13 5 6 13 105 0 2 2 39 77 0 4 4 1 97 0 1 1 37 77 0 5 5 0 97 14 9 8 3 0 0 38 0 78 
EIF[ ]	/* EndIf */
EIF[ ]	/* EndIf */
EIF[ ]	/* EndIf */
EIF[ ]	/* EndIf */
EIF[ ]	/* EndIf */
EIF[ ]	/* EndIf */
NPUSHB[ ]	/* 42 values pushed */
159 158 145 144 0 0 179 176 158 168 159 168 150 149 144 157 145 157 0 143 0 141 138 137 130 127 123 121 105 100 72 69 60 58 55 52 50 47 53 17 8 23 
CALL[ ]	/* CallFunction */";
};
width = 489;
}
);
note = G;
unicode = 71;
},
{
glyphname = Gcaron;
layers = (
{
layerId = m01;
shapes = (
{
closed = 1;
nodes = (
(368,0,ls),
(375,0,o),
(391,5,o),
(397,-1,q),
(399,-2,o),
(421,-2,o),
(443,0,o),
(444,1,qs),
(452,9,o),
(445,155,o),
(449,307,qs),
(449,312,o),
(445,328,o),
(431,328,qs),
(400,330,o),
(374,330,o),
(361,331,o),
(335,333,o),
(304,336,q),
(295,328,o),
(281,328,qs),
(265,328,o),
(249,330,o),
(232,328,q),
(226,326,o),
(224,320,q),
(224,308,o),
(227,295,o),
(233,290,qs),
(259,268,o),
(304,216,o),
(333,197,q),
(341,193,o),
(374,161,o),
(408,129,o),
(414,122,q),
(414,35,l),
(411,35,o),
(362,33,o),
(293,32,o),
(224,31,o),
(175,32,o),
(173,33,qs),
(166,37,o),
(154,35,o),
(148,33,qs),
(143,32,o),
(136,34,qs),
(123,36,o),
(98,39,o),
(86,30,q),
(82,28,o),
(74,33,o),
(74,37,qs),
(74,302,ls),
(74,306,o),
(73,315,o),
(75,318,qs),
(83,329,o),
(83,343,qs),
(83,527,ls),
(83,535,o),
(79,549,o),
(74,555,q),
(74,569,o),
(81,579,o),
(81,586,q),
(77,592,o),
(73,619,o),
(74,650,qs),
(74,671,o),
(97,671,qs),
(397,671,ls),
(407,671,o),
(407,661,qs),
(407,597,o),
(407,536,o),
(408,517,o),
(408,514,qs),
(409,508,o),
(416,498,o),
(416,491,qs),
(416,481,o),
(431,482,qs),
(441,482,o),
(441,492,qs),
(441,686,ls),
(441,696,o),
(431,696,qs),
(403,697,o),
(382,696,o),
(378,699,qs),
(375,701,o),
(300,703,o),
(177,703,o),
(101,702,q),
(95,697,o),
(87,702,q),
(83,706,o),
(76,704,qs),
(63,699,o),
(35,684,o),
(43,672,q),
(47,670,o),
(47,666,qs),
(44,622,o),
(42,575,o),
(45,554,o),
(48,548,q),
(48,531,o),
(49,473,o),
(48,456,qs),
(48,452,o),
(42,444,o),
(43,442,qs),
(47,437,o),
(43,428,q),
(37,419,o),
(43,409,qs),
(45,405,o),
(48,398,o),
(48,394,qs),
(48,388,o),
(48,350,o),
(47,304,o),
(46,270,o),
(45,268,qs),
(40,256,o),
(40,248,qs),
(40,223,o),
(40,143,o),
(41,62,o),
(40,37,qs),
(39,30,o),
(50,1,o),
(59,1,qs),
(66,1,o),
(93,0,o),
(118,0,o),
(120,-2,qs),
(125,-6,o),
(136,-1,o),
(141,-1,qs),
(152,-1,l)
);
},
{
closed = 1;
nodes = (
(268,477,o),
(275,484,q),
(283,496,o),
(275,507,qs),
(269,515,o),
(256,523,o),
(246,521,q),
(227,521,o),
(206,504,o),
(206,492,qs),
(206,485,o),
(220,460,o),
(238,460,qs),
(249,460,o)
);
},
{
closed = 1;
nodes = (
(234,491,o),
(234,492,qs),
(234,499,o),
(244,499,q),
(247,500,o),
(251,496,q),
(253,492,o),
(251,490,q),
(248,483,o),
(241,483,qs),
(237,483,o)
);
},
{
closed = 1;
nodes = (
(377,199,o),
(337,233,o),
(297,267,o),
(269,294,o),
(267,299,q),
(286,301,l),
(294,303,o),
(315,305,o),
(322,300,q),
(359,298,o),
(396,297,o),
(412,296,o),
(415,292,q),
(418,291,o),
(418,255,o),
(416,209,o),
(416,192,qs),
(416,165,o),
(411,170,qs),
(407,174,o)
);
},
{
closed = 1;
nodes = (
(297,833,o),
(294,829,qs),
(292,827,o),
(279,810,o),
(277,808,qs),
(275,805,o),
(268,794,o),
(266,793,qs),
(260,790,o),
(256,790,o),
(251,792,q),
(247,797,o),
(225,817,o),
(198,840,o),
(175,856,o),
(170,856,q),
(162,858,o),
(150,856,o),
(154,847,q),
(160,841,o),
(172,828,o),
(176,821,q),
(181,818,o),
(193,803,o),
(199,800,q),
(207,793,o),
(214,784,o),
(221,778,qs),
(229,771,o),
(245,757,o),
(249,746,qs),
(251,742,o),
(259,741,o),
(261,745,q),
(272,757,o),
(303,791,o),
(333,826,o),
(353,849,o),
(352,850,qs),
(350,852,o),
(344,857,o),
(342,857,q),
(337,859,o),
(330,857,q),
(316,850,o)
);
}
);
userData = {
assembly = "NPUSHB[ ]	/* 31 values pushed */
79 76 38 34 4 11 4 160 61 2 12 11 124 28 2 6 10 183 117 2 13 6 107 89 16 14 4 5 13 5 76 
MPPEM[ ]	/* MeasurePixelPerEm */
PUSHB[ ]	/* 1 value pushed */
10 
LT[ ]	/* LessThan */
IF[ ]	/* If */
NPUSHB[ ]	/* 65 values pushed */
0 11 4 12 12 11 114 0 3 12 10 12 3 10 128 7 1 6 0 13 5 6 13 105 0 2 2 39 77 0 4 4 1 97 0 1 1 37 77 15 1 10 10 12 97 16 1 12 12 46 77 0 5 5 0 97 14 9 8 3 0 0 38 0 78 
ELSE[ ]	/* Else */
MPPEM[ ]	/* MeasurePixelPerEm */
PUSHB[ ]	/* 1 value pushed */
12 
LT[ ]	/* LessThan */
IF[ ]	/* If */
NPUSHB[ ]	/* 63 values pushed */
0 11 4 12 12 11 114 0 3 12 10 12 3 10 128 16 1 12 15 1 10 6 12 10 106 7 1 6 0 13 5 6 13 105 0 2 2 39 77 0 4 4 1 97 0 1 1 37 77 0 5 5 0 97 14 9 8 3 0 0 38 0 78 
ELSE[ ]	/* Else */
MPPEM[ ]	/* MeasurePixelPerEm */
PUSHB[ ]	/* 1 value pushed */
21 
LT[ ]	/* LessThan */
IF[ ]	/* If */
NPUSHB[ ]	/* 65 values pushed */
0 11 4 12 12 11 114 0 3 12 10 12 3 10 128 7 1 6 0 13 5 6 13 105 0 2 2 39 77 0 4 4 1 97 0 1 1 37 77 15 1 10 10 12 97 16 1 12 12 46 77 0 5 5 0 97 14 9 8 3 0 0 38 0 78 
ELSE[ ]	/* Else */
MPPEM[ ]	/* MeasurePixelPerEm */
PUSHB[ ]	/* 1 value pushed */
32 
LT[ ]	/* LessThan */
IF[ ]	/* If */
NPUSHB[ ]	/* 63 values pushed */
0 11 4 12 12 11 114 0 3 12 10 12 3 10 128 16 1 12 15 1 10 6 12 10 106 7 1 6 0 13 5 6 13 105 0 2 2 39 77 0 4 4 1 97 0 1 1 37 77 0 5 5 0 97 14 9 8 3 0 0 38 0 78 
ELSE[ ]	/* Else */
MPPEM[ ]	/* MeasurePixelPerEm */
PUSHB[ ]	/* 1 value pushed */
33 
LT[ ]	/* LessThan */
IF[ ]	/* If */
NPUSHB[ ]	/* 64 values pushed */
0 11 4 12 4 11 12 128 0 3 12 10 12 3 10 128 16 1 12 15 1 10 6 12 10 106 7 1 6 0 13 5 6 13 105 0 2 2 39 77 0 4 4 1 97 0 1 1 37 77 0 5 5 0 97 14 9 8 3 0 0 38 0 78 
ELSE[ ]	/* Else */
MPPEM[ ]	/* MeasurePixelPerEm */
PUSHB[ ]	/* 1 value pushed */
34 
LT[ ]	/* LessThan */
IF[ ]	/* If */
NPUSHB[ ]	/* 63 values pushed */
0 11 4 12 12 11 114 0 3 12 10 12 3 10 128 16 1 12 15 1 10 6 12 10 106 7 1 6 0 13 5 6 13 105 0 2 2 39 77 0 4 4 1 97 0 1 1 37 77 0 5 5 0 97 14 9 8 3 0 0 38 0 78 
ELSE[ ]	/* Else */
NPUSHB[ ]	/* 64 values pushed */
0 11 4 12 4 11 12 128 0 3 12 10 12 3 10 128 16 1 12 15 1 10 6 12 10 106 7 1 6 0 13 5 6 13 105 0 2 2 39 77 0 4 4 1 97 0 1 1 37 77 0 5 5 0 97 14 9 8 3 0 0 38 0 78 
EIF[ ]	/* EndIf */
EIF[ ]	/* EndIf */
EIF[ ]	/* EndIf */
EIF[ ]	/* EndIf */
EIF[ ]	/* EndIf */
EIF[ ]	/* EndIf */
NPUSHB[ ]	/* 42 values pushed */
159 158 145 144 0 0 179 176 158 168 159 168 150 149 144 157 145 157 0 143 0 141 138 137 130 127 123 121 105 100 72 69 60 58 55 52 50 47 53 17 8 23 
CALL[ ]	/* CallFunction */";
};
width = 489;
}
);
note = Gcaron;
unicode = 486;
},
{
glyphname = uni0122;
layers = (
{
layerId = m01;
shapes = (
{
closed = 1;
nodes = (
(368,0,ls),
(375,0,o),
(391,5,o),
(397,-1,q),
(399,-2,o),
(421,-2,o),
(443,0,o),
(444,1,qs),
(452,9,o),
(445,155,o),
(449,307,qs),
(449,312,o),
(445,328,o),
(431,328,qs),
(400,330,o),
(374,330,o),
(361,331,o),
(335,333,o),
(304,336,q),
(295,328,o),
(281,328,qs),
(265,328,o),
(249,330,o),
(232,328,q),
(226,326,o),
(224,320,q),
(224,308,o),
(227,295,o),
(233,290,qs),
(259,268,o),
(304,216,o),
(333,197,q),
(341,193,o),
(374,161,o),
(408,129,o),
(414,122,q),
(414,35,l),
(411,35,o),
(362,33,o),
(293,32,o),
(224,31,o),
(175,32,o),
(173,33,qs),
(166,37,o),
(154,35,o),
(148,33,qs),
(143,32,o),
(136,34,qs),
(123,36,o),
(98,39,o),
(86,30,q),
(82,28,o),
(74,33,o),
(74,37,qs),
(74,302,ls),
(74,306,o),
(73,315,o),
(75,318,qs),
(83,329,o),
(83,343,qs),
(83,527,ls),
(83,535,o),
(79,549,o),
(74,555,q),
(74,569,o),
(81,579,o),
(81,586,q),
(77,592,o),
(73,619,o),
(74,650,qs),
(74,671,o),
(97,671,qs),
(397,671,ls),
(407,671,o),
(407,661,qs),
(407,597,o),
(407,536,o),
(408,517,o),
(408,514,qs),
(409,508,o),
(416,498,o),
(416,491,qs),
(416,481,o),
(431,482,qs),
(441,482,o),
(441,492,qs),
(441,686,ls),
(441,696,o),
(431,696,qs),
(403,697,o),
(382,696,o),
(378,699,qs),
(375,701,o),
(300,703,o),
(177,703,o),
(101,702,q),
(95,697,o),
(87,702,q),
(83,706,o),
(76,704,qs),
(63,699,o),
(35,684,o),
(43,672,q),
(47,670,o),
(47,666,qs),
(44,622,o),
(42,575,o),
(45,554,o),
(48,548,q),
(48,531,o),
(49,473,o),
(48,456,qs),
(48,452,o),
(42,444,o),
(43,442,qs),
(47,437,o),
(43,428,q),
(37,419,o),
(43,409,qs),
(45,405,o),
(48,398,o),
(48,394,qs),
(48,388,o),
(48,350,o),
(47,304,o),
(46,270,o),
(45,268,qs),
(40,256,o),
(40,248,qs),
(40,223,o),
(40,143,o),
(41,62,o),
(40,37,qs),
(39,30,o),
(50,1,o),
(59,1,qs),
(66,1,o),
(93,0,o),
(118,0,o),
(120,-2,qs),
(125,-6,o),
(136,-1,o),
(141,-1,qs),
(152,-1,l)
);
},
{
closed = 1;
nodes = (
(268,477,o),
(275,484,q),
(283,496,o),
(275,507,qs),
(269,515,o),
(256,523,o),
(246,521,q),
(227,521,o),
(206,504,o),
(206,492,qs),
(206,485,o),
(220,460,o),
(238,460,qs),
(249,460,o)
);
},
{
closed = 1;
nodes = (
(234,491,o),
(234,492,qs),
(234,499,o),
(244,499,q),
(247,500,o),
(251,496,q),
(253,492,o),
(251,490,q),
(248,483,o),
(241,483,qs),
(237,483,o)
);
},
{
closed = 1;
nodes = (
(377,199,o),
(337,233,o),
(297,267,o),
(269,294,o),
(267,299,q),
(286,301,l),
(294,303,o),
(315,305,o),
(322,300,q),
(359,298,o),
(396,297,o),
(412,296,o),
(415,292,q),
(418,291,o),
(418,255,o),
(416,209,o),
(416,192,qs),
(416,165,o),
(411,170,qs),
(407,174,o)
);
},
{
closed = 1;
nodes = (
(218,-201,o),
(220,-198,q),
(224,-198,o),
(241,-174,o),
(243,-172,q),
(252,-158,o),
(255,-143,o),
(262,-129,qs),
(268,-113,o),
(281,-102,qs),
(294,-91,o),
(298,-65,o),
(299,-48,qs),
(300,-37,o),
(293,-27,o),
(287,-31,q),
(282,-36,o),
(262,-51,o),
(260,-58,qs),
(257,-69,o),
(246,-91,o),
(240,-103,qs),
(232,-124,o),
(212,-159,o),
(198,-194,q),
(201,-199,o)
);
}
);
userData = {
assembly = "NPUSHB[ ]	/* 35 values pushed */
79 76 38 34 4 11 4 160 61 2 12 11 124 28 2 6 10 183 117 2 13 6 107 89 16 14 4 5 13 5 76 201 1 0 73 
MPPEM[ ]	/* MeasurePixelPerEm */
PUSHB[ ]	/* 1 value pushed */
10 
LT[ ]	/* LessThan */
IF[ ]	/* If */
NPUSHB[ ]	/* 65 values pushed */
0 11 4 12 12 11 114 0 3 12 10 12 3 10 128 7 1 6 0 13 5 6 13 105 0 2 2 39 77 0 4 4 1 97 0 1 1 37 77 15 1 10 10 12 97 16 1 12 12 46 77 0 5 5 0 97 14 9 8 3 0 0 38 0 78 
ELSE[ ]	/* Else */
MPPEM[ ]	/* MeasurePixelPerEm */
PUSHB[ ]	/* 1 value pushed */
12 
LT[ ]	/* LessThan */
IF[ ]	/* If */
NPUSHB[ ]	/* 63 values pushed */
0 11 4 12 12 11 114 0 3 12 10 12 3 10 128 16 1 12 15 1 10 6 12 10 106 7 1 6 0 13 5 6 13 105 0 2 2 39 77 0 4 4 1 97 0 1 1 37 77 0 5 5 0 97 14 9 8 3 0 0 38 0 78 
ELSE[ ]	/* Else */
MPPEM[ ]	/* MeasurePixelPerEm */
PUSHB[ ]	/* 1 value pushed */
21 
LT[ ]	/* LessThan */
IF[ ]	/* If */
NPUSHB[ ]	/* 65 values pushed */
0 11 4 12 12 11 114 0 3 12 10 12 3 10 128 7 1 6 0 13 5 6 13 105 0 2 2 39 77 0 4 4 1 97 0 1 1 37 77 15 1 10 10 12 97 16 1 12 12 46 77 0 5 5 0 97 14 9 8 3 0 0 38 0 78 
ELSE[ ]	/* Else */
MPPEM[ ]	/* MeasurePixelPerEm */
PUSHB[ ]	/* 1 value pushed */
32 
LT[ ]	/* LessThan */
IF[ ]	/* If */
NPUSHB[ ]	/* 63 values pushed */
0 11 4 12 12 11 114 0 3 12 10 12 3 10 128 16 1 12 15 1 10 6 12 10 106 7 1 6 0 13 5 6 13 105 0 2 2 39 77 0 4 4 1 97 0 1 1 37 77 0 5 5 0 97 14 9 8 3 0 0 38 0 78 
ELSE[ ]	/* Else */
MPPEM[ ]	/* MeasurePixelPerEm */
PUSHB[ ]	/* 1 value pushed */
33 
LT[ ]	/* LessThan */
IF[ ]	/* If */
NPUSHB[ ]	/* 64 values pushed */
0 11 4 12 4 11 12 128 0 3 12 10 12 3 10 128 16 1 12 15 1 10 6 12 10 106 7 1 6 0 13 5 6 13 105 0 2 2 39 77 0 4 4 1 97 0 1 1 37 77 0 5 5 0 97 14 9 8 3 0 0 38 0 78 
ELSE[ ]	/* Else */
MPPEM[ ]	/* MeasurePixelPerEm */
PUSHB[ ]	/* 1 value pushed */
34 
LT[ ]	/* LessThan */
IF[ ]	/* If */
NPUSHB[ ]	/* 63 values pushed */
0 11 4 12 12 11 114 0 3 12 10 12 3 10 128 16 1 12 15 1 10 6 12 10 106 7 1 6 0 13 5 6 13 105 0 2 2 39 77 0 4 4 1 97 0 1 1 37 77 0 5 5 0 97 14 9 8 3 0 0 38 0 78 
ELSE[ ]	/* Else */
NPUSHB[ ]	/* 64 values pushed */
0 11 4 12 4 11 12 128 0 3 12 10 12 3 10 128 16 1 12 15 1 10 6 12 10 106 7 1 6 0 13 5 6 13 105 0 2 2 39 77 0 4 4 1 97 0 1 1 37 77 0 5 5 0 97 14 9 8 3 0 0 38 0 78 
EIF[ ]	/* EndIf */
EIF[ ]	/* EndIf */
EIF[ ]	/* EndIf */
EIF[ ]	/* EndIf */
EIF[ ]	/* EndIf */
EIF[ ]	/* EndIf */
NPUSHB[ ]	/* 42 values pushed */
159 158 145 144 0 0 179 176 158 168 159 168 150 149 144 157 145 157 0 143 0 141 138 137 130 127 123 121 105 100 72 69 60 58 55 52 50 47 53 17 8 23 
CALL[ ]	/* CallFunction */";
};
width = 489;
}
);
note = uni0122;
unicode = 290;
},
{
glyphname = uni0193;
layers = (
{
layerId = m01;
shapes = (
{
closed = 1;
nodes = (
(368,0,ls),
(375,0,o),
(391,5,o),
(397,-1,q),
(399,-2,o),
(421,-2,o),
(443,0,o),
(444,1,qs),
(452,9,o),
(445,155,o),
(449,307,qs),
(449,312,o),
(445,328,o),
(431,328,qs),
(400,330,o),
(374,330,o),
(361,331,o),
(335,333,o),
(304,336,q),
(295,328,o),
(281,328,qs),
(265,328,o),
(249,330,o),
(232,328,q),
(226,326,o),
(224,320,q),
(224,308,o),
(227,295,o),
(233,290,qs),
(259,268,o),
(304,216,o),
(333,197,q),
(341,193,o),
(374,161,o),
(408,129,o),
(414,122,q),
(414,35,l),
(411,35,o),
(362,33,o),
(293,32,o),
(224,31,o),
(175,32,o),
(173,33,qs),
(166,37,o),
(154,35,o),
(148,33,qs),
(143,32,o),
(136,34,qs),
(123,36,o),
(98,39,o),
(86,30,q),
(82,28,o),
(74,33,o),
(74,37,qs),
(74,302,ls),
(74,306,o),
(73,315,o),
(75,318,qs),
(83,329,o),
(83,343,qs),
(83,527,ls),
(83,535,o),
(79,549,o),
(74,555,q),
(74,569,o),
(81,579,o),
(81,586,q),
(77,592,o),
(73,619,o),
(74,650,qs),
(74,671,o),
(97,671,qs),
(397,671,ls),
(411,671,o),
(430,667,o),
(441,672,o),
(441,686,qs),
(441,687,ls),
(443,700,o),
(441,749,o),
(442,800,o),
(454,836,o),
(469,835,qs),
(474,835,o),
(497,836,o),
(502,834,q),
(509,833,o),
(514,835,o),
(528,837,o),
(547,834,qs),
(552,833,o),
(562,839,o),
(568,836,q),
(581,844,o),
(579,855,o),
(568,860,q),
(556,868,o),
(537,871,o),
(523,866,qs),
(519,865,o),
(489,865,o),
(484,865,qs),
(461,866,o),
(456,866,o),
(452,866,qs),
(424,865,o),
(408,808,o),
(408,746,qs),
(408,736,o),
(413,715,o),
(408,708,qs),
(406,705,o),
(407,696,q),
(381,696,o),
(378,699,qs),
(375,701,o),
(300,703,o),
(177,703,o),
(101,702,q),
(95,697,o),
(87,702,q),
(83,706,o),
(76,704,qs),
(63,699,o),
(35,684,o),
(43,672,q),
(47,670,o),
(47,666,qs),
(44,622,o),
(42,575,o),
(45,554,o),
(48,548,q),
(48,531,o),
(49,473,o),
(48,456,qs),
(48,452,o),
(42,444,o),
(43,442,qs),
(47,437,o),
(43,428,q),
(37,419,o),
(43,409,qs),
(45,405,o),
(48,398,o),
(48,394,qs),
(48,388,o),
(48,350,o),
(47,304,o),
(46,270,o),
(45,268,qs),
(40,256,o),
(40,248,qs),
(40,223,o),
(40,143,o),
(41,62,o),
(40,37,qs),
(39,30,o),
(50,1,o),
(59,1,qs),
(66,1,o),
(93,0,o),
(118,0,o),
(120,-2,qs),
(125,-6,o),
(136,-1,o),
(141,-1,qs),
(152,-1,l)
);
},
{
closed = 1;
nodes = (
(268,477,o),
(275,484,q),
(283,496,o),
(275,507,qs),
(269,515,o),
(256,523,o),
(246,521,q),
(227,521,o),
(206,504,o),
(206,492,qs),
(206,485,o),
(220,460,o),
(238,460,qs),
(249,460,o)
);
},
{
closed = 1;
nodes = (
(234,491,o),
(234,492,qs),
(234,499,o),
(244,499,q),
(247,500,o),
(251,496,q),
(253,492,o),
(251,490,q),
(248,483,o),
(241,483,qs),
(237,483,o)
);
},
{
closed = 1;
nodes = (
(377,199,o),
(337,233,o),
(297,267,o),
(269,294,o),
(267,299,q),
(286,301,l),
(294,303,o),
(315,305,o),
(322,300,q),
(359,298,o),
(396,297,o),
(412,296,o),
(415,292,q),
(418,291,o),
(418,255,o),
(416,209,o),
(416,192,qs),
(416,165,o),
(411,170,qs),
(407,174,o)
);
}
);
userData = {
assembly = "NPUSHB[ ]	/* 38 values pushed */
73 1 4 3 88 1 5 2 102 99 38 34 4 12 5 183 1 13 12 147 28 2 7 11 206 140 2 14 7 130 112 16 14 4 6 14 7 76 
MPPEM[ ]	/* MeasurePixelPerEm */
PUSHB[ ]	/* 1 value pushed */
10 
LT[ ]	/* LessThan */
IF[ ]	/* If */
NPUSHB[ ]	/* 65 values pushed */
0 12 5 13 13 12 114 0 3 0 4 1 3 4 105 8 1 7 0 14 6 7 14 105 0 2 2 39 77 0 5 5 1 97 0 1 1 37 77 16 1 11 11 13 97 17 1 13 13 46 77 0 6 6 0 97 15 10 9 3 0 0 38 0 78 
ELSE[ ]	/* Else */
MPPEM[ ]	/* MeasurePixelPerEm */
PUSHB[ ]	/* 1 value pushed */
12 
LT[ ]	/* LessThan */
IF[ ]	/* If */
NPUSHB[ ]	/* 63 values pushed */
0 12 5 13 13 12 114 0 3 0 4 1 3 4 105 17 1 13 16 1 11 7 13 11 106 8 1 7 0 14 6 7 14 105 0 2 2 39 77 0 5 5 1 97 0 1 1 37 77 0 6 6 0 97 15 10 9 3 0 0 38 0 78 
ELSE[ ]	/* Else */
MPPEM[ ]	/* MeasurePixelPerEm */
PUSHB[ ]	/* 1 value pushed */
21 
LT[ ]	/* LessThan */
IF[ ]	/* If */
NPUSHB[ ]	/* 65 values pushed */
0 12 5 13 13 12 114 0 3 0 4 1 3 4 105 8 1 7 0 14 6 7 14 105 0 2 2 39 77 0 5 5 1 97 0 1 1 37 77 16 1 11 11 13 97 17 1 13 13 46 77 0 6 6 0 97 15 10 9 3 0 0 38 0 78 
ELSE[ ]	/* Else */
MPPEM[ ]	/* MeasurePixelPerEm */
PUSHB[ ]	/* 1 value pushed */
32 
LT[ ]	/* LessThan */
IF[ ]	/* If */
NPUSHB[ ]	/* 63 values pushed */
0 12 5 13 13 12 114 0 3 0 4 1 3 4 105 17 1 13 16 1 11 7 13 11 106 8 1 7 0 14 6 7 14 105 0 2 2 39 77 0 5 5 1 97 0 1 1 37 77 0 6 6 0 97 15 10 9 3 0 0 38 0 78 
ELSE[ ]	/* Else */
MPPEM[ ]	/* MeasurePixelPerEm */
PUSHB[ ]	/* 1 value pushed */
33 
LT[ ]	/* LessThan */
IF[ ]	/* If */
NPUSHB[ ]	/* 64 values pushed */
0 12 5 13 5 12 13 128 0 3 0 4 1 3 4 105 17 1 13 16 1 11 7 13 11 106 8 1 7 0 14 6 7 14 105 0 2 2 39 77 0 5 5 1 97 0 1 1 37 77 0 6 6 0 97 15 10 9 3 0 0 38 0 78 
ELSE[ ]	/* Else */
MPPEM[ ]	/* MeasurePixelPerEm */
PUSHB[ ]	/* 1 value pushed */
34 
LT[ ]	/* LessThan */
IF[ ]	/* If */
NPUSHB[ ]	/* 63 values pushed */
0 12 5 13 13 12 114 0 3 0 4 1 3 4 105 17 1 13 16 1 11 7 13 11 106 8 1 7 0 14 6 7 14 105 0 2 2 39 77 0 5 5 1 97 0 1 1 37 77 0 6 6 0 97 15 10 9 3 0 0 38 0 78 
ELSE[ ]	/* Else */
NPUSHB[ ]	/* 64 values pushed */
0 12 5 13 5 12 13 128 0 3 0 4 1 3 4 105 17 1 13 16 1 11 7 13 11 106 8 1 7 0 14 6 7 14 105 0 2 2 39 77 0 5 5 1 97 0 1 1 37 77 0 6 6 0 97 15 10 9 3 0 0 38 0 78 
EIF[ ]	/* EndIf */
EIF[ ]	/* EndIf */
EIF[ ]	/* EndIf */
EIF[ ]	/* EndIf */
EIF[ ]	/* EndIf */
EIF[ ]	/* EndIf */
NPUSHB[ ]	/* 44 values pushed */
182 181 168 167 0 0 202 199 181 191 182 191 173 172 167 180 168 180 0 166 0 164 161 160 153 150 146 144 128 123 95 92 84 80 66 60 53 52 50 47 53 18 8 23 
CALL[ ]	/* CallFunction */";
};
width = 480;
}
);
note = uni0193;
unicode = 403;
},
{
glyphname = uni0241;
layers = (
{
layerId = m01;
shapes = (
{
closed = 1;
nodes = (
(134,93,o),
(135,171,o),
(137,243,o),
(141,292,o),
(143,298,qs),
(145,303,o),
(160,309,o),
(166,310,qs),
(171,311,o),
(180,310,o),
(184,310,q),
(206,315,o),
(227,324,o),
(236,324,qs),
(241,324,o),
(274,341,o),
(323,360,o),
(350,363,qs),
(361,365,o),
(375,396,o),
(375,411,qs),
(375,423,o),
(371,428,q),
(379,434,o),
(375,447,o),
(370,453,q),
(371,513,ls),
(371,518,o),
(380,527,o),
(375,532,qs),
(367,539,o),
(378,548,o),
(378,553,qs),
(377,588,o),
(377,658,o),
(377,693,qs),
(377,700,o),
(365,712,o),
(358,712,qs),
(38,712,ls),
(26,712,o),
(20,707,o),
(15,694,q),
(11,687,o),
(10,671,o),
(14,663,qs),
(25,646,o),
(15,627,q),
(12,623,o),
(18,617,o),
(17,614,qs),
(16,609,o),
(7,591,o),
(11,587,q),
(16,578,o),
(20,559,o),
(20,549,qs),
(20,543,o),
(19,531,o),
(19,525,qs),
(19,511,o),
(32,501,qs),
(34,499,o),
(40,491,o),
(45,496,q),
(48,501,o),
(71,514,o),
(96,529,o),
(99,535,qs),
(110,559,o),
(136,567,qs),
(144,569,o),
(145,579,o),
(149,581,qs),
(159,588,o),
(177,591,o),
(183,601,qs),
(193,620,o),
(227,647,o),
(244,660,q),
(249,665,o),
(259,674,o),
(261,678,q),
(261,679,o),
(278,678,o),
(298,678,o),
(300,678,qs),
(334,678,ls),
(343,678,o),
(343,667,qs),
(343,654,o),
(343,613,o),
(343,571,o),
(343,539,o),
(344,536,q),
(347,531,o),
(340,506,o),
(336,482,o),
(341,476,q),
(340,470,o),
(335,427,o),
(335,406,qs),
(335,398,o),
(328,398,qs),
(323,398,o),
(303,391,o),
(260,374,o),
(220,357,qs),
(215,355,o),
(202,360,o),
(200,356,qs),
(194,344,o),
(181,345,o),
(174,345,qs),
(160,346,o),
(148,343,o),
(136,339,o),
(121,338,qs),
(114,338,o),
(103,321,o),
(106,313,qs),
(110,303,o),
(108,268,o),
(108,259,q),
(106,257,o),
(104,223,o),
(102,175,o),
(101,126,o),
(101,92,o),
(101,90,qs),
(101,6,l),
(102,-2,o),
(130,0,o),
(134,3,q),
(134,25,o)
);
},
{
closed = 1;
nodes = (
(47,578,o),
(47,626,o),
(51,669,o),
(56,678,q),
(71,678,o),
(100,679,o),
(116,679,qs),
(222,679,l),
(197,659,o),
(149,619,o),
(123,599,qs),
(107,586,o),
(71,549,o),
(50,542,q),
(49,543,o)
);
}
);
userData = {
assembly = "NPUSHB[ ]	/* 14 values pushed */
111 108 101 80 4 3 4 1 76 3 0 2 6 73 
MPPEM[ ]	/* MeasurePixelPerEm */
PUSHB[ ]	/* 1 value pushed */
41 
LT[ ]	/* LessThan */
IF[ ]	/* If */
NPUSHB[ ]	/* 45 values pushed */
0 3 4 2 4 3 2 128 0 2 1 4 2 1 126 0 1 0 4 1 0 126 0 0 6 4 0 6 126 0 6 6 132 7 1 4 4 5 95 0 5 5 37 4 78 
ELSE[ ]	/* Else */
NPUSHB[ ]	/* 50 values pushed */
0 3 4 2 4 3 2 128 0 2 1 4 2 1 126 0 1 0 4 1 0 126 0 0 6 4 0 6 126 0 6 6 132 0 5 4 4 5 87 0 5 5 4 97 7 1 4 5 4 81 
EIF[ ]	/* EndIf */
NPUSHB[ ]	/* 14 values pushed */
145 141 121 119 95 93 94 36 33 35 47 8 8 27 
CALL[ ]	/* CallFunction */";
};
width = 418;
}
);
note = uni0241;
unicode = 577;
},
{
glyphname = H;
layers = (
{
layerId = m01;
shapes = (
{
closed = 1;
nodes = (
(73,10,o),
(74,15,q),
(73,26,o),
(73,82,o),
(73,155,o),
(73,233,o),
(74,301,o),
(74,323,qs),
(74,334,o),
(82,337,o),
(99,337,qs),
(389,337,ls),
(417,337,o),
(428,327,o),
(428,303,qs),
(428,241,o),
(428,169,o),
(428,135,o),
(429,122,o),
(429,119,qs),
(430,112,o),
(419,99,o),
(428,92,qs),
(429,91,o),
(427,87,o),
(426,85,qs),
(417,69,o),
(421,37,o),
(422,18,qs),
(422,9,o),
(439,0,o),
(455,6,o),
(455,19,qs),
(455,24,o),
(455,41,o),
(455,89,o),
(454,139,q),
(462,162,l),
(462,185,o),
(463,271,o),
(463,369,o),
(464,455,o),
(464,478,qs),
(464,482,o),
(465,509,o),
(466,542,o),
(469,568,o),
(471,571,q),
(469,574,o),
(466,604,o),
(465,641,o),
(464,673,o),
(464,677,qs),
(464,681,ls),
(464,689,o),
(449,698,o),
(440,697,qs),
(437,697,o),
(430,694,o),
(430,692,qs),
(429,686,o),
(429,672,o),
(429,665,qs),
(429,393,ls),
(429,374,o),
(408,370,qs),
(404,369,o),
(396,368,o),
(391,368,qs),
(89,368,ls),
(83,368,o),
(77,370,q),
(73,374,o),
(78,380,o),
(79,384,q),
(83,392,o),
(83,402,qs),
(83,473,o),
(83,601,o),
(84,671,qs),
(84,681,o),
(63,703,o),
(57,698,qs),
(45,686,o),
(41,677,o),
(42,675,q),
(48,669,o),
(48,656,o),
(48,649,qs),
(48,580,o),
(47,516,o),
(44,496,o),
(41,493,q),
(40,475,o),
(40,453,o),
(40,433,qs),
(40,8,ls),
(40,0,o),
(52,0,qs),
(60,1,o)
);
},
{
closed = 1;
nodes = (
(287,512,o),
(288,519,qs),
(288,524,o),
(280,535,o),
(278,541,qs),
(275,555,o),
(243,556,o),
(225,543,q),
(219,537,o),
(217,526,q),
(213,517,o),
(222,508,qs),
(227,503,o),
(248,491,o),
(270,487,o),
(275,492,q),
(279,498,o)
);
},
{
closed = 1;
nodes = (
(245,515,o),
(243,517,qs),
(241,519,o),
(242,522,q),
(242,525,o),
(244,527,q),
(249,530,o),
(257,530,o),
(258,526,q),
(259,525,o),
(261,522,o),
(261,520,qs),
(261,518,o),
(259,515,o),
(258,513,q),
(256,511,o)
);
},
{
closed = 1;
nodes = (
(279,155,o),
(285,162,qs),
(293,174,o),
(285,185,qs),
(278,193,o),
(259,209,o),
(248,209,qs),
(230,209,o),
(216,184,o),
(216,177,qs),
(216,165,o),
(237,148,o),
(256,148,qs),
(266,147,o)
);
},
{
closed = 1;
nodes = (
(244,178,qs),
(244,180,o),
(247,187,o),
(251,187,qs),
(258,187,o),
(261,180,q),
(263,179,o),
(261,174,q),
(257,170,o),
(254,171,q),
(244,171,o)
);
}
);
userData = {
assembly = "NPUSHB[ ]	/* 81 values pushed */
6 1 1 3 136 1 7 6 61 1 4 7 97 62 2 0 4 4 76 13 1 3 74 0 3 1 3 133 0 1 0 2 5 1 2 104 0 5 0 6 7 5 6 105 8 1 7 0 4 0 7 4 105 0 0 0 38 0 78 147 147 147 157 147 157 154 152 140 138 134 133 110 109 89 86 30 28 16 9 8 23 
CALL[ ]	/* CallFunction */";
};
width = 511;
}
);
note = H;
unicode = 72;
},
{
glyphname = Hbar;
layers = (
{
layerId = m01;
shapes = (
{
closed = 1;
nodes = (
(137,12,o),
(138,17,q),
(137,28,o),
(137,83,o),
(137,156,o),
(137,233,o),
(138,301,o),
(138,323,qs),
(138,334,o),
(146,337,o),
(163,337,qs),
(453,337,ls),
(481,337,o),
(492,327,o),
(492,303,qs),
(492,241,o),
(492,169,o),
(492,134,o),
(493,121,o),
(493,118,qs),
(494,111,o),
(483,98,o),
(492,91,qs),
(493,90,o),
(491,86,o),
(490,84,qs),
(481,68,o),
(493,36,o),
(494,17,qs),
(494,8,o),
(511,-1,o),
(527,5,o),
(527,18,qs),
(527,80,o),
(527,216,o),
(527,347,o),
(528,455,o),
(529,524,o),
(529,530,q),
(559,531,o),
(614,530,o),
(629,537,q),
(627,544,l),
(612,551,o),
(571,560,o),
(538,562,o),
(533,560,q),
(533,561,o),
(532,593,o),
(530,636,o),
(528,673,o),
(528,677,qs),
(528,681,ls),
(528,689,o),
(513,698,o),
(504,697,qs),
(501,697,o),
(494,694,o),
(494,692,qs),
(493,686,o),
(493,672,o),
(493,665,qs),
(493,562,l),
(471,562,ls),
(460,562,o),
(403,562,o),
(329,562,o),
(255,562,o),
(197,563,o),
(186,563,qs),
(176,563,o),
(157,564,o),
(147,564,q),
(147,590,o),
(148,643,o),
(148,671,qs),
(148,681,o),
(127,703,o),
(121,698,qs),
(109,686,o),
(105,677,o),
(106,675,q),
(112,669,o),
(112,656,o),
(112,649,qs),
(112,566,l),
(67,566,ls),
(48,566,o),
(22,557,o),
(7,556,qs),
(1,555,o),
(0,538,o),
(5,538,qs),
(21,539,o),
(53,537,o),
(70,537,qs),
(77,537,o),
(90,535,o),
(97,536,qs),
(111,539,l),
(110,506,o),
(104,466,o),
(104,433,qs),
(104,10,ls),
(104,2,o),
(116,2,qs),
(124,3,o)
);
},
{
closed = 1;
nodes = (
(150,370,q),
(146,374,o),
(142,380,o),
(143,384,q),
(147,392,o),
(147,402,qs),
(147,538,l),
(167,538,o),
(203,536,o),
(216,536,qs),
(233,535,o),
(274,537,o),
(290,537,qs),
(296,537,o),
(307,537,o),
(311,535,q),
(326,531,o),
(358,534,o),
(373,534,qs),
(390,534,o),
(422,536,o),
(438,535,qs),
(449,535,o),
(477,534,o),
(493,534,q),
(493,393,ls),
(493,377,o),
(469,368,o),
(455,368,qs),
(162,368,ls),
(156,368,o)
);
}
);
userData = {
assembly = "MPPEM[ ]	/* MeasurePixelPerEm */
PUSHB[ ]	/* 1 value pushed */
10 
LT[ ]	/* LessThan */
IF[ ]	/* If */
NPUSHB[ ]	/* 23 values pushed */
6 1 1 4 133 1 7 5 104 1 0 6 3 76 64 1 1 1 75 24 1 2 74 
ELSE[ ]	/* Else */
MPPEM[ ]	/* MeasurePixelPerEm */
PUSHB[ ]	/* 1 value pushed */
45 
LT[ ]	/* LessThan */
IF[ ]	/* If */
NPUSHB[ ]	/* 23 values pushed */
6 1 1 2 133 1 7 5 104 1 0 6 3 76 64 1 1 1 75 24 1 2 74 
ELSE[ ]	/* Else */
NPUSHB[ ]	/* 23 values pushed */
6 1 1 4 133 1 7 5 104 1 0 6 3 76 64 1 1 1 75 24 1 2 74 
EIF[ ]	/* EndIf */
EIF[ ]	/* EndIf */
MPPEM[ ]	/* MeasurePixelPerEm */
PUSHB[ ]	/* 1 value pushed */
10 
LT[ ]	/* LessThan */
IF[ ]	/* If */
NPUSHB[ ]	/* 34 values pushed */
3 1 2 9 8 2 1 5 2 1 103 0 4 0 5 7 4 5 105 10 1 7 0 6 0 7 6 103 0 0 0 38 0 78 
ELSE[ ]	/* Else */
MPPEM[ ]	/* MeasurePixelPerEm */
PUSHB[ ]	/* 1 value pushed */
45 
LT[ ]	/* LessThan */
IF[ ]	/* If */
NPUSHB[ ]	/* 33 values pushed */
9 1 1 5 2 1 87 4 3 2 2 8 1 5 7 2 5 105 10 1 7 0 6 0 7 6 103 0 0 0 38 0 78 
ELSE[ ]	/* Else */
NPUSHB[ ]	/* 34 values pushed */
3 1 2 9 8 2 1 5 2 1 103 0 4 0 5 7 4 5 105 10 1 7 0 6 0 7 6 103 0 0 0 38 0 78 
EIF[ ]	/* EndIf */
EIF[ ]	/* EndIf */
NPUSHB[ ]	/* 21 values pushed */
109 107 130 123 119 112 107 137 109 137 96 93 36 63 173 37 102 16 11 8 28 
CALL[ ]	/* CallFunction */";
};
width = 629;
}
);
note = Hbar;
unicode = 294;
},
{
glyphname = uni1E2A;
layers = (
{
layerId = m01;
shapes = (
{
closed = 1;
nodes = (
(73,10,o),
(74,15,q),
(73,26,o),
(73,82,o),
(73,155,o),
(73,233,o),
(74,301,o),
(74,323,qs),
(74,334,o),
(82,337,o),
(99,337,qs),
(389,337,ls),
(417,337,o),
(428,327,o),
(428,303,qs),
(428,241,o),
(428,169,o),
(428,135,o),
(429,122,o),
(429,119,qs),
(430,112,o),
(419,99,o),
(428,92,qs),
(429,91,o),
(427,87,o),
(426,85,qs),
(417,69,o),
(421,37,o),
(422,18,qs),
(422,9,o),
(439,0,o),
(455,6,o),
(455,19,qs),
(455,24,o),
(455,41,o),
(455,89,o),
(454,139,q),
(462,162,l),
(462,185,o),
(463,271,o),
(463,369,o),
(464,455,o),
(464,478,qs),
(464,482,o),
(465,509,o),
(466,542,o),
(469,568,o),
(471,571,q),
(469,574,o),
(466,604,o),
(465,641,o),
(464,673,o),
(464,677,qs),
(464,681,ls),
(464,689,o),
(449,698,o),
(440,697,qs),
(437,697,o),
(430,694,o),
(430,692,qs),
(429,686,o),
(429,672,o),
(429,665,qs),
(429,393,ls),
(429,374,o),
(408,370,qs),
(404,369,o),
(396,368,o),
(391,368,qs),
(89,368,ls),
(83,368,o),
(77,370,q),
(73,374,o),
(78,380,o),
(79,384,q),
(83,392,o),
(83,402,qs),
(83,473,o),
(83,601,o),
(84,671,qs),
(84,681,o),
(63,703,o),
(57,698,qs),
(45,686,o),
(41,677,o),
(42,675,q),
(48,669,o),
(48,656,o),
(48,649,qs),
(48,580,o),
(47,516,o),
(44,496,o),
(41,493,q),
(40,475,o),
(40,453,o),
(40,433,qs),
(40,8,ls),
(40,0,o),
(52,0,qs),
(60,1,o)
);
},
{
closed = 1;
nodes = (
(287,512,o),
(288,519,qs),
(288,524,o),
(280,535,o),
(278,541,qs),
(275,555,o),
(243,556,o),
(225,543,q),
(219,537,o),
(217,526,q),
(213,517,o),
(222,508,qs),
(227,503,o),
(248,491,o),
(270,487,o),
(275,492,q),
(279,498,o)
);
},
{
closed = 1;
nodes = (
(245,515,o),
(243,517,qs),
(241,519,o),
(242,522,q),
(242,525,o),
(244,527,q),
(249,530,o),
(257,530,o),
(258,526,q),
(259,525,o),
(261,522,o),
(261,520,qs),
(261,518,o),
(259,515,o),
(258,513,q),
(256,511,o)
);
},
{
closed = 1;
nodes = (
(279,155,o),
(285,162,qs),
(293,174,o),
(285,185,qs),
(278,193,o),
(259,209,o),
(248,209,qs),
(230,209,o),
(216,184,o),
(216,177,qs),
(216,165,o),
(237,148,o),
(256,148,qs),
(266,147,o)
);
},
{
closed = 1;
nodes = (
(244,178,qs),
(244,180,o),
(247,187,o),
(251,187,qs),
(258,187,o),
(261,180,q),
(263,179,o),
(261,174,q),
(257,170,o),
(254,171,q),
(244,171,o)
);
},
{
closed = 1;
nodes = (
(361,-140,o),
(360,-129,qs),
(354,-50,l),
(334,-44,o),
(324,-58,o),
(324,-64,qs),
(324,-67,o),
(324,-90,o),
(325,-98,q),
(327,-104,o),
(323,-117,o),
(320,-122,q),
(308,-123,o),
(262,-124,o),
(250,-121,qs),
(247,-120,o),
(243,-117,o),
(239,-120,qs),
(236,-123,o),
(228,-123,qs),
(220,-124,o),
(203,-127,o),
(195,-125,q),
(189,-125,o),
(176,-110,o),
(181,-102,q),
(185,-73,l),
(185,-66,o),
(175,-46,o),
(164,-53,qs),
(158,-57,o),
(153,-92,o),
(153,-128,o),
(154,-136,qs),
(154,-141,o),
(167,-153,o),
(172,-153,qs),
(178,-154,o),
(215,-153,o),
(260,-151,o),
(296,-150,o),
(302,-150,qs),
(310,-150,o),
(327,-152,o),
(335,-157,qs),
(336,-158,o)
);
}
);
userData = {
assembly = "NPUSHB[ ]	/* 96 values pushed */
6 1 1 3 136 1 7 6 61 1 4 7 97 62 2 0 4 185 1 9 0 5 76 13 1 3 74 0 3 1 3 133 0 1 0 2 5 1 2 104 0 5 0 6 7 5 6 105 10 1 7 0 4 0 7 4 105 0 9 0 8 9 8 101 0 0 0 38 0 78 147 147 190 189 165 160 147 157 147 157 154 152 140 138 134 133 110 109 89 86 30 28 16 11 8 23 
CALL[ ]	/* CallFunction */";
};
width = 511;
}
);
note = uni1E2A;
unicode = 7722;
},
{
glyphname = uni021E;
layers = (
{
layerId = m01;
shapes = (
{
closed = 1;
nodes = (
(73,10,o),
(74,15,q),
(73,26,o),
(73,82,o),
(73,155,o),
(73,233,o),
(74,301,o),
(74,323,qs),
(74,334,o),
(82,337,o),
(99,337,qs),
(389,337,ls),
(417,337,o),
(428,327,o),
(428,303,qs),
(428,241,o),
(428,169,o),
(428,135,o),
(429,122,o),
(429,119,qs),
(430,112,o),
(419,99,o),
(428,92,qs),
(429,91,o),
(427,87,o),
(426,85,qs),
(417,69,o),
(421,37,o),
(422,18,qs),
(422,9,o),
(439,0,o),
(455,6,o),
(455,19,qs),
(455,24,o),
(455,41,o),
(455,89,o),
(454,139,q),
(462,162,l),
(462,185,o),
(463,271,o),
(463,369,o),
(464,455,o),
(464,478,qs),
(464,482,o),
(465,509,o),
(466,542,o),
(469,568,o),
(471,571,q),
(469,574,o),
(466,604,o),
(465,641,o),
(464,673,o),
(464,677,qs),
(464,681,ls),
(464,689,o),
(449,698,o),
(440,697,qs),
(437,697,o),
(430,694,o),
(430,692,qs),
(429,686,o),
(429,672,o),
(429,665,qs),
(429,393,ls),
(429,374,o),
(408,370,qs),
(404,369,o),
(396,368,o),
(391,368,qs),
(89,368,ls),
(83,368,o),
(77,370,q),
(73,374,o),
(78,380,o),
(79,384,q),
(83,392,o),
(83,402,qs),
(83,473,o),
(83,601,o),
(84,671,qs),
(84,681,o),
(63,703,o),
(57,698,qs),
(45,686,o),
(41,677,o),
(42,675,q),
(48,669,o),
(48,656,o),
(48,649,qs),
(48,580,o),
(47,516,o),
(44,496,o),
(41,493,q),
(40,475,o),
(40,453,o),
(40,433,qs),
(40,8,ls),
(40,0,o),
(52,0,qs),
(60,1,o)
);
},
{
closed = 1;
nodes = (
(287,512,o),
(288,519,qs),
(288,524,o),
(280,535,o),
(278,541,qs),
(275,555,o),
(243,556,o),
(225,543,q),
(219,537,o),
(217,526,q),
(213,517,o),
(222,508,qs),
(227,503,o),
(248,491,o),
(270,487,o),
(275,492,q),
(279,498,o)
);
},
{
closed = 1;
nodes = (
(245,515,o),
(243,517,qs),
(241,519,o),
(242,522,q),
(242,525,o),
(244,527,q),
(249,530,o),
(257,530,o),
(258,526,q),
(259,525,o),
(261,522,o),
(261,520,qs),
(261,518,o),
(259,515,o),
(258,513,q),
(256,511,o)
);
},
{
closed = 1;
nodes = (
(279,155,o),
(285,162,qs),
(293,174,o),
(285,185,qs),
(278,193,o),
(259,209,o),
(248,209,qs),
(230,209,o),
(216,184,o),
(216,177,qs),
(216,165,o),
(237,148,o),
(256,148,qs),
(266,147,o)
);
},
{
closed = 1;
nodes = (
(244,178,qs),
(244,180,o),
(247,187,o),
(251,187,qs),
(258,187,o),
(261,180,q),
(263,179,o),
(261,174,q),
(257,170,o),
(254,171,q),
(244,171,o)
);
},
{
closed = 1;
nodes = (
(301,836,o),
(298,832,qs),
(296,830,o),
(283,813,o),
(281,811,qs),
(279,808,o),
(272,797,o),
(270,796,qs),
(264,793,o),
(260,793,o),
(255,795,q),
(251,800,o),
(229,820,o),
(202,843,o),
(179,859,o),
(174,859,q),
(166,861,o),
(154,859,o),
(158,850,q),
(164,844,o),
(176,831,o),
(180,824,q),
(185,821,o),
(197,806,o),
(203,803,q),
(211,796,o),
(218,787,o),
(225,781,qs),
(233,774,o),
(249,760,o),
(253,749,qs),
(255,745,o),
(263,744,o),
(265,748,q),
(276,760,o),
(307,794,o),
(337,829,o),
(357,852,o),
(356,853,qs),
(354,855,o),
(348,860,o),
(346,860,q),
(341,862,o),
(334,860,q),
(320,853,o)
);
}
);
userData = {
assembly = "NPUSHB[ ]	/* 81 values pushed */
6 1 1 3 136 1 7 6 61 1 4 7 97 62 2 0 4 4 76 13 1 3 74 0 3 1 3 133 0 1 0 2 5 1 2 104 0 5 0 6 7 5 6 105 8 1 7 0 4 0 7 4 105 0 0 0 38 0 78 147 147 147 157 147 157 154 152 140 138 134 133 110 109 89 86 30 28 16 9 8 23 
CALL[ ]	/* CallFunction */";
};
width = 511;
}
);
note = uni021E;
unicode = 542;
},
{
glyphname = uniA726;
layers = (
{
layerId = m01;
shapes = (
{
closed = 1;
nodes = (
(73,10,o),
(74,15,q),
(73,26,o),
(73,82,o),
(73,155,o),
(73,233,o),
(74,301,o),
(74,323,qs),
(74,334,o),
(82,337,o),
(99,337,qs),
(389,337,ls),
(417,337,o),
(428,327,o),
(428,303,qs),
(428,241,o),
(428,169,o),
(428,135,o),
(429,122,o),
(429,119,qs),
(430,112,o),
(419,99,o),
(428,92,qs),
(429,91,o),
(427,87,o),
(426,85,qs),
(417,69,o),
(421,37,o),
(422,18,qs),
(422,13,o),
(425,10,q),
(424,7,o),
(422,1,o),
(422,-2,qs),
(425,-21,o),
(423,-35,o),
(421,-40,o),
(422,-47,q),
(424,-52,o),
(422,-75,o),
(422,-80,qs),
(423,-97,o),
(397,-109,o),
(361,-110,o),
(329,-109,o),
(323,-114,q),
(317,-114,o),
(317,-140,o),
(329,-140,q),
(332,-139,o),
(351,-142,o),
(355,-140,qs),
(362,-135,o),
(383,-141,o),
(393,-140,qs),
(418,-138,o),
(452,-125,o),
(453,-97,qs),
(453,-65,ls),
(453,-60,o),
(453,-30,o),
(454,-26,qs),
(461,-7,o),
(453,10,q),
(455,13,o),
(455,19,qs),
(455,24,o),
(455,41,o),
(455,89,o),
(454,139,q),
(462,162,l),
(462,185,o),
(463,271,o),
(463,369,o),
(464,455,o),
(464,478,qs),
(464,482,o),
(465,509,o),
(466,542,o),
(469,568,o),
(471,571,q),
(469,574,o),
(466,604,o),
(465,641,o),
(464,673,o),
(464,677,qs),
(464,681,ls),
(464,689,o),
(449,698,o),
(440,697,qs),
(437,697,o),
(430,694,o),
(430,692,qs),
(429,686,o),
(429,672,o),
(429,665,qs),
(429,393,ls),
(429,374,o),
(408,370,qs),
(404,369,o),
(396,368,o),
(391,368,qs),
(89,368,ls),
(83,368,o),
(77,370,q),
(73,374,o),
(78,380,o),
(79,384,q),
(83,392,o),
(83,402,qs),
(83,473,o),
(83,601,o),
(84,671,qs),
(84,681,o),
(63,703,o),
(57,698,qs),
(45,686,o),
(41,677,o),
(42,675,q),
(48,669,o),
(48,656,o),
(48,649,qs),
(48,580,o),
(47,516,o),
(44,496,o),
(41,493,q),
(40,475,o),
(40,453,o),
(40,433,qs),
(40,8,ls),
(40,0,o),
(52,0,qs),
(60,1,o)
);
},
{
closed = 1;
nodes = (
(287,512,o),
(288,519,qs),
(288,524,o),
(280,535,o),
(278,541,qs),
(275,555,o),
(243,556,o),
(225,543,q),
(219,537,o),
(217,526,q),
(213,517,o),
(222,508,qs),
(227,503,o),
(248,491,o),
(270,487,o),
(275,492,q),
(279,498,o)
);
},
{
closed = 1;
nodes = (
(245,515,o),
(243,517,qs),
(241,519,o),
(242,522,q),
(242,525,o),
(244,527,q),
(249,530,o),
(257,530,o),
(258,526,q),
(259,525,o),
(261,522,o),
(261,520,qs),
(261,518,o),
(259,515,o),
(258,513,q),
(256,511,o)
);
},
{
closed = 1;
nodes = (
(279,155,o),
(285,162,qs),
(293,174,o),
(285,185,qs),
(278,193,o),
(259,209,o),
(248,209,qs),
(230,209,o),
(216,184,o),
(216,177,qs),
(216,165,o),
(237,148,o),
(256,148,qs),
(266,147,o)
);
},
{
closed = 1;
nodes = (
(244,178,qs),
(244,180,o),
(247,187,o),
(251,187,qs),
(258,187,o),
(261,180,q),
(263,179,o),
(261,174,q),
(257,170,o),
(254,171,q),
(244,171,o)
);
}
);
userData = {
assembly = "NPUSHB[ ]	/* 99 values pushed */
6 1 1 5 169 1 9 8 61 1 6 9 130 103 62 3 0 6 98 91 70 3 3 0 5 76 13 1 5 74 0 5 1 5 133 0 1 0 4 7 1 4 104 0 7 0 8 9 7 8 105 10 1 9 0 6 0 9 6 105 0 3 0 2 3 2 101 0 0 0 38 0 78 180 180 180 190 180 190 187 185 173 171 167 166 143 142 122 119 89 87 84 80 30 28 16 11 8 23 
CALL[ ]	/* CallFunction */";
};
width = 511;
}
);
note = uniA726;
unicode = 42790;
},
{
glyphname = uniA7AA;
layers = (
{
layerId = m01;
shapes = (
{
closed = 1;
nodes = (
(168,10,o),
(169,15,q),
(168,26,o),
(168,82,o),
(168,155,o),
(168,233,o),
(169,301,o),
(169,323,qs),
(169,334,o),
(177,337,o),
(194,337,qs),
(484,337,ls),
(512,337,o),
(523,327,o),
(523,303,qs),
(523,241,o),
(523,169,o),
(523,135,o),
(524,122,o),
(524,119,qs),
(525,112,o),
(514,99,o),
(523,92,qs),
(524,91,o),
(522,87,o),
(521,85,qs),
(512,69,o),
(516,37,o),
(517,18,qs),
(517,9,o),
(534,0,o),
(550,6,o),
(550,19,qs),
(550,24,o),
(550,41,o),
(550,89,o),
(549,139,q),
(557,162,l),
(557,185,o),
(558,271,o),
(558,369,o),
(559,455,o),
(559,478,qs),
(559,482,o),
(560,509,o),
(561,542,o),
(564,568,o),
(566,571,q),
(564,574,o),
(561,604,o),
(560,641,o),
(559,673,o),
(559,677,qs),
(559,681,ls),
(559,689,o),
(544,698,o),
(535,697,qs),
(532,697,o),
(525,694,o),
(525,692,qs),
(524,686,o),
(524,672,o),
(524,665,qs),
(524,393,ls),
(524,374,o),
(503,370,qs),
(499,369,o),
(491,368,o),
(486,368,qs),
(184,368,ls),
(178,368,o),
(172,370,q),
(168,374,o),
(173,380,o),
(174,384,q),
(178,392,o),
(178,402,qs),
(178,473,o),
(178,601,o),
(179,671,qs),
(179,679,o),
(171,689,q),
(170,692,o),
(165,695,q),
(162,698,o),
(159,699,q),
(148,706,o),
(129,709,o),
(115,704,qs),
(111,703,o),
(81,703,o),
(76,703,qs),
(53,704,o),
(48,704,o),
(44,704,qs),
(16,703,o),
(2,669,o),
(0,644,qs),
(-1,634,o),
(5,613,o),
(0,606,qs),
(-2,602,o),
(1,583,o),
(0,580,q),
(0,568,o),
(26,568,o),
(26,574,q),
(31,580,o),
(31,612,o),
(32,648,o),
(44,674,o),
(61,673,qs),
(66,673,o),
(89,674,o),
(94,672,q),
(101,671,o),
(106,673,o),
(120,675,o),
(139,672,q),
(139,672,l),
(144,668,o),
(143,656,o),
(143,649,qs),
(143,580,o),
(142,516,o),
(139,496,o),
(136,493,q),
(135,475,o),
(135,453,o),
(135,433,qs),
(135,8,ls),
(135,0,o),
(147,0,qs),
(155,1,o)
);
},
{
closed = 1;
nodes = (
(382,512,o),
(383,519,qs),
(383,524,o),
(375,535,o),
(373,541,qs),
(370,555,o),
(338,556,o),
(320,543,q),
(314,537,o),
(312,526,q),
(308,517,o),
(317,508,qs),
(322,503,o),
(343,491,o),
(365,487,o),
(370,492,q),
(374,498,o)
);
},
{
closed = 1;
nodes = (
(340,515,o),
(338,517,qs),
(336,519,o),
(337,522,q),
(337,525,o),
(339,527,q),
(344,530,o),
(352,530,o),
(353,526,q),
(354,525,o),
(356,522,o),
(356,520,qs),
(356,518,o),
(354,515,o),
(353,513,q),
(351,511,o)
);
},
{
closed = 1;
nodes = (
(374,155,o),
(380,162,qs),
(388,174,o),
(380,185,qs),
(373,193,o),
(354,209,o),
(343,209,qs),
(325,209,o),
(311,184,o),
(311,177,qs),
(311,165,o),
(332,148,o),
(351,148,qs),
(361,147,o)
);
},
{
closed = 1;
nodes = (
(339,178,qs),
(339,180,o),
(342,187,o),
(346,187,qs),
(353,187,o),
(356,180,q),
(358,179,o),
(356,174,q),
(352,170,o),
(349,171,q),
(339,171,o)
);
}
);
userData = {
assembly = "NPUSHB[ ]	/* 98 values pushed */
29 1 5 1 6 1 3 5 170 1 9 8 95 1 6 9 131 96 2 0 6 5 76 0 5 1 3 1 5 3 128 0 3 0 4 7 3 4 104 0 7 0 8 9 7 8 105 10 1 9 0 6 0 9 6 105 0 1 1 2 97 0 2 2 37 77 0 0 0 38 0 78 181 181 181 191 181 191 188 186 174 172 168 167 144 143 123 120 64 62 43 37 22 18 16 11 8 23 
CALL[ ]	/* CallFunction */";
};
width = 606;
}
);
note = uniA7AA;
unicode = 42922;
},
{
glyphname = uniA78D;
layers = (
{
layerId = m01;
shapes = (
{
closed = 1;
nodes = (
(42,343,o),
(60,335,o),
(88,337,o),
(99,337,qs),
(389,337,ls),
(417,337,o),
(428,327,o),
(428,303,qs),
(428,241,o),
(428,169,o),
(428,135,o),
(429,122,o),
(429,119,qs),
(430,112,o),
(419,99,o),
(428,92,qs),
(429,91,o),
(427,87,o),
(426,85,qs),
(417,69,o),
(421,37,o),
(422,18,qs),
(422,9,o),
(439,0,o),
(455,6,o),
(455,19,qs),
(455,24,o),
(455,41,o),
(455,89,o),
(454,139,q),
(462,162,l),
(462,185,o),
(463,271,o),
(463,369,o),
(464,455,o),
(464,478,qs),
(464,482,o),
(465,509,o),
(466,542,o),
(469,568,o),
(471,571,q),
(469,574,o),
(466,604,o),
(465,642,o),
(464,674,o),
(464,678,qs),
(464,682,ls),
(464,690,o),
(449,699,o),
(440,698,qs),
(437,698,o),
(430,695,o),
(430,693,qs),
(429,687,o),
(429,673,o),
(429,666,qs),
(429,393,ls),
(429,374,o),
(408,370,qs),
(404,369,o),
(396,368,o),
(391,368,qs),
(89,368,ls),
(83,368,o),
(77,370,q),
(73,374,o),
(78,380,o),
(79,384,q),
(83,392,o),
(83,402,qs),
(83,473,o),
(83,602,o),
(84,672,qs),
(84,682,o),
(63,704,o),
(57,699,qs),
(45,687,o),
(41,678,o),
(42,676,q),
(48,670,o),
(48,657,o),
(48,650,qs),
(48,581,o),
(47,517,o),
(44,496,o),
(41,493,q),
(40,475,o),
(40,453,o),
(40,433,qs),
(42,358,ls)
);
},
{
closed = 1;
nodes = (
(286,512,o),
(287,519,qs),
(287,524,o),
(279,535,o),
(277,541,qs),
(274,555,o),
(242,556,o),
(224,543,q),
(218,537,o),
(216,526,q),
(212,517,o),
(221,508,qs),
(226,503,o),
(247,491,o),
(269,487,o),
(274,492,q),
(278,498,o)
);
},
{
closed = 1;
nodes = (
(244,515,o),
(242,517,qs),
(240,519,o),
(241,522,q),
(241,525,o),
(243,527,q),
(248,530,o),
(256,530,o),
(257,526,q),
(258,525,o),
(260,522,o),
(260,520,qs),
(260,518,o),
(258,515,o),
(257,513,q),
(255,511,o)
);
}
);
userData = {
assembly = "NPUSHB[ ]	/* 45 values pushed */
3 1 0 2 1 76 10 1 2 74 59 58 2 1 73 0 2 0 2 133 0 0 1 1 0 87 0 0 0 1 96 0 1 0 1 80 100 99 86 83 27 25 3 8 22 
CALL[ ]	/* CallFunction */";
};
width = 511;
}
);
note = uniA78D;
unicode = 42893;
},
{
glyphname = I;
kernLeft = I;
layers = (
{
layerId = m01;
shapes = (
{
closed = 1;
nodes = (
(407,8,o),
(420,9,qs),
(442,10,o),
(442,32,qs),
(442,73,o),
(442,155,o),
(443,195,q),
(429,212,l),
(415,217,o),
(413,206,qs),
(413,204,o),
(412,167,o),
(412,117,o),
(412,71,o),
(412,60,qs),
(412,42,o),
(405,37,o),
(394,37,qs),
(383,37,o),
(361,37,o),
(350,29,q),
(329,29,o),
(285,29,o),
(264,30,qs),
(262,30,o),
(257,36,o),
(257,38,qs),
(257,40,o),
(257,98,o),
(257,192,o),
(257,308,o),
(257,431,o),
(257,545,o),
(257,635,o),
(257,660,q),
(263,663,o),
(309,660,o),
(364,667,q),
(376,667,o),
(387,659,q),
(392,657,o),
(402,660,o),
(405,663,q),
(410,666,o),
(411,661,qs),
(411,658,o),
(412,648,o),
(412,618,o),
(412,556,o),
(412,502,qs),
(412,490,o),
(427,488,o),
(442,501,o),
(442,511,qs),
(442,678,ls),
(442,682,o),
(442,682,q),
(430,700,o),
(407,700,qs),
(363,699,o),
(340,700,o),
(338,698,qs),
(333,694,o),
(295,689,o),
(253,692,o),
(242,699,q),
(225,697,o),
(172,703,o),
(152,692,qs),
(141,687,o),
(125,691,o),
(109,700,o),
(96,700,qs),
(86,700,o),
(60,697,o),
(41,684,o),
(41,670,qs),
(41,649,o),
(41,585,o),
(41,521,o),
(41,499,qs),
(41,492,o),
(56,487,o),
(71,494,o),
(71,505,qs),
(71,559,o),
(71,620,o),
(71,649,o),
(72,658,o),
(72,660,qs),
(72,665,o),
(77,665,qs),
(82,666,o),
(98,669,o),
(101,667,qs),
(107,663,o),
(119,660,o),
(126,660,qs),
(131,660,o),
(161,660,o),
(195,660,o),
(223,661,o),
(226,662,q),
(228,651,o),
(226,627,o),
(232,616,q),
(225,581,l),
(225,559,o),
(225,474,o),
(225,367,o),
(226,251,o),
(226,144,o),
(226,59,o),
(226,37,qs),
(226,27,o),
(214,29,q),
(209,29,o),
(206,30,qs),
(186,37,o),
(147,31,o),
(102,27,o),
(72,36,q),
(72,47,o),
(70,75,o),
(75,84,q),
(81,91,o),
(75,102,qs),
(71,110,o),
(71,122,qs),
(71,184,ls),
(71,188,o),
(72,195,o),
(70,196,q),
(65,204,o),
(54,209,q),
(52,211,o),
(43,200,o),
(42,197,qs),
(41,195,o),
(40,191,o),
(40,189,qs),
(40,30,ls),
(40,21,o),
(52,9,o),
(61,9,qs),
(69,8,o),
(95,9,o),
(102,7,qs),
(114,3,o),
(150,6,o),
(153,6,qs),
(155,6,o),
(181,3,o),
(183,1,q),
(344,1,ls),
(349,1,o),
(361,0,o),
(371,-1,qs),
(384,-1,o)
);
}
);
userData = {
assembly = "NPUSHB[ ]	/* 102 values pushed */
101 92 2 4 5 151 123 52 51 17 5 10 3 36 1 9 10 3 76 8 1 3 4 10 4 3 10 128 7 1 4 4 5 97 6 1 5 5 37 77 0 10 10 0 97 13 12 2 0 0 38 77 11 2 2 1 1 38 77 0 9 9 0 97 13 12 2 0 0 38 0 78 0 0 0 158 0 158 156 155 141 138 137 133 122 121 120 119 100 96 86 84 65 63 61 55 17 23 34 14 8 25 
CALL[ ]	/* CallFunction */";
};
width = 483;
}
);
note = I;
unicode = 73;
},
{
glyphname = uni01CF;
layers = (
{
layerId = m01;
shapes = (
{
closed = 1;
nodes = (
(407,8,o),
(420,9,qs),
(442,10,o),
(442,32,qs),
(442,73,o),
(442,155,o),
(443,195,q),
(429,212,l),
(415,217,o),
(413,206,qs),
(413,204,o),
(412,167,o),
(412,117,o),
(412,71,o),
(412,60,qs),
(412,42,o),
(405,37,o),
(394,37,qs),
(383,37,o),
(361,37,o),
(350,29,q),
(329,29,o),
(285,29,o),
(264,30,qs),
(262,30,o),
(257,36,o),
(257,38,qs),
(257,40,o),
(257,98,o),
(257,192,o),
(257,308,o),
(257,431,o),
(257,545,o),
(257,635,o),
(257,660,q),
(263,663,o),
(309,660,o),
(364,667,q),
(376,667,o),
(387,659,q),
(392,657,o),
(402,660,o),
(405,663,q),
(410,666,o),
(411,661,qs),
(411,658,o),
(412,648,o),
(412,618,o),
(412,556,o),
(412,502,qs),
(412,490,o),
(427,488,o),
(442,501,o),
(442,511,qs),
(442,678,ls),
(442,682,o),
(442,682,q),
(430,700,o),
(407,700,qs),
(363,699,o),
(340,700,o),
(338,698,qs),
(333,694,o),
(295,689,o),
(253,692,o),
(242,699,q),
(225,697,o),
(172,703,o),
(152,692,qs),
(141,687,o),
(125,691,o),
(109,700,o),
(96,700,qs),
(86,700,o),
(60,697,o),
(41,684,o),
(41,670,qs),
(41,649,o),
(41,585,o),
(41,521,o),
(41,499,qs),
(41,492,o),
(56,487,o),
(71,494,o),
(71,505,qs),
(71,559,o),
(71,620,o),
(71,649,o),
(72,658,o),
(72,660,qs),
(72,665,o),
(77,665,qs),
(82,666,o),
(98,669,o),
(101,667,qs),
(107,663,o),
(119,660,o),
(126,660,qs),
(131,660,o),
(161,660,o),
(195,660,o),
(223,661,o),
(226,662,q),
(228,651,o),
(226,627,o),
(232,616,q),
(225,581,l),
(225,559,o),
(225,474,o),
(225,367,o),
(226,251,o),
(226,144,o),
(226,59,o),
(226,37,qs),
(226,27,o),
(214,29,q),
(209,29,o),
(206,30,qs),
(186,37,o),
(147,31,o),
(102,27,o),
(72,36,q),
(72,47,o),
(70,75,o),
(75,84,q),
(81,91,o),
(75,102,qs),
(71,110,o),
(71,122,qs),
(71,184,ls),
(71,188,o),
(72,195,o),
(70,196,q),
(65,204,o),
(54,209,q),
(52,211,o),
(43,200,o),
(42,197,qs),
(41,195,o),
(40,191,o),
(40,189,qs),
(40,30,ls),
(40,21,o),
(52,9,o),
(61,9,qs),
(69,8,o),
(95,9,o),
(102,7,qs),
(114,3,o),
(150,6,o),
(153,6,qs),
(155,6,o),
(181,3,o),
(183,1,q),
(344,1,ls),
(349,1,o),
(361,0,o),
(371,-1,qs),
(384,-1,o)
);
},
{
closed = 1;
nodes = (
(287,836,o),
(284,832,qs),
(282,830,o),
(269,813,o),
(267,811,qs),
(265,808,o),
(258,797,o),
(256,796,qs),
(250,793,o),
(246,793,o),
(241,795,q),
(237,800,o),
(215,820,o),
(188,843,o),
(165,859,o),
(160,859,q),
(152,861,o),
(140,859,o),
(144,850,q),
(150,844,o),
(162,831,o),
(166,824,q),
(171,821,o),
(183,806,o),
(189,803,q),
(197,796,o),
(204,787,o),
(211,781,qs),
(219,774,o),
(235,760,o),
(239,749,qs),
(241,745,o),
(249,744,o),
(251,748,q),
(262,760,o),
(293,794,o),
(323,829,o),
(343,852,o),
(342,853,qs),
(340,855,o),
(334,860,o),
(332,860,q),
(327,862,o),
(320,860,q),
(306,853,o)
);
}
);
userData = {
assembly = "NPUSHB[ ]	/* 102 values pushed */
101 92 2 4 5 151 123 52 51 17 5 10 3 36 1 9 10 3 76 8 1 3 4 10 4 3 10 128 7 1 4 4 5 97 6 1 5 5 37 77 0 10 10 0 97 13 12 2 0 0 38 77 11 2 2 1 1 38 77 0 9 9 0 97 13 12 2 0 0 38 0 78 0 0 0 158 0 158 156 155 141 138 137 133 122 121 120 119 100 96 86 84 65 63 61 55 17 23 34 14 8 25 
CALL[ ]	/* CallFunction */";
};
width = 483;
}
);
note = uni01CF;
unicode = 463;
},
{
glyphname = Igrave;
layers = (
{
layerId = m01;
shapes = (
{
closed = 1;
nodes = (
(407,8,o),
(420,9,qs),
(442,10,o),
(442,32,qs),
(442,73,o),
(442,155,o),
(443,195,q),
(429,212,l),
(415,217,o),
(413,206,qs),
(413,204,o),
(412,167,o),
(412,117,o),
(412,71,o),
(412,60,qs),
(412,42,o),
(405,37,o),
(394,37,qs),
(383,37,o),
(361,37,o),
(350,29,q),
(329,29,o),
(285,29,o),
(264,30,qs),
(262,30,o),
(257,36,o),
(257,38,qs),
(257,40,o),
(257,98,o),
(257,192,o),
(257,308,o),
(257,431,o),
(257,545,o),
(257,635,o),
(257,660,q),
(263,663,o),
(309,660,o),
(364,667,q),
(376,667,o),
(387,659,q),
(392,657,o),
(402,660,o),
(405,663,q),
(410,666,o),
(411,661,qs),
(411,658,o),
(412,648,o),
(412,618,o),
(412,556,o),
(412,502,qs),
(412,490,o),
(427,488,o),
(442,501,o),
(442,511,qs),
(442,678,ls),
(442,682,o),
(442,682,q),
(430,700,o),
(407,700,qs),
(363,699,o),
(340,700,o),
(338,698,qs),
(333,694,o),
(295,689,o),
(253,692,o),
(242,699,q),
(225,697,o),
(172,703,o),
(152,692,qs),
(141,687,o),
(125,691,o),
(109,700,o),
(96,700,qs),
(86,700,o),
(60,697,o),
(41,684,o),
(41,670,qs),
(41,649,o),
(41,585,o),
(41,521,o),
(41,499,qs),
(41,492,o),
(56,487,o),
(71,494,o),
(71,505,qs),
(71,559,o),
(71,620,o),
(71,649,o),
(72,658,o),
(72,660,qs),
(72,665,o),
(77,665,qs),
(82,666,o),
(98,669,o),
(101,667,qs),
(107,663,o),
(119,660,o),
(126,660,qs),
(131,660,o),
(161,660,o),
(195,660,o),
(223,661,o),
(226,662,q),
(228,651,o),
(226,627,o),
(232,616,q),
(225,581,l),
(225,559,o),
(225,474,o),
(225,367,o),
(226,251,o),
(226,144,o),
(226,59,o),
(226,37,qs),
(226,27,o),
(214,29,q),
(209,29,o),
(206,30,qs),
(186,37,o),
(147,31,o),
(102,27,o),
(72,36,q),
(72,47,o),
(70,75,o),
(75,84,q),
(81,91,o),
(75,102,qs),
(71,110,o),
(71,122,qs),
(71,184,ls),
(71,188,o),
(72,195,o),
(70,196,q),
(65,204,o),
(54,209,q),
(52,211,o),
(43,200,o),
(42,197,qs),
(41,195,o),
(40,191,o),
(40,189,qs),
(40,30,ls),
(40,21,o),
(52,9,o),
(61,9,qs),
(69,8,o),
(95,9,o),
(102,7,qs),
(114,3,o),
(150,6,o),
(153,6,qs),
(155,6,o),
(181,3,o),
(183,1,q),
(344,1,ls),
(349,1,o),
(361,0,o),
(371,-1,qs),
(384,-1,o)
);
},
{
closed = 1;
nodes = (
(266,792,o),
(255,802,qs),
(234,820,o),
(222,836,q),
(214,843,o),
(200,856,o),
(193,864,qs),
(189,869,o),
(180,879,o),
(173,880,q),
(171,882,o),
(165,877,o),
(163,878,qs),
(160,880,o),
(149,869,o),
(150,866,qs),
(155,854,o),
(165,831,o),
(181,826,qs),
(187,824,o),
(198,816,o),
(202,811,qs),
(210,802,o),
(231,780,o),
(247,766,qs),
(265,753,o),
(293,758,o),
(297,762,q),
(287,772,o)
);
}
);
userData = {
assembly = "NPUSHB[ ]	/* 106 values pushed */
101 92 2 4 5 151 123 52 51 17 5 10 3 36 1 9 10 3 76 171 1 5 74 8 1 3 4 10 4 3 10 128 7 1 4 4 5 97 6 1 5 5 37 77 0 10 10 0 97 13 12 2 0 0 38 77 11 2 2 1 1 38 77 0 9 9 0 97 13 12 2 0 0 38 0 78 0 0 0 158 0 158 156 155 141 138 137 133 122 121 120 119 100 96 86 84 65 63 61 55 17 23 34 14 8 25 
CALL[ ]	/* CallFunction */";
};
width = 483;
}
);
note = Igrave;
unicode = 204;
},
{
glyphname = Iotalatin;
layers = (
{
layerId = m01;
shapes = (
{
closed = 1;
nodes = (
(169,19,o),
(219,51,o),
(271,89,o),
(292,106,qs),
(302,114,o),
(325,119,o),
(325,136,qs),
(325,145,o),
(335,149,o),
(330,156,qs),
(325,165,o),
(294,152,o),
(265,129,q),
(152,52,l),
(145,54,o),
(145,61,qs),
(145,643,ls),
(145,649,o),
(151,668,o),
(151,691,o),
(141,701,q),
(129,703,o),
(122,698,q),
(117,697,o),
(108,688,o),
(104,683,qs),
(97,675,o),
(83,662,o),
(75,655,q),
(63,639,o),
(42,621,qs),
(31,611,o),
(11,591,o),
(0,581,q),
(5,577,o),
(32,572,o),
(50,585,qs),
(67,599,o),
(88,621,o),
(95,630,qs),
(99,634,o),
(107,640,o),
(111,643,q),
(111,509,o),
(111,338,o),
(112,241,o),
(112,197,o),
(112,185,o),
(112,183,qs),
(112,178,o),
(109,167,o),
(104,162,q),
(109,155,o),
(112,139,o),
(112,131,qs),
(112,125,o),
(112,94,o),
(111,57,o),
(111,25,o),
(111,19,qs),
(112,12,o),
(123,1,o),
(130,0,qs),
(134,0,o)
);
}
);
userData = {
assembly = "PUSHB[ ]	/* 4 values pushed */
41 0 1 50 
CALL[ ]	/* CallFunction */";
};
width = 352;
}
);
note = Iotalatin;
unicode = 406;
},
